<svg xmlns="http://www.w3.org/2000/svg" xmlns:xlink="http://www.w3.org/1999/xlink" width="890.433" height="932.141" viewBox="0 0 890.433 932.141">
  <defs>
    <linearGradient id="linear-gradient" x1="0.29" y1="0.017" x2="1.064" y2="1.177" gradientUnits="objectBoundingBox">
      <stop offset="0" stop-color="#81338a"/>
      <stop offset="0.99" stop-color="#2979ff"/>
      <stop offset="1" stop-color="#2979ff"/>
    </linearGradient>
    <linearGradient id="linear-gradient-2" x1="0.197" y1="0.037" x2="0.735" y2="1.133" gradientUnits="objectBoundingBox">
      <stop offset="0" stop-color="#d500f9"/>
      <stop offset="0.99" stop-color="#27358b"/>
      <stop offset="1" stop-color="#27358b"/>
    </linearGradient>
    <linearGradient id="linear-gradient-3" x1="0.265" y1="0.146" x2="0.772" y2="0.91" gradientUnits="objectBoundingBox">
      <stop offset="0" stop-color="#81338a"/>
      <stop offset="0.99" stop-color="#27358b"/>
      <stop offset="1" stop-color="#27358b"/>
    </linearGradient>
  </defs>
  <g id="Group_1" data-name="Group 1" transform="matrix(0.966, -0.259, 0.259, 0.966, -15.705, 194.423)" style="isolation: isolate">
    <path id="Path_1549" data-name="Path 1549" d="M452.9,221.842c.484,1.7,1.007,3.4,1.453,5.114.537,2.051.988,4.107,1.472,6.163.394,1.662.826,3.319,1.187,4.986.456,2.113.822,4.231,1.22,6.344.3,1.619.655,3.229.926,4.848.375,2.213.655,4.426.964,6.638.214,1.524.475,3.053.66,4.578.271,2.241.446,4.483.651,6.719.138,1.505.323,3.01.432,4.516.176,2.432.252,4.862.347,7.294.052,1.306.157,2.612.185,3.918q.121,5.606-.038,11.187C460.885,345,441.62,386.337,410.6,414.178l-73.75,66.2c31.018-27.841,50.283-69.187,51.759-120.034q.157-5.577.033-11.183c-.029-1.32-.133-2.64-.185-3.96-.1-2.417-.171-4.834-.347-7.256-.109-1.52-.3-3.039-.437-4.559-.2-2.222-.375-4.449-.646-6.672-.185-1.538-.446-3.072-.665-4.611-.309-2.2-.589-4.406-.959-6.61-.271-1.614-.622-3.229-.926-4.843-.4-2.118-.764-4.236-1.22-6.344-.361-1.676-.8-3.343-1.192-5.015-.48-2.047-.931-4.1-1.467-6.135-.451-1.723-.973-3.428-1.458-5.142-.56-1.985-1.092-3.97-1.7-5.946-.532-1.733-1.14-3.452-1.71-5.18-.636-1.937-1.244-3.875-1.923-5.8q-2.222-6.268-4.758-12.469c-.5-1.216-1.035-2.422-1.548-3.633-1.244-2.949-2.526-5.883-3.87-8.8q-1.1-2.407-2.26-4.8-1.368-2.835-2.8-5.656-1.3-2.564-2.655-5.109-1.482-2.792-3.025-5.565c-.992-1.781-1.994-3.552-3.02-5.314q-1.275-2.179-2.574-4.345-1.688-2.785-3.438-5.546c-.893-1.42-1.79-2.835-2.707-4.24-.764-1.169-1.557-2.318-2.336-3.476-3.41-5.076-6.928-10.091-10.627-14.986-.237-.314-.484-.613-.722-.926-3.419-4.492-6.985-8.889-10.637-13.215-.7-.826-1.387-1.667-2.094-2.488q-5.563-6.46-11.468-12.641c-.788-.831-1.6-1.643-2.393-2.46-4.017-4.127-8.115-8.172-12.341-12.085-.157-.147-.309-.3-.47-.446-4.506-4.155-9.16-8.139-13.885-12.028-1.083-.888-2.156-1.795-3.248-2.669-1.273-1.016-2.555-2.014-3.837-3.011q-2.657-2.058-5.352-4.074-1.98-1.467-3.979-2.9-2.543-1.83-5.133-3.6-2.557-1.766-5.147-3.476-2.472-1.631-4.977-3.215-2.621-1.66-5.28-3.262c-1.524-.926-3.063-1.828-4.606-2.721-2.773-1.61-5.57-3.158-8.391-4.673-1.263-.679-2.521-1.377-3.794-2.037-4.017-2.08-8.063-4.093-12.166-5.974l-.133-.067c-4.829-2.213-9.73-4.231-14.668-6.154-1.23-.484-2.469-.954-3.709-1.42-4.972-1.857-9.981-3.618-15.048-5.171-4.046-1.235-8.063-2.327-12.057-3.334-1.282-.323-2.55-.593-3.827-.893-2.726-.641-5.442-1.249-8.139-1.785-1.467-.289-2.92-.546-4.378-.807q-3.789-.669-7.536-1.211c-1.458-.209-2.911-.413-4.359-.594-2.6-.318-5.171-.57-7.735-.793-1.268-.109-2.545-.242-3.8-.328q-5.086-.349-10.091-.436c-.394,0-.793-.038-1.187-.043-3.713-.043-7.389.033-11.026.195-1.116.052-2.218.152-3.324.218-2.4.152-4.777.333-7.137.57-2.616.266-5.19.627-7.759,1-1.458.213-2.93.384-4.373.631-3.068.527-6.078,1.163-9.065,1.842-.9.2-1.823.356-2.716.574-.935.228-1.838.518-2.764.76-2.5.656-4.981,1.33-7.422,2.09-1.254.394-2.474.85-3.713,1.272-2.094.712-4.188,1.425-6.235,2.217-1.026.4-2.037.831-3.049,1.249q-3.127,1.282-6.178,2.692c-1.054.489-2.1.983-3.144,1.5q-3.326,1.631-6.553,3.419c-.636.351-1.287.679-1.918,1.045q-4.138,2.365-8.1,4.981c-.565.375-1.116.774-1.676,1.159q-3.141,2.137-6.159,4.426c-.712.541-1.425,1.082-2.123,1.633-2.446,1.928-4.853,3.9-7.17,5.983l73.755-66.2q2.714-2.435,5.551-4.739c.527-.427,1.083-.821,1.615-1.239.7-.555,1.415-1.1,2.123-1.634q3.02-2.293,6.159-4.43c.565-.38,1.111-.779,1.681-1.154.228-.152.446-.318.679-.47,2.417-1.576,4.9-3.072,7.417-4.516.627-.361,1.282-.689,1.918-1.045,1.467-.812,2.93-1.643,4.43-2.412.7-.356,1.425-.665,2.127-1.011,1.035-.508,2.085-1,3.134-1.486,2.032-.945,4.093-1.838,6.178-2.7,1.016-.417,2.023-.845,3.053-1.244.465-.18.912-.39,1.377-.565,1.591-.6,3.239-1.106,4.858-1.657,1.239-.422,2.46-.873,3.713-1.267,2.45-.769,4.953-1.444,7.465-2.1.907-.237,1.795-.522,2.716-.746.1-.028.2-.062.309-.085.8-.195,1.643-.314,2.45-.5,2.977-.674,5.969-1.311,9.018-1.833,1.453-.247,2.935-.423,4.4-.637,2.564-.37,5.133-.726,7.745-.993.537-.057,1.054-.157,1.6-.2,1.828-.171,3.69-.252,5.537-.366,1.111-.071,2.208-.171,3.329-.218,3.637-.161,7.308-.242,11.026-.195.389,0,.793.033,1.187.043q5,.093,10.091.432c1.258.085,2.526.223,3.789.332,2.574.218,5.152.47,7.754.793,1.444.175,2.9.38,4.35.589q3.754.541,7.541,1.215c1.458.256,2.911.518,4.378.807,2.7.532,5.413,1.14,8.134,1.781,1.277.3,2.55.57,3.832.893,3.994,1.007,8.011,2.1,12.052,3.338,5.071,1.548,10.076,3.314,15.053,5.171,1.239.461,2.474.936,3.709,1.415,4.934,1.928,9.839,3.941,14.668,6.159l.009,0,.123.057c4.1,1.885,8.144,3.894,12.161,5.974,1.282.665,2.54,1.363,3.818,2.047q4.21,2.265,8.362,4.658c.693.4,1.41.765,2.1,1.173.855.5,1.681,1.05,2.531,1.562q2.643,1.6,5.247,3.248,2.521,1.589,5.01,3.229,2.578,1.7,5.128,3.466c.864.594,1.752,1.154,2.612,1.762s1.681,1.235,2.526,1.842q2,1.439,3.979,2.906,2.7,2.008,5.352,4.074c1.282,1,2.564,1.99,3.832,3.006.575.46,1.168.9,1.743,1.368.513.418.992.883,1.51,1.306,4.725,3.889,9.374,7.868,13.88,12.023l.1.09c.133.119.252.252.385.37,4.217,3.908,8.31,7.954,12.323,12.071.48.494,1,.945,1.472,1.443.318.328.608.684.926,1.016q5.891,6.176,11.458,12.636c.271.308.565.6.831.917.446.517.845,1.073,1.282,1.6,3.652,4.316,7.208,8.709,10.623,13.2.185.242.389.465.57.708.057.071.1.147.157.218,3.7,4.9,7.213,9.906,10.618,14.977.366.537.774,1.05,1.135,1.6.418.627.807,1.278,1.22,1.909.912,1.4,1.8,2.8,2.688,4.207q1.752,2.77,3.447,5.575,1.3,2.151,2.564,4.326c.532.907,1.092,1.8,1.61,2.716.494.864.94,1.743,1.42,2.612q1.546,2.763,3.02,5.551,1.36,2.55,2.664,5.124,1.425,2.813,2.787,5.646c.456.945.95,1.876,1.4,2.82.3.655.565,1.32.869,1.976,1.344,2.92,2.626,5.855,3.87,8.8.513,1.211,1.049,2.417,1.543,3.633,1.681,4.131,3.281,8.286,4.758,12.465l.085.214c.655,1.866,1.235,3.747,1.852,5.617.565,1.719,1.168,3.434,1.7,5.157C451.806,217.858,452.338,219.852,452.9,221.842Z" transform="translate(170.3 121.969)" fill="url(#linear-gradient)"/>
    <path id="Path_1550" data-name="Path 1550" d="M435.013,629.444c.912.195,1.823.375,2.74.56,4.905,1,9.792,1.923,14.64,2.7l.389.057c4.777.76,9.516,1.387,14.231,1.933.855.1,1.709.209,2.564.3q6.923.755,13.757,1.2c.9.057,1.79.1,2.683.152,4.673.266,9.321.456,13.918.513.223,0,.442-.005.66,0,4.483.043,8.918-.033,13.324-.185.788-.029,1.586-.047,2.374-.081q6.567-.285,13.021-.859c1.159-.1,2.317-.214,3.466-.328q2.806-.285,5.58-.617c1.3-.157,2.6-.323,3.894-.5q2.771-.377,5.518-.812c1.258-.195,2.521-.394,3.775-.608,1.885-.323,3.756-.674,5.622-1.035,1.168-.223,2.341-.441,3.5-.679,2.07-.432,4.122-.9,6.164-1.377.893-.2,1.79-.394,2.673-.608,4.521-1.1,8.97-2.341,13.367-3.671.655-.2,1.311-.385,1.961-.589q6.375-1.98,12.565-4.293c.76-.28,1.519-.56,2.27-.85,3.671-1.406,7.3-2.873,10.87-4.44.451-.2.893-.413,1.344-.613q4.95-2.215,9.758-4.639c.655-.328,1.315-.651,1.966-.983q4.779-2.464,9.421-5.128c.655-.375,1.3-.77,1.956-1.154q3.939-2.322,7.778-4.786c.66-.427,1.33-.841,1.99-1.273q4.3-2.828,8.467-5.841c.556-.4,1.1-.826,1.653-1.235q3.44-2.543,6.776-5.209c.731-.584,1.462-1.163,2.184-1.757,2.574-2.113,5.119-4.259,7.6-6.486l.028-.024-.009.01.009,0L597.708,642.4c-2.488,2.236-5.048,4.392-7.631,6.515-.309.252-.6.522-.907.769-.413.337-.85.641-1.263.973q-3.341,2.671-6.776,5.209c-.56.413-1.106.836-1.667,1.244q-4.16,3.013-8.462,5.841c-.228.147-.446.313-.674.461-.427.28-.878.527-1.311.807q-3.832,2.465-7.783,4.786c-.655.384-1.3.779-1.956,1.159q-4.644,2.664-9.426,5.128c-.237.119-.461.256-.693.375-.413.213-.845.394-1.258.6q-4.822,2.429-9.782,4.649c-.442.2-.879.413-1.325.608-3.566,1.567-7.194,3.034-10.86,4.435-.394.152-.774.333-1.173.48-.366.138-.75.247-1.121.384q-6.183,2.294-12.546,4.283c-.655.2-1.32.394-1.975.593-4.392,1.33-8.837,2.564-13.353,3.666-.1.024-.209.062-.313.086-.793.195-1.61.351-2.408.536-2.032.47-4.069.94-6.126,1.363-1.159.242-2.332.456-3.5.679-1.871.361-3.737.717-5.627,1.04-1.254.214-2.512.408-3.775.608-1.833.285-3.666.56-5.513.807-1.3.176-2.593.342-3.9.5q-2.778.342-5.584.617c-.779.081-1.543.185-2.327.256-.37.033-.75.043-1.125.076q-6.453.57-13.03.855c-.788.038-1.586.052-2.374.081-4.407.152-8.842.228-13.32.185-.223,0-.442,0-.665,0-4.6-.057-9.241-.247-13.913-.512-.9-.052-1.79-.1-2.688-.157q-6.824-.449-13.747-1.192c-.859-.095-1.724-.2-2.588-.3-4.711-.546-9.445-1.169-14.217-1.928-.128-.024-.261-.038-.389-.062-4.844-.774-9.725-1.7-14.626-2.7-.921-.19-1.842-.37-2.764-.565q-7.13-1.51-14.331-3.343c-.912-.233-1.828-.48-2.74-.717-5.01-1.311-10.029-2.7-15.081-4.245-5.257-1.61-10.475-3.362-15.67-5.186-1.534-.541-3.053-1.106-4.578-1.662q-5.755-2.1-11.449-4.368c-1.51-.6-3.02-1.192-4.525-1.814-5.062-2.085-10.1-4.245-15.091-6.529l-.081-.038-.038-.014c-.081-.038-.157-.081-.237-.119-6.287-2.887-12.493-5.964-18.652-9.155-1.966-1.021-3.9-2.094-5.855-3.144q-6.5-3.483-12.883-7.175c-1.068-.617-2.17-1.173-3.229-1.8-1.306-.769-2.574-1.61-3.875-2.393q-4.067-2.457-8.092-5.005-3.861-2.443-7.678-4.957-3.982-2.622-7.906-5.337c-1.334-.917-2.7-1.781-4.027-2.716-1.3-.917-2.569-1.895-3.87-2.825q-3.077-2.208-6.121-4.473-4.138-3.077-8.215-6.249c-1.98-1.539-3.96-3.072-5.921-4.644-.888-.712-1.8-1.387-2.683-2.108-2.051-1.662-4.051-3.4-6.078-5.1-1.505-1.263-3.03-2.512-4.521-3.794q-5.57-4.787-11-9.749c-.655-.6-1.334-1.173-1.985-1.776-.085-.076-.171-.152-.252-.228q-6.183-5.7-12.156-11.615c-1.2-1.182-2.365-2.393-3.552-3.585-2.037-2.046-4.1-4.074-6.1-6.154-.826-.86-1.619-1.743-2.436-2.607-1.391-1.468-2.764-2.949-4.136-4.43q-3.9-4.21-7.707-8.5c-1.325-1.491-2.65-2.982-3.951-4.487-.693-.8-1.41-1.577-2.1-2.379-2.028-2.374-3.994-4.8-5.974-7.2-1-1.216-2.028-2.412-3.015-3.633q-5.2-6.432-10.2-13c-.119-.157-.228-.318-.347-.475-.755-1-1.472-2.023-2.218-3.025q-4.06-5.456-7.978-10.993c-1.173-1.671-2.308-3.367-3.462-5.048-1.434-2.094-2.906-4.169-4.307-6.282-.636-.955-1.22-1.933-1.847-2.887-1.406-2.155-2.778-4.321-4.15-6.491q-2.692-4.259-5.3-8.561-2-3.313-3.941-6.657c-.821-1.411-1.69-2.8-2.5-4.212-.75-1.315-1.429-2.659-2.165-3.984q-2.372-4.253-4.649-8.543-2.08-3.918-4.084-7.859-2.194-4.323-4.293-8.685c-.7-1.467-1.467-2.906-2.161-4.373-.47-1.007-.869-2.028-1.33-3.034-2.07-4.483-4.041-9-5.955-13.529-.784-1.856-1.61-3.709-2.37-5.575C27.625,400.811,25.166,394.429,22.9,388c-.043-.114-.095-.233-.138-.347-1.011-2.868-1.9-5.755-2.844-8.633-.869-2.631-1.79-5.251-2.607-7.892-.94-3.068-1.762-6.149-2.635-9.226-.736-2.607-1.534-5.2-2.218-7.821-.807-3.072-1.482-6.159-2.213-9.241-.622-2.635-1.311-5.266-1.88-7.906-.665-3.087-1.2-6.178-1.781-9.269-.5-2.645-1.073-5.285-1.52-7.935-.546-3.243-.954-6.491-1.415-9.74-.351-2.5-.779-5-1.078-7.5-.427-3.543-.708-7.085-1.03-10.627-.2-2.208-.475-4.416-.636-6.624-.28-3.927-.408-7.849-.56-11.776C.274,271.641.126,269.818.084,268q-.192-8.611.057-17.194c2.265-78.214,31.9-141.792,79.6-184.6L153.49,0c-47.7,42.818-77.335,106.4-79.6,184.6q-.242,8.583-.052,17.2c.043,1.9.195,3.8.271,5.708.147,3.841.271,7.683.546,11.525.171,2.37.465,4.739.684,7.1.309,3.386.575,6.767.983,10.148.309,2.564.741,5.128,1.106,7.693.451,3.181.85,6.368,1.387,9.549.442,2.64,1.011,5.276,1.51,7.916.589,3.1,1.125,6.2,1.79,9.288.575,2.66,1.263,5.309,1.895,7.963.722,3.063,1.4,6.126,2.194,9.179.693,2.64,1.5,5.261,2.241,7.892.864,3.058,1.681,6.116,2.616,9.16.812,2.63,1.733,5.247,2.6,7.868.988,3.006,1.933,6.016,2.987,9.008,2.275,6.425,4.734,12.807,7.318,19.16.76,1.871,1.586,3.723,2.37,5.584,1.914,4.53,3.884,9.041,5.955,13.529q1.709,3.711,3.49,7.394,2.1,4.359,4.293,8.69,2,3.946,4.084,7.854,2.279,4.3,4.658,8.566,2.279,4.1,4.639,8.163c1.306,2.236,2.616,4.464,3.956,6.681q2.607,4.3,5.3,8.562c1.368,2.165,2.735,4.331,4.141,6.477,2.018,3.087,4.084,6.145,6.168,9.188,1.149,1.677,2.279,3.367,3.447,5.029q3.9,5.542,7.968,10.979c.75,1.012,1.472,2.042,2.232,3.048q5.15,6.817,10.542,13.472c.988,1.22,2.009,2.417,3.011,3.632q3.982,4.829,8.073,9.587c1.306,1.505,2.631,3,3.956,4.487q3.8,4.288,7.7,8.5,2.059,2.229,4.146,4.44,4.2,4.424,8.514,8.738c1.192,1.2,2.37,2.417,3.576,3.609q6.111,6.018,12.408,11.838c.636.589,1.3,1.154,1.942,1.738q5.449,4.972,11.04,9.787c1.491,1.282,3.011,2.526,4.516,3.789,2.9,2.432,5.822,4.848,8.775,7.213,1.952,1.562,3.927,3.1,5.9,4.63q4.081,3.17,8.224,6.259,3.049,2.265,6.126,4.478,3.918,2.807,7.883,5.532,3.939,2.707,7.916,5.342,3.811,2.514,7.674,4.952,4.032,2.55,8.1,5.01,3.526,2.13,7.09,4.188,6.4,3.711,12.907,7.185c1.942,1.045,3.875,2.118,5.831,3.134,6.178,3.2,12.4,6.287,18.709,9.184.071.033.142.071.218.1l.138.062c4.967,2.279,9.991,4.426,15.034,6.506,1.51.622,3.034,1.216,4.549,1.823q5.677,2.258,11.411,4.354c1.539.56,3.072,1.13,4.611,1.671,5.19,1.824,10.4,3.576,15.661,5.18,5.048,1.543,10.072,2.935,15.072,4.246.916.242,1.833.489,2.749.722Q427.881,627.932,435.013,629.444Z" transform="translate(0 60.678)" fill="url(#linear-gradient-2)"/>
    <g id="Group_2367" data-name="Group 2367" transform="translate(73.751 0)">
      <path id="Path_1551" data-name="Path 1551" d="M329.1,681.812c186.666,57.073,342.883-45.89,348.2-229.5C682.62,268.66,535.054,72.825,348.384,15.752,161.675-41.33,5.457,61.633.139,245.283-5.175,428.89,142.392,624.73,329.1,681.812Zm15.912-549.606c121.421,37.119,217.355,164.48,213.894,283.911-3.457,119.388-105.014,186.367-226.435,149.247S115.078,400.869,118.535,281.481C121.992,162.05,223.6,95.082,345.012,132.206" transform="translate(0 0)" fill="url(#linear-gradient-3)"/>
    </g>
  </g>
</svg>
