<svg xmlns="http://www.w3.org/2000/svg" xmlns:xlink="http://www.w3.org/1999/xlink" width="1923.518" height="1085.173" viewBox="0 0 1923.518 1085.173">
  <defs>
    <radialGradient id="radial-gradient" cx="0.235" cy="-0.004" r="1.489" gradientTransform="translate(0.167) scale(0.667 1)" gradientUnits="objectBoundingBox">
      <stop offset="0" stop-color="#3e3498"/>
      <stop offset="0.997" stop-color="#232f7d"/>
      <stop offset="1" stop-color="#232f7d"/>
    </radialGradient>
    <clipPath id="clip-path">
      <rect x="109" y="403" width="1923.115" height="1084.578" fill="none"/>
    </clipPath>
  </defs>
  <g id="Group_3154" data-name="Group 3154" transform="translate(854 53)">
    <rect id="Rectangle_1" data-name="Rectangle 1" width="1921" height="1076" transform="translate(-854 -53)" fill="url(#radial-gradient)"/>
    <g id="Scroll_Group_1" data-name="Scroll Group 1" transform="translate(-962.597 -455.405)" clip-path="url(#clip-path)" style="isolation: isolate">
      <g id="Group_1" data-name="Group 1">
        <g id="Group_3137" data-name="Group 3137" transform="translate(471.152 88.249)">
          <g id="Group_3153" data-name="Group 3153" transform="translate(0 0)">
            <path id="Path_4759" data-name="Path 4759" d="M340,835.469c-18.407,8.441-286.143,464.31-207.617,734.537s-192.744,512.945-359.314,499.857-303.775-780.317,7.139-1067.849S340,835.469,340,835.469Z" transform="translate(1436.94 -539.807)" fill="#fff" opacity="0.15" style="mix-blend-mode: overlay;isolation: isolate"/>
            <path id="Path_4760" data-name="Path 4760" d="M1218.319,1247.886c-16.4-7.139-74.977,14.787-429.512-74.239s-723.979-25.4-1033.322,33.192-504.465-154.67-504.465-154.67S-856.364,1596.775-648,1709.958s1560.431-238.66,1695.98-328.9S1218.319,1247.886,1218.319,1247.886Z" transform="translate(483.66 -1065.254)" fill="#fff" opacity="0.17" style="mix-blend-mode: overlay;isolation: isolate"/>
            <path id="Path_4761" data-name="Path 4761" d="M181.932,824.717c-15.466,69.01-155.02,261.829-83.633,463.422s154.074,620.4,13.977,727.478-614.564-243.757-392.8-727.478S181.932,824.717,181.932,824.717Z" transform="translate(1609.034 -555.757)" fill="#fff" opacity="0.15" style="mix-blend-mode: overlay;isolation: isolate"/>
            <path id="Path_4762" data-name="Path 4762" d="M1156.352,1437.742c-17.618-8.46-325.4-17.251-499.111-158.835S-515.881,996.929-653.893,1187.3-789.528,1742.367-358.83,1789.64,1156.352,1437.742,1156.352,1437.742Z" transform="translate(590.836 -1278.907)" fill="#fff" opacity="0.17" style="mix-blend-mode: overlay;isolation: isolate"/>
          </g>
        </g>
        <path id="Path_4763" data-name="Path 4763" d="M1218.074,1238.893s-127.043,77.755-144.729,252.652,126.115,475.585-207.021,574.634S216.7,2113.5-133.091,2050.742s-820.947-523.5-661.515-920.888S-311.557,1010.06-59.323,991.838s328.207-150.419,554.435-164.89,359.432,62.656,550.927,28.109S1218.074,1238.893,1218.074,1238.893Z" transform="translate(826.56 -556.036)" fill="#fff"/>
        <path id="Path_4764" data-name="Path 4764" d="M-202.961,1008.817c-27.245,40.6-101.326,123.01-77.119,183.974s111.6,74.37,87.338-12.125S-160.79,945.968-202.961,1008.817Z" transform="translate(2218.349 -278.234)" fill="#fff"/>
        <path id="Path_4765" data-name="Path 4765" d="M-235.522,1270.117c-33.687-2.552-110.089,2.47-132.851-36.721s33.02-78.03,69.627-27.9S-183.377,1274.068-235.522,1270.117Z" transform="translate(1990.198 -977.945)" fill="#fff"/>
        <path id="Path_4766" data-name="Path 4766" d="M-506.874,1249.078a146,146,0,0,1-20.013,3.823c-27.641,3.316-101.223,9.191-104.7-21.6-4.283-37.95,34.89-86.917,75.9-82.634s147.945,17.265,144.451,48.357C-414.068,1222.211-481.4,1242.338-506.874,1249.078Z" transform="translate(1326.687 -843.99)" fill="#fff"/>
        <rect id="Rectangle_2513" data-name="Rectangle 2513" width="1913.163" height="1275.443" transform="translate(471.152 88.249)" fill="none"/>
        <g id="Group_3143" data-name="Group 3143" transform="translate(2135.463 924.325)">
          <g id="Group_3138" data-name="Group 3138" transform="translate(0 242.887)">
            <path id="Path_4767" data-name="Path 4767" d="M-215.841,939.459a6.218,6.218,0,0,0-6.218-6.218,6.219,6.219,0,0,0-6.221,6.218,6.22,6.22,0,0,0,6.221,6.221A6.219,6.219,0,0,0-215.841,939.459Z" transform="translate(228.28 -933.241)" fill="#fff"/>
            <path id="Path_4768" data-name="Path 4768" d="M-196,939.459a6.218,6.218,0,0,0-6.218-6.218,6.222,6.222,0,0,0-6.221,6.218,6.222,6.222,0,0,0,6.221,6.221A6.219,6.219,0,0,0-196,939.459Z" transform="translate(279.245 -933.241)" fill="#fff"/>
            <path id="Path_4769" data-name="Path 4769" d="M-176.168,939.459a6.219,6.219,0,0,0-6.221-6.218,6.218,6.218,0,0,0-6.218,6.218,6.219,6.219,0,0,0,6.218,6.221A6.22,6.22,0,0,0-176.168,939.459Z" transform="translate(330.213 -933.241)" fill="#fff"/>
            <path id="Path_4770" data-name="Path 4770" d="M-156.332,939.459a6.218,6.218,0,0,0-6.218-6.218,6.219,6.219,0,0,0-6.221,6.218,6.22,6.22,0,0,0,6.221,6.221A6.219,6.219,0,0,0-156.332,939.459Z" transform="translate(381.179 -933.241)" fill="#fff"/>
            <path id="Path_4771" data-name="Path 4771" d="M-136.495,939.459a6.221,6.221,0,0,0-6.221-6.218,6.218,6.218,0,0,0-6.218,6.218,6.219,6.219,0,0,0,6.218,6.221A6.222,6.222,0,0,0-136.495,939.459Z" transform="translate(432.146 -933.241)" fill="#fff"/>
          </g>
          <g id="Group_3139" data-name="Group 3139" transform="translate(0 182.165)">
            <ellipse id="Ellipse_35" data-name="Ellipse 35" cx="6.22" cy="6.22" rx="6.22" ry="6.22" transform="translate(0 0)" fill="#fff"/>
            <path id="Path_4772" data-name="Path 4772" d="M-196,956.471a6.218,6.218,0,0,0-6.218-6.218,6.221,6.221,0,0,0-6.221,6.218,6.222,6.222,0,0,0,6.221,6.221A6.219,6.219,0,0,0-196,956.471Z" transform="translate(279.245 -950.252)" fill="#fff"/>
            <path id="Path_4773" data-name="Path 4773" d="M-176.168,956.471a6.219,6.219,0,0,0-6.221-6.218,6.218,6.218,0,0,0-6.218,6.218,6.219,6.219,0,0,0,6.218,6.221A6.22,6.22,0,0,0-176.168,956.471Z" transform="translate(330.213 -950.252)" fill="#fff"/>
            <path id="Path_4774" data-name="Path 4774" d="M-156.332,956.471a6.218,6.218,0,0,0-6.218-6.218,6.219,6.219,0,0,0-6.221,6.218,6.22,6.22,0,0,0,6.221,6.221A6.219,6.219,0,0,0-156.332,956.471Z" transform="translate(381.178 -950.252)" fill="#fff"/>
            <path id="Path_4775" data-name="Path 4775" d="M-136.495,956.471a6.221,6.221,0,0,0-6.221-6.218,6.218,6.218,0,0,0-6.218,6.218,6.219,6.219,0,0,0,6.218,6.221A6.222,6.222,0,0,0-136.495,956.471Z" transform="translate(432.146 -950.252)" fill="#fff"/>
          </g>
          <g id="Group_3140" data-name="Group 3140" transform="translate(0 121.443)">
            <ellipse id="Ellipse_36" data-name="Ellipse 36" cx="6.22" cy="6.22" rx="6.22" ry="6.22" transform="translate(0 0)" fill="#fff"/>
            <path id="Path_4776" data-name="Path 4776" d="M-196,973.483a6.218,6.218,0,0,0-6.218-6.218,6.221,6.221,0,0,0-6.221,6.218,6.222,6.222,0,0,0,6.221,6.221A6.219,6.219,0,0,0-196,973.483Z" transform="translate(279.245 -967.264)" fill="#fff"/>
            <path id="Path_4777" data-name="Path 4777" d="M-176.168,973.483a6.219,6.219,0,0,0-6.221-6.218,6.218,6.218,0,0,0-6.218,6.218,6.219,6.219,0,0,0,6.218,6.221A6.22,6.22,0,0,0-176.168,973.483Z" transform="translate(330.213 -967.264)" fill="#fff"/>
            <path id="Path_4778" data-name="Path 4778" d="M-156.332,973.483a6.218,6.218,0,0,0-6.218-6.218,6.219,6.219,0,0,0-6.221,6.218,6.22,6.22,0,0,0,6.221,6.221A6.219,6.219,0,0,0-156.332,973.483Z" transform="translate(381.178 -967.264)" fill="#fff"/>
            <path id="Path_4779" data-name="Path 4779" d="M-136.495,973.483a6.221,6.221,0,0,0-6.221-6.218,6.218,6.218,0,0,0-6.218,6.218,6.219,6.219,0,0,0,6.218,6.221A6.222,6.222,0,0,0-136.495,973.483Z" transform="translate(432.146 -967.264)" fill="#fff"/>
          </g>
          <g id="Group_3141" data-name="Group 3141" transform="translate(0 60.722)">
            <ellipse id="Ellipse_37" data-name="Ellipse 37" cx="6.22" cy="6.22" rx="6.22" ry="6.22" transform="translate(0 0)" fill="#fff"/>
            <path id="Path_4780" data-name="Path 4780" d="M-196,990.495a6.218,6.218,0,0,0-6.218-6.218,6.221,6.221,0,0,0-6.221,6.218,6.222,6.222,0,0,0,6.221,6.221A6.219,6.219,0,0,0-196,990.495Z" transform="translate(279.245 -984.276)" fill="#fff"/>
            <path id="Path_4781" data-name="Path 4781" d="M-176.168,990.495a6.219,6.219,0,0,0-6.221-6.218,6.218,6.218,0,0,0-6.218,6.218,6.219,6.219,0,0,0,6.218,6.221A6.22,6.22,0,0,0-176.168,990.495Z" transform="translate(330.213 -984.276)" fill="#fff"/>
            <path id="Path_4782" data-name="Path 4782" d="M-156.332,990.495a6.218,6.218,0,0,0-6.218-6.218,6.219,6.219,0,0,0-6.221,6.218,6.22,6.22,0,0,0,6.221,6.221A6.219,6.219,0,0,0-156.332,990.495Z" transform="translate(381.178 -984.276)" fill="#fff"/>
            <path id="Path_4783" data-name="Path 4783" d="M-136.495,990.495a6.221,6.221,0,0,0-6.221-6.218,6.218,6.218,0,0,0-6.218,6.218,6.219,6.219,0,0,0,6.218,6.221A6.222,6.222,0,0,0-136.495,990.495Z" transform="translate(432.146 -984.276)" fill="#fff"/>
          </g>
          <g id="Group_3142" data-name="Group 3142" transform="translate(0 0)">
            <ellipse id="Ellipse_38" data-name="Ellipse 38" cx="6.22" cy="6.22" rx="6.22" ry="6.22" transform="translate(0 0)" fill="#fff"/>
            <path id="Path_4784" data-name="Path 4784" d="M-196,1007.506a6.218,6.218,0,0,0-6.218-6.218,6.221,6.221,0,0,0-6.221,6.218,6.222,6.222,0,0,0,6.221,6.221A6.219,6.219,0,0,0-196,1007.506Z" transform="translate(279.245 -1001.288)" fill="#fff"/>
            <path id="Path_4785" data-name="Path 4785" d="M-176.168,1007.506a6.219,6.219,0,0,0-6.221-6.218,6.218,6.218,0,0,0-6.218,6.218,6.219,6.219,0,0,0,6.218,6.221A6.22,6.22,0,0,0-176.168,1007.506Z" transform="translate(330.213 -1001.288)" fill="#fff"/>
            <path id="Path_4786" data-name="Path 4786" d="M-156.332,1007.506a6.218,6.218,0,0,0-6.218-6.218,6.219,6.219,0,0,0-6.221,6.218,6.22,6.22,0,0,0,6.221,6.221A6.219,6.219,0,0,0-156.332,1007.506Z" transform="translate(381.178 -1001.288)" fill="#fff"/>
            <path id="Path_4787" data-name="Path 4787" d="M-136.495,1007.506a6.221,6.221,0,0,0-6.221-6.218,6.218,6.218,0,0,0-6.218,6.218,6.219,6.219,0,0,0,6.218,6.221A6.222,6.222,0,0,0-136.495,1007.506Z" transform="translate(432.146 -1001.288)" fill="#fff"/>
          </g>
        </g>
        <g id="Group_3149" data-name="Group 3149" transform="translate(810.758 0)">
          <g id="Group_3144" data-name="Group 3144" transform="translate(0 242.887)">
            <path id="Path_4788" data-name="Path 4788" d="M-586.976,1198.422a6.221,6.221,0,0,0-6.221-6.218,6.218,6.218,0,0,0-6.218,6.218,6.219,6.219,0,0,0,6.218,6.221A6.222,6.222,0,0,0-586.976,1198.422Z" transform="translate(599.415 -1192.204)" fill="#fff"/>
            <path id="Path_4789" data-name="Path 4789" d="M-567.14,1198.422a6.219,6.219,0,0,0-6.221-6.218,6.218,6.218,0,0,0-6.218,6.218,6.219,6.219,0,0,0,6.218,6.221A6.22,6.22,0,0,0-567.14,1198.422Z" transform="translate(650.38 -1192.204)" fill="#fff"/>
            <path id="Path_4790" data-name="Path 4790" d="M-547.3,1198.422a6.218,6.218,0,0,0-6.218-6.218,6.219,6.219,0,0,0-6.221,6.218,6.219,6.219,0,0,0,6.221,6.221A6.219,6.219,0,0,0-547.3,1198.422Z" transform="translate(701.346 -1192.204)" fill="#fff"/>
            <path id="Path_4791" data-name="Path 4791" d="M-527.467,1198.422a6.219,6.219,0,0,0-6.221-6.218,6.218,6.218,0,0,0-6.218,6.218,6.219,6.219,0,0,0,6.218,6.221A6.219,6.219,0,0,0-527.467,1198.422Z" transform="translate(752.313 -1192.204)" fill="#fff"/>
            <path id="Path_4792" data-name="Path 4792" d="M-507.631,1198.422a6.218,6.218,0,0,0-6.218-6.218,6.219,6.219,0,0,0-6.221,6.218,6.219,6.219,0,0,0,6.221,6.221A6.219,6.219,0,0,0-507.631,1198.422Z" transform="translate(803.279 -1192.204)" fill="#fff"/>
          </g>
          <g id="Group_3145" data-name="Group 3145" transform="translate(0 182.165)">
            <path id="Path_4793" data-name="Path 4793" d="M-586.976,1215.433a6.221,6.221,0,0,0-6.221-6.218,6.218,6.218,0,0,0-6.218,6.218,6.219,6.219,0,0,0,6.218,6.222A6.222,6.222,0,0,0-586.976,1215.433Z" transform="translate(599.415 -1209.216)" fill="#fff"/>
            <path id="Path_4794" data-name="Path 4794" d="M-567.14,1215.433a6.219,6.219,0,0,0-6.221-6.218,6.218,6.218,0,0,0-6.218,6.218,6.219,6.219,0,0,0,6.218,6.222A6.22,6.22,0,0,0-567.14,1215.433Z" transform="translate(650.38 -1209.216)" fill="#fff"/>
            <path id="Path_4795" data-name="Path 4795" d="M-547.3,1215.433a6.218,6.218,0,0,0-6.218-6.218,6.219,6.219,0,0,0-6.221,6.218,6.22,6.22,0,0,0,6.221,6.222A6.219,6.219,0,0,0-547.3,1215.433Z" transform="translate(701.346 -1209.216)" fill="#fff"/>
            <path id="Path_4796" data-name="Path 4796" d="M-527.467,1215.433a6.219,6.219,0,0,0-6.221-6.218,6.218,6.218,0,0,0-6.218,6.218,6.219,6.219,0,0,0,6.218,6.222A6.22,6.22,0,0,0-527.467,1215.433Z" transform="translate(752.313 -1209.216)" fill="#fff"/>
            <path id="Path_4797" data-name="Path 4797" d="M-507.631,1215.433a6.218,6.218,0,0,0-6.218-6.218,6.219,6.219,0,0,0-6.221,6.218,6.22,6.22,0,0,0,6.221,6.222A6.219,6.219,0,0,0-507.631,1215.433Z" transform="translate(803.279 -1209.216)" fill="#fff"/>
          </g>
          <g id="Group_3146" data-name="Group 3146" transform="translate(0 121.443)">
            <path id="Path_4798" data-name="Path 4798" d="M-586.976,1232.446a6.221,6.221,0,0,0-6.221-6.218,6.218,6.218,0,0,0-6.218,6.218,6.219,6.219,0,0,0,6.218,6.221A6.222,6.222,0,0,0-586.976,1232.446Z" transform="translate(599.415 -1226.228)" fill="#fff"/>
            <path id="Path_4799" data-name="Path 4799" d="M-567.14,1232.446a6.219,6.219,0,0,0-6.221-6.218,6.218,6.218,0,0,0-6.218,6.218,6.219,6.219,0,0,0,6.218,6.221A6.22,6.22,0,0,0-567.14,1232.446Z" transform="translate(650.38 -1226.228)" fill="#fff"/>
            <path id="Path_4800" data-name="Path 4800" d="M-547.3,1232.446a6.218,6.218,0,0,0-6.218-6.218,6.219,6.219,0,0,0-6.221,6.218,6.22,6.22,0,0,0,6.221,6.221A6.219,6.219,0,0,0-547.3,1232.446Z" transform="translate(701.346 -1226.228)" fill="#fff"/>
            <path id="Path_4801" data-name="Path 4801" d="M-527.467,1232.446a6.219,6.219,0,0,0-6.221-6.218,6.218,6.218,0,0,0-6.218,6.218,6.219,6.219,0,0,0,6.218,6.221A6.22,6.22,0,0,0-527.467,1232.446Z" transform="translate(752.313 -1226.228)" fill="#fff"/>
            <path id="Path_4802" data-name="Path 4802" d="M-507.631,1232.446a6.218,6.218,0,0,0-6.218-6.218,6.219,6.219,0,0,0-6.221,6.218,6.22,6.22,0,0,0,6.221,6.221A6.219,6.219,0,0,0-507.631,1232.446Z" transform="translate(803.279 -1226.228)" fill="#fff"/>
          </g>
          <g id="Group_3147" data-name="Group 3147" transform="translate(0 60.722)">
            <path id="Path_4803" data-name="Path 4803" d="M-586.976,1249.457a6.221,6.221,0,0,0-6.221-6.218,6.218,6.218,0,0,0-6.218,6.218,6.219,6.219,0,0,0,6.218,6.222A6.222,6.222,0,0,0-586.976,1249.457Z" transform="translate(599.415 -1243.24)" fill="#fff"/>
            <path id="Path_4804" data-name="Path 4804" d="M-567.14,1249.457a6.219,6.219,0,0,0-6.221-6.218,6.218,6.218,0,0,0-6.218,6.218,6.219,6.219,0,0,0,6.218,6.222A6.22,6.22,0,0,0-567.14,1249.457Z" transform="translate(650.38 -1243.24)" fill="#fff"/>
            <path id="Path_4805" data-name="Path 4805" d="M-547.3,1249.457a6.218,6.218,0,0,0-6.218-6.218,6.219,6.219,0,0,0-6.221,6.218,6.22,6.22,0,0,0,6.221,6.222A6.219,6.219,0,0,0-547.3,1249.457Z" transform="translate(701.346 -1243.24)" fill="#fff"/>
            <path id="Path_4806" data-name="Path 4806" d="M-527.467,1249.457a6.219,6.219,0,0,0-6.221-6.218,6.218,6.218,0,0,0-6.218,6.218,6.219,6.219,0,0,0,6.218,6.222A6.22,6.22,0,0,0-527.467,1249.457Z" transform="translate(752.313 -1243.24)" fill="#fff"/>
            <path id="Path_4807" data-name="Path 4807" d="M-507.631,1249.457a6.218,6.218,0,0,0-6.218-6.218,6.219,6.219,0,0,0-6.221,6.218,6.22,6.22,0,0,0,6.221,6.222A6.219,6.219,0,0,0-507.631,1249.457Z" transform="translate(803.279 -1243.24)" fill="#fff"/>
          </g>
          <g id="Group_3148" data-name="Group 3148" transform="translate(0 0)">
            <path id="Path_4808" data-name="Path 4808" d="M-586.976,1266.47a6.221,6.221,0,0,0-6.221-6.218,6.218,6.218,0,0,0-6.218,6.218,6.219,6.219,0,0,0,6.218,6.222A6.222,6.222,0,0,0-586.976,1266.47Z" transform="translate(599.415 -1260.252)" fill="#fff"/>
            <path id="Path_4809" data-name="Path 4809" d="M-567.14,1266.47a6.219,6.219,0,0,0-6.221-6.218,6.218,6.218,0,0,0-6.218,6.218,6.219,6.219,0,0,0,6.218,6.222A6.22,6.22,0,0,0-567.14,1266.47Z" transform="translate(650.38 -1260.252)" fill="#fff"/>
            <path id="Path_4810" data-name="Path 4810" d="M-547.3,1266.47a6.218,6.218,0,0,0-6.218-6.218,6.219,6.219,0,0,0-6.221,6.218,6.22,6.22,0,0,0,6.221,6.222A6.219,6.219,0,0,0-547.3,1266.47Z" transform="translate(701.346 -1260.252)" fill="#fff"/>
            <path id="Path_4811" data-name="Path 4811" d="M-527.467,1266.47a6.219,6.219,0,0,0-6.221-6.218,6.218,6.218,0,0,0-6.218,6.218,6.219,6.219,0,0,0,6.218,6.222A6.22,6.22,0,0,0-527.467,1266.47Z" transform="translate(752.313 -1260.252)" fill="#fff"/>
            <path id="Path_4812" data-name="Path 4812" d="M-507.631,1266.47a6.218,6.218,0,0,0-6.218-6.218,6.219,6.219,0,0,0-6.221,6.218,6.22,6.22,0,0,0,6.221,6.222A6.219,6.219,0,0,0-507.631,1266.47Z" transform="translate(803.279 -1260.252)" fill="#fff"/>
          </g>
        </g>
        <rect id="Rectangle_2514" data-name="Rectangle 2514" width="1913.163" height="1275.443" transform="translate(471.152 88.249)" fill="none"/>
        <g id="Group_3150" data-name="Group 3150" transform="translate(585.443 279.582)" opacity="0.43">
          <path id="Path_4813" data-name="Path 4813" d="M-627.885,1176.769h0a5.073,5.073,0,0,0-7.174,0l-26,26a5.069,5.069,0,0,0,0,7.171h0a5.074,5.074,0,0,0,7.174,0l26-26A5.069,5.069,0,0,0-627.885,1176.769Z" transform="translate(662.54 -1175.283)" fill="#fff"/>
          <path id="Path_4814" data-name="Path 4814" d="M-661.055,1176.769h0a5.069,5.069,0,0,0,0,7.17l26,26a5.074,5.074,0,0,0,7.174,0h0a5.069,5.069,0,0,0,0-7.171l-26-26A5.073,5.073,0,0,0-661.055,1176.769Z" transform="translate(662.54 -1175.283)" fill="#fff"/>
        </g>
        <g id="Group_3151" data-name="Group 3151" transform="translate(2256.264 642.683)">
          <path id="Path_4815" data-name="Path 4815" d="M-174.755,1078.773h0a2.88,2.88,0,0,0-4.073,0l-14.763,14.766a2.874,2.874,0,0,0,0,4.073h0a2.88,2.88,0,0,0,4.073,0l14.763-14.763A2.884,2.884,0,0,0-174.755,1078.773Z" transform="translate(194.436 -1077.93)" fill="#fff"/>
          <path id="Path_4816" data-name="Path 4816" d="M-193.59,1078.773h0a2.878,2.878,0,0,0,0,4.076l14.763,14.763a2.88,2.88,0,0,0,4.073,0h0a2.88,2.88,0,0,0,0-4.073l-14.763-14.766A2.88,2.88,0,0,0-193.59,1078.773Z" transform="translate(194.436 -1077.93)" fill="#fff"/>
        </g>
        <g id="Group_3152" data-name="Group 3152" transform="translate(1797.011 182.589)">
          <path id="Path_4817" data-name="Path 4817" d="M-303.42,1207.676h0a2.884,2.884,0,0,0-4.076,0l-14.763,14.763a2.88,2.88,0,0,0,0,4.073h0a2.885,2.885,0,0,0,4.076,0l14.763-14.763A2.88,2.88,0,0,0-303.42,1207.676Z" transform="translate(323.102 -1206.833)" fill="#fff"/>
          <path id="Path_4818" data-name="Path 4818" d="M-322.259,1207.676h0a2.88,2.88,0,0,0,0,4.073l14.763,14.763a2.885,2.885,0,0,0,4.076,0h0a2.88,2.88,0,0,0,0-4.073l-14.763-14.763A2.884,2.884,0,0,0-322.259,1207.676Z" transform="translate(323.102 -1206.833)" fill="#fff"/>
        </g>
      </g>
    </g>
  </g>
</svg>
