<?xml version="1.0" encoding="utf-8"?>
<!-- Generator: Adobe Illustrator 25.2.0, SVG Export Plug-In . SVG Version: 6.00 Build 0)  -->
<svg version="1.1" id="Layer_18" xmlns="http://www.w3.org/2000/svg" xmlns:xlink="http://www.w3.org/1999/xlink" x="0px" y="0px"
	 viewBox="0 0 2500 1625" style="enable-background:new 0 0 2500 1625;" xml:space="preserve">
<style type="text/css">
	.st0{clip-path:url(#SVGID_2_);}
	.st1{fill:#F5F5F5;}
	.st2{opacity:0.68;}
	.st3{opacity:0;fill:#FFFFFF;}
	.st4{opacity:3.225800e-02;fill:#FDFDFD;}
	.st5{opacity:6.451600e-02;fill:#FCFCFC;}
	.st6{opacity:9.677400e-02;fill:#FAFAFA;}
	.st7{opacity:0.129;fill:#F8F8F8;}
	.st8{opacity:0.1613;fill:#F7F7F7;}
	.st9{opacity:0.1935;fill:#F5F5F5;}
	.st10{opacity:0.2258;fill:#F3F3F3;}
	.st11{opacity:0.2581;fill:#F2F2F2;}
	.st12{opacity:0.2903;fill:#F0F0F0;}
	.st13{opacity:0.3226;fill:#EFEFEF;}
	.st14{opacity:0.3548;fill:#EDEDED;}
	.st15{opacity:0.3871;fill:#EBEBEB;}
	.st16{opacity:0.4194;fill:#EAEAEA;}
	.st17{opacity:0.4516;fill:#E8E8E8;}
	.st18{opacity:0.4839;fill:#E6E6E6;}
	.st19{opacity:0.5161;fill:#E5E5E5;}
	.st20{opacity:0.5484;fill:#E3E3E3;}
	.st21{opacity:0.5806;fill:#E1E1E1;}
	.st22{opacity:0.6129;fill:#E0E0E0;}
	.st23{opacity:0.6452;fill:#DEDEDE;}
	.st24{opacity:0.6774;fill:#DCDCDC;}
	.st25{opacity:0.7097;fill:#DBDBDB;}
	.st26{opacity:0.7419;fill:#D9D9D9;}
	.st27{opacity:0.7742;fill:#D8D8D8;}
	.st28{opacity:0.8065;fill:#D6D6D6;}
	.st29{opacity:0.8387;fill:#D4D4D4;}
	.st30{opacity:0.871;fill:#D3D3D3;}
	.st31{opacity:0.9032;fill:#D1D1D1;}
	.st32{opacity:0.9355;fill:#CFCFCF;}
	.st33{opacity:0.9677;fill:#CECECE;}
	.st34{fill:#CCCCCC;}
	.st35{fill:url(#SVGID_3_);}
	.st36{fill:#FFFFFF;}
	.st37{fill:url(#SVGID_4_);}
	.st38{fill:url(#SVGID_5_);}
	.st39{fill:url(#SVGID_6_);}
</style>
<g>
	<defs>
		<rect id="SVGID_1_" width="2500" height="1625"/>
	</defs>
	<clipPath id="SVGID_2_">
		<use xlink:href="#SVGID_1_"  style="overflow:visible;"/>
	</clipPath>
	<g class="st0">
		<rect x="-129.8" y="-84.4" class="st1" width="2759.6" height="1793.8"/>
		<g>
			<g class="st2">
				<path class="st3" d="M332,1592.8c-32.3-515.9,425.2-956.6,924.4-972.4c537.8-17.1,994.5,430.6,985.6,970.1
					c-8.1,491.7-403.8,906.1-893.9,937.3c-249.5,15.9-500.6-68.4-689.1-232.9C511.8,2166.4,256.5,1812.3,332,1592.8z M2481.9,2059.6
					c251.3-619.9-28.4-1349.8-631.2-1645C1191.3,91.8,368.2,409,92.1,1089.4c-250.9,618.5,27.8,1351.8,631.2,1645
					C1383.7,3055.4,2205.1,2741.8,2481.9,2059.6z"/>
				<path class="st4" d="M331.8,1565.3c-32.3-515.4,424.7-955.5,923.3-971.4c537.2-17.1,993.4,430.1,984.5,969
					c-8.1,491.1-403.3,905.1-892.9,936.2c-249.3,15.8-500-68.3-688.3-232.6C511.3,2138.2,256.3,1784.5,331.8,1565.3z M2479.2,2031.6
					c251-619.2-28.3-1348.3-630.5-1643.2C1190.1,65.9,367.9,382.7,92.1,1062.5c-250.7,617.9,27.8,1350.3,630.5,1643.2
					C1382.3,3026.3,2202.8,2713,2479.2,2031.6z"/>
				<path class="st5" d="M331.5,1537.7c-32.2-514.8,424.2-954.5,922.3-970.3c536.6-17.1,992.3,429.6,983.4,968
					c-8.1,490.6-402.9,904.1-891.9,935.2c-249,15.8-499.5-68.2-687.6-232.4C510.9,2110,256.1,1756.7,331.5,1537.7z M2476.6,2003.5
					c250.7-618.5-28.3-1346.8-629.8-1641.4C1188.9,40,367.6,356.5,92.1,1035.5c-250.4,617.2,27.8,1348.8,629.8,1641.4
					C1380.8,2997.1,2200.5,2684.2,2476.6,2003.5z"/>
				<path class="st6" d="M331.3,1510.2C299.1,996,755,556.8,1252.6,541c536-17,991.2,429.1,982.3,966.9
					c-8.1,490-402.4,903.1-890.9,934.2c-248.7,15.8-498.9-68.2-686.8-232.1C510.4,2081.9,256,1728.9,331.3,1510.2z M2474,1975.5
					c250.5-617.8-28.3-1345.4-629.1-1639.6C1187.6,14.1,367.3,330.3,92.1,1008.5C-158,1625,119.8,2355.8,721.2,2648.1
					C1379.4,2968,2198.1,2655.4,2474,1975.5z"/>
				<path class="st7" d="M331,1482.7C298.8,969,754.3,530.3,1251.3,514.5c535.5-17,990.1,428.7,981.2,965.8
					c-8.1,489.5-402,902.1-889.9,933.1c-248.4,15.8-498.4-68.1-686.1-231.8C509.9,2053.7,255.8,1701.2,331,1482.7z M2471.3,1947.4
					c250.2-617.1-28.2-1343.9-628.4-1637.7c-656.5-321.4-1476-5.6-1750.8,671.8c-249.8,615.8,27.7,1345.8,628.4,1637.7
					C1378,2938.8,2195.8,2626.6,2471.3,1947.4z"/>
				<path class="st8" d="M330.7,1455.1C298.6,942.1,753.6,503.8,1250,488.1c534.9-17,989,428.2,980.1,964.7
					c-8.1,488.9-401.5,901.1-888.9,932.1c-248.2,15.8-497.8-68-685.3-231.6C509.5,2025.5,255.6,1673.4,330.7,1455.1z M2468.7,1919.4
					C2718.6,1303,2440.5,577,1841,283.5C1185.2-37.6,366.6,277.8,92.1,954.6c-249.6,615.1,27.7,1344.3,627.7,1635.9
					C1376.6,2909.7,2193.5,2597.8,2468.7,1919.4z"/>
				<path class="st9" d="M330.5,1427.6c-32.1-512.5,422.4-950.2,918.2-966c534.3-17,987.9,427.7,979.1,963.7
					c-8.1,488.4-401.1,900.1-887.9,931.1c-247.9,15.8-497.3-67.9-684.5-231.3C509,1997.4,255.4,1645.6,330.5,1427.6z M2466,1891.3
					c249.6-615.8-28.2-1340.9-627-1634.1C1184-63.5,366.3,251.6,92.1,927.6c-249.3,614.4,27.7,1342.8,627,1634.1
					C1375.1,2880.5,2191.1,2569,2466,1891.3z"/>
				<path class="st10" d="M330.2,1400.1c-32-511.9,421.9-949.2,917.2-964.9c533.7-17,986.8,427.2,978,962.6
					c-8.1,487.9-400.7,899.1-887,930c-247.6,15.7-496.7-67.9-683.8-231.1C508.6,1969.2,255.2,1617.8,330.2,1400.1z M2463.4,1863.3
					c249.3-615.1-28.1-1339.4-626.3-1632.3C1182.8-89.4,366,225.4,92.1,900.6c-249,613.8,27.6,1341.3,626.3,1632.3
					C1373.7,2851.4,2188.8,2540.2,2463.4,1863.3z"/>
				<path class="st11" d="M329.9,1372.5c-32-511.4,421.4-948.1,916.2-963.8c533.1-16.9,985.7,426.8,976.9,961.5
					c-8.1,487.3-400.2,898.1-886,929c-247.3,15.7-496.2-67.8-683-230.8C508.1,1941.1,255.1,1590.1,329.9,1372.5z M2460.8,1835.3
					c249.1-614.4-28.1-1337.9-625.6-1630.5c-653.6-320-1469.4-5.6-1743,668.9c-248.7,613.1,27.6,1339.8,625.6,1630.5
					C1372.3,2822.2,2186.5,2511.4,2460.8,1835.3z"/>
				<path class="st12" d="M329.7,1345c-32-510.8,421-947.1,915.2-962.8c532.5-16.9,984.6,426.3,975.8,960.5
					c-8.1,486.8-399.8,897.1-885,928c-247.1,15.7-495.6-67.7-682.3-230.6C507.6,1912.9,254.9,1562.3,329.7,1345z M2458.1,1807.2
					c248.8-613.7-28.1-1336.4-624.9-1628.6C1180.4-141.1,365.4,173,92.1,846.7C-156.3,1459.1,119.7,2185,717,2475.3
					C1370.9,2793.1,2184.1,2482.6,2458.1,1807.2z"/>
				<path class="st13" d="M329.4,1317.5c-31.9-510.2,420.5-946,914.2-961.7c531.9-16.9,983.5,425.8,974.7,959.4
					c-8.1,486.2-399.3,896.1-884,926.9c-246.8,15.7-495.1-67.6-681.5-230.3C507.2,1884.7,254.7,1534.5,329.4,1317.5z M2455.5,1779.2
					c248.5-613-28-1334.9-624.2-1626.8C1179.2-167,365.1,146.7,92.1,819.7c-248.2,611.7,27.5,1336.8,624.2,1626.8
					C1369.4,2764,2181.8,2453.8,2455.5,1779.2z"/>
				<path class="st14" d="M329.2,1289.9c-31.9-509.7,420-944.9,913.1-960.6c531.3-16.9,982.4,425.3,973.6,958.3
					c-8,485.7-398.9,895.1-883,925.9c-246.5,15.7-494.5-67.5-680.7-230C506.7,1856.6,254.5,1506.7,329.2,1289.9z M2452.9,1751.1
					c248.2-612.3-28-1333.4-623.5-1625C1178-192.9,364.8,120.5,92.1,792.7c-247.9,611,27.5,1335.3,623.5,1625
					C1368,2734.8,2179.5,2425,2452.9,1751.1z"/>
				<path class="st15" d="M328.9,1262.4C297,753.3,748.4,318.5,1241,302.9c530.7-16.9,981.3,424.9,972.5,957.2
					c-8,485.1-398.4,894.1-882,924.9c-246.2,15.7-493.9-67.5-680-229.8C506.2,1828.4,254.4,1479,328.9,1262.4z M2450.2,1723.1
					c248-611.6-28-1331.9-622.8-1623.2C1176.7-218.7,364.5,94.3,92.1,765.7c-247.6,610.3,27.5,1333.8,622.8,1623.2
					C1366.6,2705.7,2177.1,2396.1,2450.2,1723.1z"/>
				<path class="st16" d="M328.6,1234.9C296.8,726.4,747.7,292,1239.7,276.4c530.1-16.8,980.2,424.4,971.4,956.2
					c-8,484.6-398,893.1-881,923.8c-245.9,15.6-493.4-67.4-679.2-229.5C505.8,1800.2,254.2,1451.2,328.6,1234.9z M2447.6,1695
					c247.7-611-27.9-1330.4-622.1-1621.4C1175.5-244.6,364.2,68.1,92.1,738.8c-247.3,609.7,27.4,1332.3,622.1,1621.4
					C1365.2,2676.5,2174.8,2367.3,2447.6,1695z"/>
				<path class="st17" d="M328.4,1207.3C296.6,699.4,747,265.6,1238.4,250c529.5-16.8,979.1,423.9,970.3,955.1
					c-8,484.1-397.5,892.1-880,922.8c-245.7,15.6-492.8-67.3-678.4-229.3C505.3,1772.1,254,1423.4,328.4,1207.3z M2444.9,1667
					c247.4-610.3-27.9-1329-621.4-1619.6C1174.3-270.5,363.9,41.8,92.1,711.8c-247.1,609,27.4,1330.9,621.4,1619.6
					C1363.7,2647.4,2172.5,2338.5,2444.9,1667z"/>
				<path class="st18" d="M328.1,1179.8c-31.8-507.4,418.1-940.7,909-956.3c528.9-16.8,978,423.4,969.3,954
					c-8,483.5-397.1,891.1-879.1,921.7c-245.4,15.6-492.3-67.2-677.7-229C504.9,1743.9,253.8,1395.6,328.1,1179.8z M2442.3,1638.9
					c247.1-609.6-27.9-1327.5-620.7-1617.7c-648.5-317.5-1458-5.6-1729.4,663.6c-246.8,608.3,27.4,1329.4,620.7,1617.7
					C1362.3,2618.2,2170.2,2309.7,2442.3,1638.9z"/>
				<path class="st19" d="M327.9,1152.3c-31.7-506.8,417.7-939.7,908-955.2c528.3-16.8,976.9,422.9,968.2,953
					c-8,483-396.6,890.1-878.1,920.7c-245.1,15.6-491.7-67.2-676.9-228.8C504.4,1715.7,253.6,1367.9,327.9,1152.3z M2439.7,1610.9
					c246.9-608.9-27.9-1326-620-1615.9C1171.9-322.2,363.3-10.6,92.1,657.8c-246.5,607.6,27.3,1327.9,620,1615.9
					C1360.9,2589.1,2167.8,2280.9,2439.7,1610.9z"/>
				<path class="st20" d="M327.6,1124.8c-31.7-506.2,417.2-938.6,907-954.2c527.7-16.8,975.8,422.5,967.1,951.9
					c-8,482.4-396.2,889.1-877.1,919.7c-244.8,15.6-491.2-67.1-676.2-228.5C503.9,1687.6,253.5,1340.1,327.6,1124.8z M2437,1582.8
					c246.6-608.2-27.8-1324.5-619.3-1614.1C1170.7-348.1,363-36.8,92.1,630.9c-246.2,606.9,27.3,1326.4,619.3,1614.1
					C1359.5,2559.9,2165.5,2252.1,2437,1582.8z"/>
				<path class="st21" d="M327.3,1097.2c-31.7-505.7,416.7-937.5,906-953.1c527.1-16.8,974.8,422,966,950.8
					c-8,481.9-395.7,888.1-876.1,918.6c-244.6,15.6-490.6-67-675.4-228.2C503.5,1659.4,253.3,1312.3,327.3,1097.2z M2434.4,1554.8
					c246.3-607.5-27.8-1323-618.6-1612.3C1169.5-374,362.7-63.1,92.1,603.9c-245.9,606.2,27.3,1324.9,618.6,1612.3
					C1358,2530.8,2163.2,2223.3,2434.4,1554.8z"/>
				<path class="st22" d="M327.1,1069.7c-31.6-505.1,416.3-936.5,905-952c526.5-16.7,973.7,421.5,964.9,949.7
					c-8,481.3-395.3,887.1-875.1,917.6c-244.3,15.5-490.1-66.9-674.6-228C503,1631.2,253.1,1284.5,327.1,1069.7z M2431.8,1526.7
					c246-606.9-27.8-1321.5-617.9-1610.5C1168.3-399.8,362.4-89.3,92.1,576.9c-245.7,605.6,27.3,1323.4,617.9,1610.5
					C1356.6,2501.6,2160.8,2194.5,2431.8,1526.7z"/>
				<path class="st23" d="M326.8,1042.2c-31.6-504.5,415.8-935.4,903.9-951c525.9-16.7,972.6,421,963.8,948.7
					c-8,480.8-394.9,886.1-874.1,916.6c-244,15.5-489.5-66.9-673.9-227.7C502.6,1603.1,252.9,1256.8,326.8,1042.2z M2429.1,1498.7
					c245.7-606.2-27.7-1320-617.2-1608.7C1167-425.7,362.1-115.5,92.1,549.9c-245.4,604.9,27.2,1321.9,617.2,1608.7
					C1355.2,2472.5,2158.5,2165.7,2429.1,1498.7z"/>
				<path class="st24" d="M326.5,1014.6C295,510.7,741.9,80.3,1229.5,64.8c525.4-16.7,971.5,420.6,962.7,947.6
					c-8,480.3-394.4,885.1-873.1,915.5c-243.7,15.5-489-66.8-673.1-227.5C502.1,1574.9,252.7,1229,326.5,1014.6z M2426.5,1470.6
					c245.5-605.5-27.7-1318.5-616.5-1606.8C1165.8-451.6,361.8-141.7,92.2,523c-245.1,604.2,27.2,1320.4,616.5,1606.8
					C1353.8,2443.3,2156.2,2136.9,2426.5,1470.6z"/>
				<path class="st25" d="M326.3,987.1C294.8,483.7,741.1,53.8,1228.2,38.3c524.8-16.7,970.4,420.1,961.6,946.5
					c-8,479.7-394,884.1-872.1,914.5c-243.5,15.5-488.4-66.7-672.4-227.2C501.6,1546.7,252.6,1201.2,326.3,987.1z M2423.8,1442.6
					c245.2-604.8-27.7-1317-615.8-1605C1164.6-477.5,361.5-168,92.2,496c-244.8,603.5,27.2,1318.9,615.8,1605
					C1352.3,2414.2,2153.8,2108.1,2423.8,1442.6z"/>
				<path class="st26" d="M326,959.6C294.5,456.7,740.4,27.3,1226.9,11.8c524.2-16.7,969.3,419.6,960.5,945.5
					c-7.9,479.2-393.5,883.1-871.2,913.5c-243.2,15.5-487.9-66.6-671.6-227C501.2,1518.6,252.4,1173.4,326,959.6z M2421.2,1414.5
					C2666.1,810.4,2393.6,99,1806.1-188.7C1163.4-503.3,361.2-194.2,92.2,469c-244.6,602.8,27.1,1317.4,615.1,1603.2
					C1350.9,2385,2151.5,2079.3,2421.2,1414.5z"/>
				<path class="st27" d="M325.8,932C294.3,429.8,739.7,0.8,1225.6-14.6c523.6-16.6,968.2,419.1,959.5,944.4
					c-7.9,478.6-393.1,882.1-870.2,912.4c-242.9,15.4-487.3-66.6-670.8-226.7C500.7,1490.4,252.2,1145.7,325.8,932z M2418.6,1386.5
					c244.6-603.4-27.6-1314-614.4-1601.4C1162.2-529.2,360.9-220.4,92.2,442c-244.3,602.1,27.1,1315.9,614.4,1601.4
					C1349.5,2355.9,2149.2,2050.5,2418.6,1386.5z"/>
				<path class="st28" d="M325.5,904.5C294.1,402.8,738.9-25.6,1224.3-41.1c523-16.6,967.1,418.7,958.4,943.3
					c-7.9,478.1-392.6,881.1-869.2,911.4c-242.6,15.4-486.8-66.5-670.1-226.4C500.3,1462.2,252,1117.9,325.5,904.5z M2415.9,1358.4
					c244.4-602.7-27.6-1312.5-613.8-1599.6c-641.2-314-1441.6-5.5-1710,656.2c-244,601.5,27.1,1314.4,613.8,1599.6
					C1348.1,2326.7,2146.8,2021.7,2415.9,1358.4z"/>
				<path class="st29" d="M325.2,877C293.9,375.9,738.2-52.1,1223-67.5c522.4-16.6,966,418.2,957.3,942.2
					c-7.9,477.5-392.2,880.1-868.2,910.4c-242.4,15.4-486.2-66.4-669.3-226.2C499.8,1434.1,251.8,1090.1,325.2,877z M2413.3,1330.4
					c244.1-602.1-27.5-1311.1-613.1-1597.8C1159.8-581,360.3-272.8,92.2,388.1c-243.7,600.8,27,1312.9,613.1,1597.7
					C1346.7,2297.6,2144.5,1992.9,2413.3,1330.4z"/>
				<path class="st30" d="M325,849.4C293.6,348.9,737.5-78.6,1221.8-94c521.8-16.6,964.9,417.7,956.2,941.2
					c-7.9,477-391.7,879.1-867.2,909.3c-242.1,15.4-485.7-66.3-668.5-225.9C499.3,1405.9,251.7,1062.3,325,849.4z M2410.7,1302.4
					C2654.4,701,2383.1-7.2,1798.3-293.6C1158.6-606.8,360-299.1,92.2,361.1c-243.5,600.1,27,1311.4,612.4,1595.9
					C1345.2,2268.4,2142.2,1964.1,2410.7,1302.4z"/>
				<path class="st31" d="M324.7,821.9c-31.3-500,412-927,895.8-942.4c521.2-16.6,963.8,417.2,955.1,940.1
					c-7.9,476.5-391.3,878.1-866.2,908.3c-241.8,15.4-485.1-66.3-667.8-225.7C498.9,1377.7,251.5,1034.6,324.7,821.9z M2408,1274.3
					c243.5-600.7-27.5-1308.1-611.7-1594.1c-639-312.9-1436.7-5.5-1704.2,653.9c-243.2,599.4,27,1309.9,611.7,1594.1
					C1343.8,2239.3,2139.8,1935.3,2408,1274.3z"/>
				<path class="st32" d="M324.4,794.4C293.2,295,736-131.5,1219.2-146.9c520.6-16.5,962.7,416.8,954,939
					c-7.9,475.9-390.8,877.1-865.2,907.2c-241.5,15.4-484.5-66.2-667-225.4C498.4,1349.6,251.3,1006.8,324.4,794.4z M2405.4,1246.3
					c243.2-600-27.4-1306.6-611-1592.3c-638.3-312.5-1435-5.5-1702.2,653.2c-242.9,598.7,26.9,1308.4,611,1592.3
					C1342.4,2210.1,2137.5,1906.5,2405.4,1246.3z"/>
				<path class="st33" d="M324.2,766.8C293,268,735.3-158,1217.9-173.4c520-16.5,961.6,416.3,952.9,937.9
					c-7.9,475.4-390.4,876.1-864.2,906.2c-241.3,15.3-484-66.1-666.3-225.2C498,1321.4,251.1,979,324.2,766.8z M2402.7,1218.2
					c243-599.3-27.4-1305.1-610.3-1590.5C1154.9-684.4,359.1-377.7,92.2,280.2c-242.6,598,26.9,1307,610.3,1590.5
					C1341,2181,2135.2,1877.7,2402.7,1218.2z"/>
				<path class="st34" d="M323.9,739.3c-31.2-498.3,410.6-923.8,892.7-939.1c519.4-16.5,960.5,415.8,951.8,936.9
					c-7.9,474.8-389.9,875.1-863.3,905.2c-241,15.3-483.4-66-665.5-224.9C497.5,1293.2,251,951.3,323.9,739.3z M2400.1,1190.2
					c242.7-598.6-27.4-1303.6-609.6-1588.7C1153.7-710.3,358.8-404,92.2,253.2c-242.3,597.4,26.9,1305.5,609.6,1588.7
					C1339.5,2151.9,2132.8,1848.9,2400.1,1190.2z"/>
			</g>
			<g>
				
					<linearGradient id="SVGID_3_" gradientUnits="userSpaceOnUse" x1="-2517.697" y1="-2524.7861" x2="97.398" y2="90.309" gradientTransform="matrix(0.7071 0.7071 -0.7071 0.7071 1241.4369 2683.0388)">
					<stop  offset="0" style="stop-color:#E9E9E9"/>
					<stop  offset="0.8397" style="stop-color:#E9E9E9"/>
					<stop  offset="1" style="stop-color:#E6E6E6"/>
				</linearGradient>
				<path class="st35" d="M2400.4,1190.4c242.7-598.6-27.4-1303.6-609.6-1588.7C1154-710,359.1-403.7,92.5,253.5
					C-149.9,850.8,119.3,1558.9,702,1842.1C1339.8,2152.1,2133.1,1849.2,2400.4,1190.4z M324.2,739.6
					C293,241.3,734.8-184.2,1216.9-199.5c519.4-16.5,960.5,415.8,951.8,936.9c-7.9,474.8-389.9,875.1-863.3,905.2
					c-241,15.3-483.4-66-665.5-224.9C497.8,1293.5,251.2,951.5,324.2,739.6z"/>
				<path class="st36" d="M1899,1411c-359.8,359.8-945.3,359.8-1305.1,0c-176-176-265.9-406-269.7-637.2c-0.2-11.3-0.2-22.6,0-34
					c4.4,230.3,94.3,459.3,269.7,634.7c359.8,359.8,945.3,359.8,1305.1,0c175.4-175.4,265.3-404.3,269.7-634.7
					c0.2,11.3,0.2,22.7,0,34C2164.9,1005,2075,1235,1899,1411z"/>
				<path class="st36" d="M2491.5,737.1c-1.9-156.2-32.5-308.4-91.1-452.8c-62.7-154.6-154.7-293.2-273.5-412
					c-118.8-118.8-257.4-210.8-412-273.5c-149.2-60.5-306.8-91.2-468.4-91.2c-161.7,0-319.3,30.7-468.5,91.2
					c-154.6,62.7-293.2,154.7-412,273.5C247.2-8.9,155.1,129.7,92.5,284.2C33.9,428.6,3.3,580.9,1.4,737.1c-0.1-5-0.1-10.1-0.1-15.1
					c0-161.7,30.7-319.3,91.2-468.5C155.1,98.9,247.2-39.7,366-158.5c118.8-118.8,257.4-210.8,412-273.5
					c149.2-60.5,306.8-91.2,468.5-91.2c161.6,0,319.2,30.7,468.4,91.2c154.6,62.7,293.2,154.7,412,273.5
					c118.8,118.8,210.8,257.4,273.5,412c60.5,149.2,91.2,306.8,91.2,468.4C2491.6,727,2491.6,732,2491.5,737.1z"/>
			</g>
		</g>
		<g>
			<g class="st2">
				<path class="st3" d="M438.4,1545.6c-28.6-457.2,376.8-847.7,819.2-861.8c476.6-15.2,881.4,381.6,873.5,859.7
					c-7.2,435.7-357.8,803-792.2,830.6c-221.1,14.1-443.6-60.6-610.7-206.4C597.6,2053.9,371.4,1740.1,438.4,1545.6z M2343.6,1959.3
					c222.7-549.3-25.1-1196.3-559.4-1457.9c-584.4-286.1-1313.9-5-1558.5,598c-222.4,548.2,24.7,1198,559.4,1457.9
					C1370.3,2841.9,2098.3,2563.9,2343.6,1959.3z"/>
				<path class="st4" d="M438.1,1521.2c-28.6-456.7,376.4-846.8,818.3-860.9c476.1-15.1,880.4,381.2,872.5,858.8
					c-7.2,435.2-357.4,802.1-791.3,829.7c-220.9,14-443.1-60.5-610-206.2C597.2,2029,371.2,1715.5,438.1,1521.2z M2341.3,1934.5
					c222.5-548.7-25.1-1194.9-558.8-1456.3c-583.7-285.8-1312.4-5-1556.8,597.4C3.6,1623.2,250.3,2272.3,784.5,2531.9
					C1369.1,2816,2096.3,2538.3,2341.3,1934.5z"/>
				<path class="st5" d="M437.9,1496.8c-28.6-456.2,376-845.9,817.4-859.9c475.6-15.1,879.4,380.7,871.5,857.8
					c-7.2,434.8-357,801.3-790.4,828.8c-220.7,14-442.7-60.5-609.4-205.9C596.8,2004,371.1,1690.9,437.9,1496.8z M2338.9,1909.6
					C2561.1,1361.5,2313.8,716,1780.8,455c-583.1-285.5-1311-5-1555.1,596.7c-221.9,547,24.6,1195.3,558.1,1454.6
					C1367.8,2790.2,2094.2,2512.8,2338.9,1909.6z"/>
				<path class="st6" d="M437.7,1472.4c-28.5-455.7,375.6-844.9,816.5-859c475.1-15.1,878.5,380.3,870.6,856.9
					c-7.2,434.3-356.7,800.4-789.6,827.9c-220.4,14-442.2-60.4-608.7-205.7C596.4,1979.1,370.9,1666.3,437.7,1472.4z M2336.6,1884.8
					c222-547.5-25-1192.3-557.5-1453c-582.4-285.2-1309.5-5-1553.4,596.1c-221.7,546.4,24.6,1194,557.5,1453
					C1366.6,2764.4,2092.1,2487.3,2336.6,1884.8z"/>
				<path class="st7" d="M437.4,1448C408.9,992.8,812.6,604,1253,590c474.5-15.1,877.5,379.9,869.6,855.9
					c-7.2,433.8-356.3,799.5-788.7,827c-220.2,14-441.7-60.3-608-205.5C596,1954.1,370.8,1641.6,437.4,1448z M2334.2,1859.9
					c221.7-546.9-25-1191-556.9-1451.4c-581.8-284.9-1308.1-5-1551.6,595.4C4.3,1549.7,250.3,2196.6,782.6,2455.3
					C1365.3,2738.5,2090.1,2461.8,2334.2,1859.9z"/>
				<path class="st8" d="M437.2,1423.6c-28.5-454.7,374.7-843.1,814.7-857c474-15.1,876.5,379.5,868.6,855
					c-7.2,433.3-355.9,798.6-787.8,826.1c-219.9,14-441.2-60.3-607.3-205.2C595.6,1929.1,370.6,1617,437.2,1423.6z M2331.9,1835.1
					c221.5-546.3-25-1189.7-556.3-1449.8C1194.5,100.7,469,380.3,225.7,980C4.5,1525.1,250.2,2171.4,782,2429.8
					C1364,2712.7,2088,2436.3,2331.9,1835.1z"/>
				<path class="st9" d="M437,1399.2C408.5,945,811.3,557.1,1250.7,543.1c473.5-15.1,875.5,379,867.7,854
					c-7.2,432.8-355.5,797.7-786.9,825.1c-219.7,14-440.7-60.2-606.7-205C595.2,1904.2,370.4,1592.4,437,1399.2z M2329.6,1810.2
					c221.2-545.7-25-1188.3-555.7-1448.2C1193.4,77.8,468.7,357,225.7,956.1c-220.9,544.5,24.5,1190,555.7,1448.2
					C1362.8,2686.9,2085.9,2410.7,2329.6,1810.2z"/>
				<path class="st10" d="M436.7,1374.8c-28.4-453.7,373.9-841.2,812.9-855.1c473-15,874.6,378.6,866.7,853.1
					c-7.2,432.4-355.1,796.8-786.1,824.2c-219.4,14-440.2-60.1-606-204.8C594.8,1879.2,370.3,1567.8,436.7,1374.8z M2327.2,1785.4
					c221-545.1-24.9-1187-555.1-1446.6c-579.9-283.9-1303.7-5-1546.5,593.4C5,1476.1,250.2,2120.9,780.8,2378.8
					C1361.5,2661,2083.9,2385.2,2327.2,1785.4z"/>
				<path class="st11" d="M436.5,1350.4c-28.4-453.2,373.5-840.3,812-854.2c472.4-15,873.6,378.2,865.7,852.1
					c-7.2,431.9-354.7,795.9-785.2,823.3c-219.2,13.9-439.7-60.1-605.3-204.6C594.4,1854.3,370.1,1543.2,436.5,1350.4z
					 M2324.9,1760.5c220.7-544.5-24.9-1185.7-554.4-1445c-579.2-283.6-1302.2-5-1544.7,592.8c-220.4,543.3,24.5,1187.4,554.4,1445
					C1360.2,2635.2,2081.8,2359.7,2324.9,1760.5z"/>
				<path class="st12" d="M436.3,1326c-28.3-452.7,373.1-839.3,811.1-853.2c471.9-15,872.6,377.8,864.8,851.2
					c-7.1,431.4-354.3,795-784.3,822.4c-218.9,13.9-439.2-60-604.6-204.3C594,1829.3,370,1518.6,436.3,1326z M2322.6,1735.6
					c220.5-543.9-24.9-1184.4-553.8-1443.4c-578.6-283.3-1300.8-5-1543,592.1C5.5,1427.1,250.1,2070.4,779.5,2327.7
					C1359,2609.4,2079.7,2334.2,2322.6,1735.6z"/>
				<path class="st13" d="M436,1301.6c-28.3-452.2,372.7-838.4,810.2-852.3c471.4-15,871.6,377.4,863.8,850.2
					c-7.1,430.9-353.9,794.2-783.4,821.5c-218.7,13.9-438.7-59.9-604-204.1C593.6,1804.3,369.8,1494,436,1301.6z M2320.2,1710.8
					c220.2-543.3-24.9-1183-553.2-1441.8c-577.9-283-1299.3-5-1541.3,591.4C5.8,1402.6,250.1,2045.2,778.9,2302.2
					C1357.7,2583.5,2077.7,2308.6,2320.2,1710.8z"/>
				<path class="st14" d="M435.8,1277.2C407.5,825.5,808,439.8,1245,425.9c470.9-15,870.7,376.9,862.8,849.3
					c-7.1,430.4-353.5,793.3-782.6,820.6c-218.5,13.9-438.2-59.9-603.3-203.9C593.1,1779.4,369.7,1469.3,435.8,1277.2z
					 M2317.9,1685.9c220-542.7-24.8-1181.7-552.6-1440.1C1188-36.9,467.4,240.8,225.7,836.6C6,1378.1,250.1,2020,778.3,2276.7
					C1356.5,2557.7,2075.6,2283.1,2317.9,1685.9z"/>
				<path class="st15" d="M435.6,1252.8c-28.2-451.2,371.8-836.5,808.3-850.4c470.3-14.9,869.7,376.5,861.9,848.3
					c-7.1,430-353.1,792.4-781.7,819.6c-218.2,13.9-437.8-59.8-602.6-203.6C592.7,1754.4,369.5,1444.7,435.6,1252.8z M2315.5,1661.1
					c219.8-542.1-24.8-1180.4-552-1438.5C1187-59.8,467.1,217.6,225.7,812.7c-219.4,540.9,24.3,1182.1,552,1438.5
					C1355.2,2531.9,2073.5,2257.6,2315.5,1661.1z"/>
				<path class="st16" d="M435.3,1228.4C407.1,777.8,806.7,392.9,1242.8,379c469.8-14.9,868.7,376.1,860.9,847.4
					c-7.1,429.5-352.7,791.5-780.8,818.7c-218,13.9-437.3-59.7-601.9-203.4C592.3,1729.4,369.3,1420.1,435.3,1228.4z M2313.2,1636.2
					c219.5-541.5-24.8-1179.1-551.3-1436.9c-576-282-1295-4.9-1536.1,589.5C6.5,1329,250,1969.5,777.1,2225.7
					C1353.9,2506,2071.5,2232.1,2313.2,1636.2z"/>
				<path class="st17" d="M435.1,1204c-28.2-450.2,371-834.6,806.5-848.5c469.3-14.9,867.8,375.7,860,846.4
					c-7.1,429-352.3,790.6-779.9,817.8c-217.7,13.8-436.8-59.7-601.3-203.2C591.9,1704.5,369.2,1395.5,435.1,1204z M2310.9,1611.4
					c219.3-540.9-24.7-1177.8-550.7-1435.3c-575.3-281.7-1293.5-4.9-1534.4,588.8C6.8,1304.5,250,1944.3,776.5,2200.2
					C1352.7,2480.2,2069.4,2206.5,2310.9,1611.4z"/>
				<path class="st18" d="M434.9,1179.6C406.7,730,805.4,345.9,1240.5,332.1c468.7-14.9,866.8,375.3,859,845.5
					c-7.1,428.5-351.9,789.7-779.1,816.9c-217.5,13.8-436.3-59.6-600.6-203C591.5,1679.5,369,1370.9,434.9,1179.6z M2308.5,1586.5
					c219-540.2-24.7-1176.4-550.1-1433.7c-574.7-281.4-1292.1-4.9-1532.7,588.1C7,1280,250,1919.1,775.8,2174.6
					C1351.4,2454.4,2067.3,2181,2308.5,1586.5z"/>
				<path class="st19" d="M434.6,1155.2c-28.1-449.2,370.2-832.8,804.7-846.6c468.2-14.9,865.8,374.8,858,844.5
					c-7.1,428-351.5,788.8-778.2,816c-217.2,13.8-435.8-59.5-599.9-202.7C591.1,1654.6,368.9,1346.3,434.6,1155.2z M2306.2,1561.6
					C2525,1022,2281.5,386.5,1756.7,129.6c-574.1-281.1-1290.6-4.9-1531,587.5C7.3,1255.5,250,1893.8,775.2,2149.1
					C1350.2,2428.5,2065.3,2155.5,2306.2,1561.6z"/>
				<path class="st20" d="M434.4,1130.8C406.3,682.2,804.1,299,1238.2,285.2c467.7-14.9,864.8,374.4,857.1,843.6
					c-7.1,427.5-351.1,787.9-777.3,815c-217,13.8-435.3-59.5-599.2-202.5C590.7,1629.6,368.7,1321.7,434.4,1130.8z M2303.9,1536.8
					c218.5-539-24.7-1173.8-548.9-1430.5c-573.4-280.8-1289.2-4.9-1529.2,586.8C7.5,1231,249.9,1868.6,774.6,2123.6
					C1348.9,2402.7,2063.2,2130,2303.9,1536.8z"/>
				<path class="st21" d="M434.2,1106.4c-28.1-448.1,369.3-830.9,802.9-844.7c467.2-14.8,863.9,374,856.1,842.6
					c-7.1,427.1-350.7,787.1-776.4,814.1c-216.7,13.8-434.8-59.4-598.6-202.3C590.3,1604.6,368.5,1297,434.2,1106.4z M2301.5,1511.9
					c218.3-538.4-24.6-1172.5-548.3-1428.9C1180.5-197.4,465.5,78.1,225.7,669.2C7.8,1206.5,249.9,1843.4,774,2098.1
					C1347.6,2376.9,2061.1,2104.4,2301.5,1511.9z"/>
				<path class="st22" d="M433.9,1082c-28-447.6,368.9-830,802-843.7c466.6-14.8,862.9,373.6,855.1,841.7
					c-7.1,426.6-350.3,786.2-775.6,813.2c-216.5,13.8-434.3-59.3-597.9-202C589.9,1579.7,368.4,1272.4,433.9,1082z M2299.2,1487.1
					c218-537.8-24.6-1171.2-547.6-1427.3C1179.4-220.3,465.3,54.9,225.7,645.3C8,1182,249.9,1818.1,773.4,2072.6
					C1346.4,2351.1,2059.1,2078.9,2299.2,1487.1z"/>
				<path class="st23" d="M433.7,1057.6c-28-447.1,368.5-829,801.1-842.8C1700.9,200,2096.7,588,2089,1055.6
					c-7.1,426.1-349.9,785.3-774.7,812.3c-216.3,13.8-433.8-59.3-597.2-201.8C589.5,1554.7,368.2,1247.8,433.7,1057.6z
					 M2296.8,1462.2c217.8-537.2-24.6-1169.8-547-1425.6C1178.4-243.3,465,31.7,225.7,621.4C8.3,1157.5,249.9,1792.9,772.8,2047
					C1345.1,2325.2,2057,2053.4,2296.8,1462.2z"/>
				<path class="st24" d="M433.5,1033.2c-28-446.6,368.1-828.1,800.2-841.8c465.6-14.8,860.9,372.7,853.2,839.8
					c-7.1,425.6-349.5,784.4-773.8,811.4c-216,13.7-433.3-59.2-596.5-201.6C589.1,1529.8,368.1,1223.2,433.5,1033.2z M2294.5,1437.4
					C2512,900.8,2270,268.8,1748.1,13.3C1177.3-266.2,464.7,8.4,225.7,597.5c-217.2,535.5,24.1,1170.2,546.4,1424
					C1343.8,2299.4,2054.9,2027.9,2294.5,1437.4z"/>
				<path class="st25" d="M433.2,1008.8C405.3,562.7,800.9,181.7,1232.5,168c465.1-14.8,860,372.3,852.2,838.8
					c-7,425.1-349.1,783.5-772.9,810.5C1096.1,1831,879,1758.1,716,1615.9C588.7,1504.8,367.9,1198.6,433.2,1008.8z M2292.2,1412.5
					c217.3-536-24.5-1167.2-545.8-1422.4C1176.2-289.1,464.5-14.8,225.8,573.6C8.8,1108.4,249.8,1742.4,771.5,1996
					C1342.6,2273.6,2052.9,2002.3,2292.2,1412.5z"/>
				<path class="st26" d="M433,984.4c-27.9-445.6,367.2-826.2,798.4-839.9c464.5-14.8,859,371.9,851.3,837.9
					c-7,424.7-348.7,782.6-772,809.5c-215.5,13.7-432.4-59.1-595.2-201.1C588.2,1479.8,367.8,1174,433,984.4z M2289.8,1387.6
					c217-535.4-24.5-1165.9-545.2-1420.8C1175.1-312,464.2-38.1,225.8,549.7C9,1083.9,249.8,1717.2,770.9,1970.5
					C1341.3,2247.7,2050.8,1976.8,2289.8,1387.6z"/>
				<path class="st27" d="M432.8,960c-27.9-445.1,366.8-825.3,797.5-839c464-14.7,858,371.5,850.3,836.9
					c-7,424.2-348.4,781.7-771.2,808.6c-215.3,13.7-431.9-59-594.5-200.9C587.8,1454.9,367.6,1149.4,432.8,960z M2287.5,1362.8
					C2504.3,828,2263,198.2,1743-56.4C1174.1-335,463.9-61.3,225.8,525.8C9.3,1059.4,249.8,1692,770.3,1945
					C1340.1,2221.9,2048.7,1951.3,2287.5,1362.8z"/>
				<path class="st28" d="M432.5,935.6c-27.8-444.6,366.4-824.3,796.6-838c463.5-14.7,857,371,849.3,836
					c-7,423.7-348,780.8-770.3,807.7c-215,13.7-431.4-58.9-593.8-200.7C587.4,1429.9,367.4,1124.7,432.5,935.6z M2285.2,1337.9
					c216.6-534.2-24.4-1163.2-543.9-1417.6C1173-357.9,463.7-84.5,225.8,501.9c-216.2,533,24,1164.9,543.9,1417.6
					C1338.8,2196.1,2046.7,1925.8,2285.2,1337.9z"/>
				<path class="st29" d="M432.3,911.2C404.5,467.1,798.3,87.8,1228,74.2c463-14.7,856.1,370.6,848.4,835
					c-7,423.2-347.6,780-769.4,806.8c-214.8,13.7-430.9-58.9-593.2-200.5C587,1405,367.3,1100.1,432.3,911.2z M2282.8,1313.1
					c216.3-533.6-24.4-1161.9-543.3-1416C1171.9-380.8,463.4-107.8,225.8,478c-216,532.4,24,1163.6,543.3,1416
					C1337.5,2170.2,2044.6,1900.2,2282.8,1313.1z"/>
				<path class="st30" d="M432.1,886.8C404.3,443.2,797.7,64.4,1226.8,50.7c462.4-14.7,855.1,370.2,847.4,834.1
					c-7,422.7-347.2,779.1-768.5,805.9c-214.5,13.6-430.4-58.8-592.5-200.2C586.6,1380,367.1,1075.5,432.1,886.8z M2280.5,1288.2
					c216.1-533-24.4-1160.6-542.7-1414.4c-566.9-277.6-1274.7-4.9-1512,580.2C10,985.9,249.7,1616.3,768.5,1868.4
					C1336.3,2144.4,2042.5,1874.7,2280.5,1288.2z"/>
				<path class="st31" d="M431.8,862.4C404.1,419.3,797,40.9,1225.7,27.3c461.9-14.7,854.1,369.8,846.4,833.1
					c-7,422.3-346.8,778.2-767.7,805c-214.3,13.6-429.9-58.7-591.8-200C586.2,1355,367,1050.9,431.8,862.4z M2278.1,1263.4
					C2494,731,2253.8,104.1,1736.1-149.4c-566.3-277.3-1273.2-4.9-1510.3,579.5C10.3,961.4,249.7,1591.1,767.8,1842.9
					C1335,2118.6,2040.5,1849.2,2278.1,1263.4z"/>
				<path class="st32" d="M431.6,838c-27.7-442.6,364.7-820.6,793-834.2C1685.9-10.8,2077.7,373.2,2070,836
					c-7,421.8-346.4,777.3-766.8,804c-214.1,13.6-429.4-58.7-591.1-199.8C585.8,1330.1,366.8,1026.3,431.6,838z M2275.8,1238.5
					c215.6-531.7-24.3-1157.9-541.5-1411.1c-565.7-277-1271.8-4.9-1508.6,578.9C10.5,936.8,249.7,1565.8,767.2,1817.4
					C1333.7,2092.7,2038.4,1823.7,2275.8,1238.5z"/>
				<path class="st33" d="M431.4,813.6C403.7,371.6,795.7-6,1223.4-19.6c460.8-14.6,852.2,368.9,844.5,831.2
					c-7,421.3-346,776.4-765.9,803.1c-213.8,13.6-428.9-58.6-590.5-199.5C585.4,1305.1,366.6,1001.7,431.4,813.6z M2273.5,1213.6
					C2488.8,682.5,2249.2,57,1732.6-195.9c-565-276.7-1270.3-4.8-1506.9,578.2c-215,530,23.9,1158.3,540.8,1409.5
					C1332.5,2066.9,2036.3,1798.1,2273.5,1213.6z"/>
				<path class="st34" d="M431.1,789.2C403.5,347.7,795.1-29.5,1222.3-43.1c460.3-14.6,851.2,368.5,843.5,830.3
					c-7,420.8-345.6,775.5-765,802.2c-213.6,13.6-428.4-58.5-589.8-199.3C585,1280.2,366.5,977.1,431.1,789.2z M2271.1,1188.8
					c215.1-530.5-24.3-1155.3-540.2-1407.9C1166.6-495.5,462.1-224,225.8,358.4C11,887.8,249.6,1515.4,766,1766.4
					C1331.2,2041.1,2034.3,1772.6,2271.1,1188.8z"/>
			</g>
			<g>
				
					<linearGradient id="SVGID_4_" gradientUnits="userSpaceOnUse" x1="-2350.3196" y1="-2360.6311" x2="-166.1349" y2="-176.4463" gradientTransform="matrix(0.7071 0.7071 -0.7071 0.7071 1241.4369 2683.0388)">
					<stop  offset="0" style="stop-color:#E9E9E9"/>
					<stop  offset="0.7295" style="stop-color:#FFFFFF"/>
					<stop  offset="0.8363" style="stop-color:#FAFAFA"/>
					<stop  offset="0.9563" style="stop-color:#EDEDED"/>
					<stop  offset="1" style="stop-color:#E6E6E6"/>
				</linearGradient>
				<path class="st37" d="M2271.4,1189c215.1-530.5-24.3-1155.3-540.2-1407.9C1166.8-495.2,462.3-223.7,226,358.7
					C11.2,888.1,249.8,1515.6,766.2,1766.6C1331.5,2041.3,2034.5,1772.9,2271.4,1189z M431.4,789.5
					C403.7,347.9,795.3-29.2,1222.5-42.8c460.3-14.6,851.2,368.5,843.5,830.3c-7,420.8-345.6,775.5-765,802.2
					c-213.6,13.6-428.4-58.5-589.8-199.3C585.2,1280.4,366.7,977.3,431.4,789.5z"/>
				<path class="st36" d="M1827,1384.5c-318.9,318.9-837.8,318.9-1156.7,0c-156-156-235.7-359.8-239-564.7c-0.2-10-0.1-20.1,0-30.1
					c3.9,204.1,83.6,407,239,562.5c318.9,318.9,837.8,318.9,1156.7,0c155.4-155.4,235.1-358.3,239-562.5c0.2,10,0.2,20.1,0,30.1
					C2062.7,1024.7,1983,1228.5,1827,1384.5z"/>
				<path class="st36" d="M2352.1,787.3c-1.7-138.4-28.8-273.3-80.8-401.3c-55.5-137-137.1-259.8-242.4-365.1
					C1923.7-84.5,1800.8-166,1663.9-221.6c-132.2-53.6-271.9-80.8-415.2-80.8c-143.3,0-282.9,27.2-415.2,80.8
					C696.5-166,573.7-84.5,468.4,20.8C363.1,126.1,281.6,249,226,385.9c-51.9,128-79,262.9-80.7,401.3c-0.1-4.5-0.1-8.9-0.1-13.4
					c0-143.3,27.2-282.9,80.8-415.2c55.5-137,137.1-259.8,242.4-365.1c105.3-105.3,228.1-186.9,365.1-242.4
					c132.2-53.6,271.9-80.8,415.2-80.8c143.3,0,282.9,27.2,415.2,80.8c137,55.6,259.8,137.1,365.1,242.4
					c105.3,105.3,186.8,228.2,242.4,365.1c53.6,132.2,80.8,271.9,80.8,415.2C2352.2,778.3,2352.2,782.8,2352.1,787.3z"/>
			</g>
		</g>
		<g>
			<g class="st2">
				<path class="st3" d="M544,1498.7c-25-398.9,328.7-739.6,714.7-751.9c415.8-13.2,768.9,332.9,762,750
					c-6.3,380.1-312.2,700.6-691.1,724.7c-192.9,12.3-387-52.9-532.8-180.1C683,1942.2,485.6,1668.4,544,1498.7z M2206.2,1859.7
					c194.3-479.3-21.9-1043.6-488-1271.9c-509.8-249.6-1146.2-4.4-1359.7,521.7c-194,478.2,21.5,1045.1,488,1271.9
					C1357.1,2629.6,1992.2,2387.1,2206.2,1859.7z"/>
				<path class="st4" d="M543.8,1477.4c-24.9-398.5,328.4-738.8,713.9-751c415.4-13.2,768.1,332.5,761.2,749.2
					c-6.3,379.7-311.8,699.8-690.3,723.9c-192.7,12.3-386.6-52.8-532.2-179.9C682.6,1920.4,485.5,1646.9,543.8,1477.4z M2204.1,1838
					c194.1-478.7-21.9-1042.5-487.5-1270.5c-509.3-249.4-1145-4.4-1358.2,521.2C164.7,1566.4,380,2132.7,846,2359.2
					C1356,2607.1,1990.4,2364.8,2204.1,1838z"/>
				<path class="st5" d="M543.6,1456.2c-24.9-398,328-738,713.1-750.2c414.9-13.2,767.2,332.2,760.3,748.4
					c-6.3,379.3-311.5,699-689.6,723.1c-192.5,12.2-386.2-52.8-531.6-179.7C682.3,1898.6,485.3,1625.5,543.6,1456.2z M2202.1,1816.3
					C2396,1338.1,2180.2,775,1715.2,547.3c-508.7-249.1-1143.7-4.4-1356.7,520.6C164.9,1545,380,2110.7,845.4,2336.9
					C1354.9,2584.5,1988.6,2342.5,2202.1,1816.3z"/>
				<path class="st6" d="M543.4,1434.9c-24.9-397.6,327.7-737.1,712.3-749.4c414.5-13.2,766.4,331.8,759.5,747.6
					c-6.3,378.9-311.1,698.3-688.8,722.3c-192.3,12.2-385.8-52.7-531-179.5C681.9,1876.9,485.2,1604,543.4,1434.9z M2200.1,1794.6
					c193.6-477.7-21.9-1040.2-486.4-1267.6c-508.1-248.8-1142.4-4.4-1355.2,520c-193.4,476.6,21.5,1041.7,486.4,1267.6
					C1353.8,2562,1986.8,2320.3,2200.1,1794.6z"/>
				<path class="st7" d="M543.2,1413.6c-24.9-397.1,327.3-736.3,711.5-748.5c414-13.2,765.5,331.4,758.7,746.7
					c-6.3,378.5-310.8,697.5-688.1,721.5c-192.1,12.2-385.3-52.6-530.4-179.3C681.5,1855.1,485,1582.5,543.2,1413.6z M2198,1772.9
					c193.4-477.1-21.8-1039-485.9-1266.2C1204.6,258.2,571,502.3,358.5,1026.1c-193.2,476.1,21.4,1040.5,485.9,1266.2
					C1352.7,2539.4,1985,2298,2198,1772.9z"/>
				<path class="st8" d="M543,1392.3c-24.8-396.7,326.9-735.5,710.7-747.7c413.5-13.1,764.7,331.1,757.8,745.9
					c-6.3,378-310.5,696.7-687.3,720.7c-191.9,12.2-384.9-52.6-529.8-179.1C681.2,1833.3,484.9,1561,543,1392.3z M2196,1751.2
					c193.2-476.6-21.8-1037.9-485.3-1264.8c-507-248.3-1139.9-4.4-1352.2,518.9c-192.9,475.6,21.4,1039.4,485.3,1264.8
					C1351.6,2516.9,1983.2,2275.7,2196,1751.2z"/>
				<path class="st9" d="M542.8,1371c-24.8-396.3,326.6-734.7,710-746.9c413.1-13.1,763.8,330.7,757,745.1
					c-6.3,377.6-310.1,695.9-686.5,719.9c-191.6,12.2-384.5-52.5-529.3-178.9C680.8,1811.5,484.8,1539.6,542.8,1371z M2193.9,1729.6
					c193-476.1-21.8-1036.7-484.8-1263.4c-506.4-248-1138.6-4.3-1350.7,518.3c-192.7,475.1,21.4,1038.2,484.8,1263.4
					C1350.5,2494.4,1981.4,2253.5,2193.9,1729.6z"/>
				<path class="st10" d="M542.6,1349.7c-24.8-395.8,326.2-733.9,709.2-746c412.6-13.1,763,330.3,756.1,744.2
					c-6.3,377.2-309.8,695.2-685.8,719.1c-191.4,12.2-384-52.5-528.7-178.7C680.5,1789.8,484.6,1518.1,542.6,1349.7z M2191.9,1707.9
					c192.8-475.6-21.8-1035.6-484.2-1262c-505.9-247.7-1137.4-4.3-1349.2,517.7c-192.5,474.5,21.4,1037.1,484.2,1262
					C1349.4,2471.8,1979.6,2231.2,2191.9,1707.9z"/>
				<path class="st11" d="M542.4,1328.4c-24.7-395.4,325.8-733.1,708.4-745.2c412.2-13.1,762.1,330,755.3,743.4
					c-6.2,376.8-309.4,694.4-685,718.3c-191.2,12.2-383.6-52.4-528.1-178.5C680.1,1768,484.5,1496.6,542.4,1328.4z M2189.9,1686.2
					c192.6-475-21.7-1034.4-483.7-1260.6c-505.3-247.4-1136.1-4.3-1347.7,517.1c-192.3,474,21.3,1035.9,483.7,1260.6
					C1348.3,2449.3,1977.8,2208.9,2189.9,1686.2z"/>
				<path class="st12" d="M542.2,1307.1c-24.7-394.9,325.5-732.2,707.6-744.4c411.7-13.1,761.3,329.6,754.4,742.6
					c-6.2,376.4-309.1,693.6-684.2,717.5c-191,12.1-383.2-52.3-527.5-178.3C679.8,1746.2,484.4,1475.1,542.2,1307.1z M2187.8,1664.5
					c192.4-474.5-21.7-1033.3-483.2-1259.2C1199.9,158.1,569.8,401,358.5,921.9c-192.1,473.5,21.3,1034.7,483.2,1259.2
					C1347.2,2426.8,1976,2186.7,2187.8,1664.5z"/>
				<path class="st13" d="M542,1285.9c-24.7-394.5,325.1-731.4,706.8-743.5c411.2-13.1,760.4,329.2,753.6,741.8
					c-6.2,375.9-308.7,692.8-683.5,716.7c-190.8,12.1-382.8-52.3-526.9-178.1C679.4,1724.4,484.2,1453.7,542,1285.9z M2185.8,1642.8
					c192.1-474-21.7-1032.1-482.6-1257.8C1199,138.1,569.6,380.7,358.5,901c-191.9,472.9,21.3,1033.6,482.6,1257.8
					C1346.1,2404.2,1974.2,2164.4,2185.8,1642.8z"/>
				<path class="st14" d="M541.8,1264.6c-24.7-394.1,324.7-730.6,706-742.7c410.8-13.1,759.6,328.8,752.8,740.9
					c-6.2,375.5-308.4,692.1-682.7,715.9c-190.6,12.1-382.3-52.2-526.3-177.9C679.1,1702.7,484.1,1432.2,541.8,1264.6z
					 M2183.7,1621.1c191.9-473.4-21.7-1031-482.1-1256.4C1198,118.1,569.4,360.4,358.5,880.1c-191.7,472.4,21.3,1032.4,482.1,1256.4
					C1345,2381.7,1972.4,2142.1,2183.7,1621.1z"/>
				<path class="st15" d="M541.6,1243.3C516.9,849.7,866,513.5,1246.8,501.4c410.3-13,758.7,328.5,751.9,740.1
					c-6.2,375.1-308,691.3-681.9,715.1c-190.4,12.1-381.9-52.2-525.7-177.7C678.7,1680.9,483.9,1410.7,541.6,1243.3z M2181.7,1599.4
					c191.7-472.9-21.6-1029.8-481.5-1255c-503.1-246.3-1131-4.3-1341.7,514.8c-191.4,471.9,21.2,1031.3,481.5,1255
					C1343.9,2359.2,1970.6,2119.9,2181.7,1599.4z"/>
				<path class="st16" d="M541.4,1222c-24.6-393.2,324-729,704.4-741.1c409.9-13,757.9,328.1,751.1,739.3
					c-6.2,374.7-307.7,690.5-681.2,714.3c-190.2,12.1-381.5-52.1-525.1-177.5C678.3,1659.1,483.8,1389.2,541.4,1222z M2179.7,1577.8
					c191.5-472.4-21.6-1028.7-481-1253.6C1196.2,78.1,568.9,319.9,358.5,838.4c-191.2,471.4,21.2,1030.1,481,1253.6
					C1342.8,2336.6,1968.8,2097.6,2179.7,1577.8z"/>
				<path class="st17" d="M541.2,1200.7C516.6,808,864.8,472.6,1244.8,460.5c409.4-13,757,327.7,750.2,738.4
					c-6.2,374.3-307.4,689.7-680.4,713.5c-189.9,12.1-381-52.1-524.5-177.3C678,1637.3,483.7,1367.8,541.2,1200.7z M2177.6,1556.1
					c191.3-471.8-21.6-1027.5-480.5-1252.2C1195.2,58.1,568.7,299.6,358.5,817.6c-191,470.8,21.2,1029,480.5,1252.2
					C1341.7,2314.1,1967,2075.3,2177.6,1556.1z"/>
				<path class="st18" d="M541,1179.4C516.4,787.1,864.3,452.1,1243.8,440c408.9-13,756.2,327.4,749.4,737.6
					c-6.2,373.8-307,689-679.7,712.7c-189.7,12.1-380.6-52-524-177.1C677.6,1615.6,483.5,1346.3,541,1179.4z M2175.6,1534.4
					C2366.7,1063.1,2154,508,1695.7,283.6C1194.3,38.1,568.4,279.3,358.5,796.7C167.7,1267,379.7,1824.5,838.4,2047.5
					C1340.6,2291.5,1965.2,2053.1,2175.6,1534.4z"/>
				<path class="st19" d="M540.8,1158.1c-24.5-391.8,322.9-726.5,702.1-738.6c408.5-13,755.3,327,748.6,736.8
					c-6.2,373.4-306.7,688.2-678.9,711.9c-189.5,12.1-380.2-51.9-523.4-176.9C677.3,1593.8,483.4,1324.8,540.8,1158.1z
					 M2173.5,1512.7c190.9-470.8-21.5-1025.2-479.4-1249.4C1193.4,18.1,568.2,259,358.5,775.9
					c-190.6,469.8,21.1,1026.7,479.4,1249.4C1339.5,2269,1963.4,2030.8,2173.5,1512.7z"/>
				<path class="st20" d="M540.6,1136.9c-24.5-391.4,322.6-725.7,701.3-737.7c408-13,754.5,326.6,747.7,736
					c-6.2,373-306.3,687.4-678.1,711.1c-189.3,12-379.8-51.9-522.8-176.7C676.9,1572,483.2,1303.3,540.6,1136.9z M2171.5,1491
					c190.6-470.3-21.5-1024-478.8-1248C1192.4-1.9,568,238.8,358.5,755c-190.4,469.3,21.1,1025.5,478.8,1248
					C1338.4,2246.5,1961.6,2008.5,2171.5,1491z"/>
				<path class="st21" d="M540.4,1115.6c-24.5-391,322.2-724.9,700.5-736.9c407.6-13,753.6,326.3,746.9,735.1
					c-6.2,372.6-306,686.6-677.4,710.3c-189.1,12-379.3-51.8-522.2-176.5C676.6,1550.2,483.1,1281.9,540.4,1115.6z M2169.5,1469.3
					c190.4-469.7-21.5-1022.9-478.3-1246.6C1191.5-21.9,567.7,218.5,358.5,734.1c-190.2,468.7,21.1,1024.3,478.3,1246.6
					C1337.3,2223.9,1959.8,1986.2,2169.5,1469.3z"/>
				<path class="st22" d="M540.2,1094.3C515.7,703.8,862,370.2,1239.8,358.2c407.1-12.9,752.8,325.9,746,734.3
					c-6.2,372.2-305.6,685.9-676.6,709.5c-188.9,12-378.9-51.8-521.6-176.3C676.2,1528.4,483,1260.4,540.2,1094.3z M2167.4,1447.7
					c190.2-469.2-21.5-1021.7-477.8-1245.2C1190.5-41.9,567.5,198.2,358.5,713.3c-189.9,468.2,21.1,1023.2,477.8,1245.2
					C1336.2,2201.4,1958,1964,2167.4,1447.7z"/>
				<path class="st23" d="M540,1073c-24.4-390.1,321.5-723.2,698.9-735.2c406.6-12.9,751.9,325.5,745.2,733.5
					c-6.2,371.7-305.3,685.1-675.8,708.7c-188.7,12-378.5-51.7-521-176.1C675.8,1506.7,482.8,1238.9,540,1073z M2165.4,1426
					c190-468.7-21.4-1020.6-477.2-1243.8C1189.6-61.9,567.3,177.9,358.5,692.4c-189.7,467.7,21,1022,477.2,1243.8
					C1335.1,2178.9,1956.2,1941.7,2165.4,1426z"/>
				<path class="st24" d="M539.8,1051.7c-24.4-389.6,321.1-722.4,698.1-734.4c406.2-12.9,751.1,325.2,744.3,732.6
					c-6.2,371.3-304.9,684.3-675.1,707.9c-188.5,12-378.1-51.6-520.4-175.9C675.5,1484.9,482.7,1217.5,539.8,1051.7z M2163.3,1404.3
					c189.8-468.1-21.4-1019.4-476.7-1242.4C1188.7-81.9,567,157.7,358.5,671.6c-189.5,467.1,21,1020.9,476.7,1242.4
					C1334,2156.3,1954.3,1919.4,2163.3,1404.3z"/>
				<path class="st25" d="M539.5,1030.4c-24.4-389.2,320.7-721.6,697.3-733.6c405.7-12.9,750.2,324.8,743.5,731.8
					c-6.1,370.9-304.6,683.5-674.3,707.1c-188.2,12-377.6-51.6-519.8-175.7C675.1,1463.1,482.6,1196,539.5,1030.4z M2161.3,1382.6
					c189.6-467.6-21.4-1018.3-476.1-1240.9c-497.4-243.6-1118.4-4.3-1326.6,509.1c-189.3,466.6,21,1019.7,476.1,1240.9
					C1332.9,2133.8,1952.5,1897.2,2161.3,1382.6z"/>
				<path class="st26" d="M539.3,1009.1C515,620.4,859.7,288.3,1235.9,276.4c405.3-12.9,749.4,324.4,742.7,731
					c-6.1,370.5-304.3,682.8-673.5,706.3c-188,12-377.2-51.5-519.3-175.5C674.8,1441.3,482.4,1174.5,539.3,1009.1z M2159.3,1360.9
					c189.4-467.1-21.4-1017.1-475.6-1239.5c-496.9-243.3-1117.1-4.3-1325.1,508.5c-189.1,466.1,21,1018.6,475.6,1239.5
					C1331.8,2111.3,1950.7,1874.9,2159.3,1360.9z"/>
				<path class="st27" d="M539.1,987.9c-24.3-388.3,320-720,695.7-731.9c404.8-12.9,748.5,324.1,741.8,730.2
					c-6.1,370.1-303.9,682-672.8,705.5c-187.8,11.9-376.8-51.5-518.7-175.3C674.4,1419.6,482.3,1153,539.1,987.9z M2157.2,1339.2
					c189.1-466.6-21.3-1016-475.1-1238.1C1185.9-141.9,566.3,96.8,358.5,609c-188.9,465.6,21,1017.4,475.1,1238.1
					C1330.7,2088.7,1948.9,1852.6,2157.2,1339.2z"/>
				<path class="st28" d="M538.9,966.6c-24.3-387.9,319.7-719.2,694.9-731.1c404.3-12.9,747.7,323.7,741,729.3
					c-6.1,369.6-303.6,681.2-672,704.7c-187.6,11.9-376.3-51.4-518.1-175.1C674.1,1397.8,482.1,1131.6,538.9,966.6z M2155.2,1317.5
					c188.9-466-21.3-1014.8-474.5-1236.7C1184.9-161.9,566.1,76.6,358.5,588.1c-188.7,465,20.9,1016.3,474.5,1236.7
					C1329.6,2066.2,1947.1,1830.4,2155.2,1317.5z"/>
				<path class="st29" d="M538.7,945.3C514.5,557.8,858,226.9,1232.9,215c403.9-12.8,746.8,323.3,740.1,728.5
					c-6.1,369.2-303.2,680.5-671.3,703.9c-187.4,11.9-375.9-51.4-517.5-174.9C673.7,1376,482,1110.1,538.7,945.3z M2153.2,1295.9
					c188.7-465.5-21.3-1013.7-474-1235.3C1184-181.9,565.9,56.3,358.5,567.3c-188.4,464.5,20.9,1015.1,474,1235.3
					C1328.5,2043.7,1945.3,1808.1,2153.2,1295.9z"/>
				<path class="st30" d="M538.5,924c-24.2-387,318.9-717.5,693.4-729.4c403.4-12.8,746,323,739.3,727.7
					c-6.1,368.8-302.9,679.7-670.5,703.1c-187.2,11.9-375.5-51.3-516.9-174.7C673.4,1354.2,481.9,1088.6,538.5,924z M2151.1,1274.2
					c188.5-465-21.3-1012.5-473.5-1233.9C1183-201.9,565.6,36,358.5,546.4c-188.2,464,20.9,1014,473.5,1233.9
					C1327.4,2021.1,1943.5,1785.8,2151.1,1274.2z"/>
				<path class="st31" d="M538.3,902.7C514.1,516.1,856.9,186,1230.9,174.1c403-12.8,745.1,322.6,738.4,726.8
					c-6.1,368.4-302.5,678.9-669.7,702.3c-187,11.9-375.1-51.2-516.3-174.5C673,1332.5,481.7,1067.1,538.3,902.7z M2149.1,1252.5
					C2337.4,788.1,2127.8,241.1,1676.2,20C1182.1-221.9,565.4,15.7,358.5,525.6c-188,463.4,20.9,1012.8,472.9,1232.5
					C1326.3,1998.6,1941.7,1763.6,2149.1,1252.5z"/>
				<path class="st32" d="M538.1,881.4C514,495.3,856.3,165.5,1229.9,153.7c402.5-12.8,744.3,322.2,737.6,726
					c-6.1,368-302.2,678.1-669,701.5c-186.7,11.9-374.6-51.2-515.7-174.3C672.6,1310.7,481.6,1045.7,538.1,881.4z M2147,1230.8
					c188.1-463.9-21.2-1010.2-472.4-1231.1c-493.5-241.6-1109.5-4.2-1316.1,505c-187.8,462.9,20.8,1011.6,472.4,1231.1
					C1325.2,1976,1939.9,1741.3,2147,1230.8z"/>
				<path class="st33" d="M537.9,860.1c-24.1-385.7,317.8-715.1,691-726.9c402-12.8,743.4,321.9,736.8,725.2
					c-6.1,367.5-301.8,677.4-668.2,700.7c-186.5,11.9-374.2-51.1-515.1-174.1C672.3,1288.9,481.4,1024.2,537.9,860.1z M2145,1209.1
					c187.9-463.4-21.2-1009-471.8-1229.7C1180.2-262,564.9-24.8,358.5,483.9C171,946.2,379.4,1494.4,830.4,1713.6
					C1324.1,1953.5,1938.1,1719,2145,1209.1z"/>
				<path class="st34" d="M537.7,838.8c-24.1-385.2,317.5-714.3,690.2-726.1c401.6-12.8,742.6,321.5,735.9,724.4
					c-6.1,367.1-301.5,676.6-667.4,699.8c-186.3,11.8-373.8-51.1-514.5-173.9C671.9,1267.1,481.3,1002.7,537.7,838.8z M2143,1187.4
					c187.6-462.8-21.2-1007.9-471.3-1228.3C1179.3-282,564.7-45.1,358.6,463c-187.4,461.9,20.8,1009.3,471.3,1228.3
					C1323,1931,1936.3,1696.8,2143,1187.4z"/>
			</g>
			<g>
				
					<linearGradient id="SVGID_5_" gradientUnits="userSpaceOnUse" x1="-2183.9663" y1="-2197.4802" x2="-113.6845" y2="-127.1986" gradientTransform="matrix(0.7071 0.7071 -0.7071 0.7071 1241.4369 2683.0388)">
					<stop  offset="0" style="stop-color:#E9E9E9"/>
					<stop  offset="0.714" style="stop-color:#FFFFFF"/>
					<stop  offset="0.8269" style="stop-color:#FAFAFA"/>
					<stop  offset="0.9538" style="stop-color:#EDEDED"/>
					<stop  offset="1" style="stop-color:#E6E6E6"/>
				</linearGradient>
				<path class="st38" d="M2143.2,1187.6C2330.8,724.8,2122,179.7,1671.9-40.7c-492.4-241.1-1107-4.2-1313.1,503.9
					c-187.4,461.9,20.8,1009.3,471.3,1228.3C1323.2,1931.2,1936.5,1697,2143.2,1187.6z M537.9,839.1
					C513.8,453.8,855.4,124.8,1228.1,113c401.6-12.8,742.6,321.5,735.9,724.4c-6.1,367.1-301.5,676.6-667.4,699.8
					c-186.3,11.8-373.8-51.1-514.5-173.9C672.1,1267.3,481.5,1002.9,537.9,839.1z"/>
				<path class="st36" d="M1755.5,1358.2c-278.2,278.2-730.9,278.2-1009.1,0C610.3,1222,540.8,1044.3,537.9,865.5
					c-0.1-8.7-0.1-17.5,0-26.3c3.4,178.1,72.9,355.1,208.5,490.7c278.2,278.2,730.9,278.2,1009.1,0
					c135.6-135.6,205.1-312.6,208.5-490.7c0.2,8.8,0.2,17.5,0,26.3C1961.1,1044.3,1891.6,1222.1,1755.5,1358.2z"/>
				<path class="st36" d="M2213.6,837.1c-1.5-120.7-25.2-238.5-70.5-350.1c-48.5-119.5-119.6-226.7-211.5-318.5
					c-91.9-91.9-199-163-318.5-211.5c-115.4-46.8-237.2-70.5-362.2-70.5c-125,0-246.8,23.7-362.2,70.5
					C769.3,5.5,662.1,76.6,570.2,168.5c-91.9,91.9-163,199-211.5,318.5c-45.3,111.6-68.9,229.4-70.4,350.1
					c-0.1-3.9-0.1-7.8-0.1-11.7c0-125,23.7-246.8,70.5-362.2c48.5-119.5,119.6-226.7,211.5-318.5c91.9-91.9,199-163,318.5-211.5
					c115.4-46.8,237.2-70.5,362.2-70.5c125,0,246.8,23.7,362.2,70.5c119.5,48.5,226.7,119.6,318.5,211.5
					c91.9,91.9,163,199,211.5,318.6c46.8,115.4,70.5,237.2,70.5,362.2C2213.7,829.3,2213.7,833.2,2213.6,837.1z"/>
			</g>
		</g>
		<g>
			<g class="st2">
				<path class="st3" d="M666.3,1444.5c-20.7-331.4,273.1-614.4,593.7-624.6c345.4-11,638.8,276.5,633,623.1
					c-5.2,315.8-259.3,582-574.1,602c-160.3,10.2-321.5-43.9-442.6-149.6C781.7,1812.9,617.8,1585.4,666.3,1444.5z M2047.1,1744.3
					c161.4-398.1-18.2-867-405.4-1056.6c-423.5-207.4-952.2-3.6-1129.5,433.4C351,1518.5,530,1989.4,917.6,2177.8
					C1341.8,2383.9,1869.4,2182.4,2047.1,1744.3z"/>
				<path class="st4" d="M666.1,1426.8c-20.7-331,272.8-613.7,593.1-623.9c345.1-11,638.1,276.2,632.3,622.4
					c-5.2,315.4-259.1,581.4-573.5,601.3c-160.1,10.2-321.2-43.9-442.1-149.4C781.4,1794.8,617.6,1567.6,666.1,1426.8z
					 M2045.4,1726.3c161.2-397.7-18.2-866-405-1055.4c-423.1-207.2-951.2-3.6-1128.3,433c-161,396.8,17.9,867.3,405,1055.4
					C1340.8,2365.2,1867.9,2163.9,2045.4,1726.3z"/>
				<path class="st5" d="M666,1409.1c-20.7-330.6,272.5-613,592.4-623.2c344.7-11,637.4,275.9,631.6,621.7
					c-5.2,315.1-258.8,580.7-572.9,600.7c-159.9,10.2-320.8-43.8-441.6-149.2C781.1,1776.7,617.5,1549.7,666,1409.1z M2043.7,1708.3
					c161-397.3-18.2-865.1-404.5-1054.3c-422.6-206.9-950.1-3.6-1127,432.5c-160.8,396.4,17.8,866.3,404.5,1054.3
					C1339.9,2346.5,1866.4,2145.4,2043.7,1708.3z"/>
				<path class="st6" d="M665.8,1391.4C645.1,1061.1,938,779,1257.5,768.9c344.3-10.9,636.7,275.6,630.9,621
					c-5.2,314.8-258.5,580.1-572.2,600c-159.7,10.2-320.5-43.8-441.1-149.1C780.8,1758.6,617.4,1531.9,665.8,1391.4z M2042,1690.3
					c160.9-396.8-18.2-864.1-404.1-1053.1c-422.1-206.7-949.1-3.6-1125.8,432c-160.6,396,17.8,865.4,404.1,1053.1
					C1339,2327.7,1864.9,2126.9,2042,1690.3z"/>
				<path class="st7" d="M665.6,1373.7C645,1043.8,937.5,762,1256.7,751.9c343.9-10.9,636,275.3,630.2,620.3
					c-5.2,314.4-258.2,579.4-571.6,599.4c-159.6,10.1-320.1-43.7-440.7-148.9C780.5,1740.5,617.3,1514.1,665.6,1373.7z
					 M2040.3,1672.3c160.7-396.4-18.1-863.2-403.6-1051.9c-421.7-206.5-948-3.6-1124.6,431.5c-160.5,395.5,17.8,864.4,403.6,1051.9
					C1338.1,2309,1863.4,2108.5,2040.3,1672.3z"/>
				<path class="st8" d="M665.4,1356c-20.6-329.6,271.6-611,590.4-621.1c343.5-10.9,635.3,275,629.5,619.7
					c-5.2,314.1-257.9,578.8-571,598.7c-159.4,10.1-319.7-43.7-440.2-148.7C780.3,1722.4,617.2,1496.2,665.4,1356z M2038.7,1654.2
					c160.5-395.9-18.1-862.2-403.2-1050.8c-421.2-206.2-947-3.6-1123.3,431C351.9,1429.6,530,1898,915.3,2085.3
					C1337.2,2290.3,1861.9,2090,2038.7,1654.2z"/>
				<path class="st9" d="M665.3,1338.4c-20.6-329.2,271.3-610.3,589.8-620.5c343.2-10.9,634.6,274.7,628.8,619
					c-5.2,313.7-257.6,578.1-570.3,598c-159.2,10.1-319.4-43.6-439.7-148.6C780,1704.3,617.1,1478.4,665.3,1338.4z M2037,1636.2
					c160.3-395.5-18.1-861.2-402.7-1049.6c-420.7-206-945.9-3.6-1122.1,430.6c-160.1,394.7,17.8,862.5,402.7,1049.6
					C1336.3,2271.6,1860.4,2071.5,2037,1636.2z"/>
				<path class="st10" d="M665.1,1320.7c-20.6-328.8,271-609.7,589.1-619.8c342.8-10.9,633.8,274.4,628.1,618.3
					c-5.2,313.4-257.3,577.5-569.7,597.4c-159,10.1-319-43.6-439.2-148.4C779.7,1686.2,617,1460.5,665.1,1320.7z M2035.3,1618.2
					c160.2-395.1-18.1-860.3-402.3-1048.4C1212.7,364,688.1,566.2,512.2,999.9c-159.9,394.2,17.7,861.5,402.3,1048.4
					C1335.4,2252.9,1858.9,2053,2035.3,1618.2z"/>
				<path class="st11" d="M664.9,1303c-20.6-328.5,270.7-609,588.5-619.1c342.4-10.9,633.1,274.1,627.4,617.6
					c-5.2,313-257.1,576.9-569.1,596.7c-158.9,10.1-318.7-43.5-438.7-148.3C779.4,1668.1,616.8,1442.7,664.9,1303z M2033.6,1600.2
					c160-394.6-18.1-859.3-401.8-1047.2C1212,347.4,687.9,549.3,512.2,982.6c-159.8,393.8,17.7,860.6,401.8,1047.2
					C1334.4,2234.1,1857.4,2034.5,2033.6,1600.2z"/>
				<path class="st12" d="M664.8,1285.3C644.2,957.2,935.2,677,1252.6,666.9c342-10.9,632.4,273.8,626.7,616.9
					c-5.2,312.7-256.8,576.2-568.4,596c-158.7,10.1-318.3-43.5-438.2-148.1C779.1,1650.1,616.7,1424.9,664.8,1285.3z M2031.9,1582.2
					c159.8-394.2-18-858.4-401.4-1046.1c-419.3-205.3-942.8-3.6-1118.3,429.1c-159.6,393.3,17.7,859.6,401.4,1046.1
					C1333.5,2215.4,1855.9,2016,2031.9,1582.2z"/>
				<path class="st13" d="M664.6,1267.6C644.1,939.9,934.7,660,1251.8,649.9c341.6-10.9,631.7,273.5,626,616.2
					c-5.2,312.3-256.5,575.6-567.8,595.4c-158.5,10.1-318-43.4-437.7-147.9C778.8,1632,616.6,1407,664.6,1267.6z M2030.2,1564.2
					c159.6-393.7-18-857.4-400.9-1044.9c-418.9-205.1-941.7-3.6-1117.1,428.6c-159.4,392.9,17.7,858.6,400.9,1044.9
					C1332.6,2196.7,1854.4,1997.5,2030.2,1564.2z"/>
				<path class="st14" d="M664.4,1249.9c-20.5-327.4,269.8-606.9,586.5-617c341.3-10.8,631,273.2,625.3,615.5
					c-5.2,312-256.2,574.9-567.2,594.7c-158.3,10.1-317.6-43.4-437.2-147.8C778.5,1613.9,616.5,1389.2,664.4,1249.9z M2028.5,1546.2
					c159.4-393.3-18-856.5-400.5-1043.7c-418.4-204.9-940.7-3.6-1115.8,428.2C353,1323,529.9,1788.3,912.7,1974.3
					C1331.7,2178,1852.9,1979,2028.5,1546.2z"/>
				<path class="st15" d="M664.3,1232.3c-20.5-327,269.5-606.3,585.9-616.3c340.9-10.8,630.3,272.9,624.7,614.8
					c-5.2,311.6-255.9,574.3-566.5,594c-158.1,10.1-317.3-43.3-436.7-147.6C778.2,1595.8,616.4,1371.3,664.3,1232.3z M2026.8,1528.1
					c159.3-392.9-18-855.5-400-1042.6C1208.8,280.9,687.2,482,512.2,913.2c-159,392,17.6,856.7,400,1042.6
					C1330.8,2159.3,1851.4,1960.5,2026.8,1528.1z"/>
				<path class="st16" d="M664.1,1214.6C643.7,888,933.3,609,1249.3,598.9c340.5-10.8,629.6,272.6,624,614.1
					c-5.2,311.3-255.6,573.6-565.9,593.4c-158,10-316.9-43.3-436.3-147.4C777.9,1577.7,616.3,1353.5,664.1,1214.6z M2025.1,1510.1
					c159.1-392.4-18-854.5-399.6-1041.4C1208.1,264.3,687,465.1,512.2,895.9c-158.9,391.6,17.6,855.8,399.6,1041.4
					C1329.9,2140.5,1849.9,1942,2025.1,1510.1z"/>
				<path class="st17" d="M663.9,1196.9C643.5,870.6,932.8,592,1248.5,582c340.1-10.8,628.9,272.3,623.3,613.5
					c-5.2,310.9-255.3,573-565.3,592.7c-157.8,10-316.6-43.2-435.8-147.3C777.6,1559.6,616.2,1335.7,663.9,1196.9z M2023.4,1492.1
					c158.9-392-17.9-853.6-399.1-1040.2c-417-204.2-937.5-3.6-1112.1,426.7c-158.7,391.1,17.6,854.8,399.1,1040.2
					C1329,2121.8,1848.4,1923.5,2023.4,1492.1z"/>
				<path class="st18" d="M663.8,1179.2C643.4,853.3,932.3,575,1247.6,565c339.7-10.8,628.2,272,622.6,612.8
					c-5.1,310.6-255,572.4-564.6,592c-157.6,10-316.2-43.2-435.3-147.1C777.3,1541.5,616,1317.8,663.8,1179.2z M2021.7,1474.1
					c158.7-391.5-17.9-852.6-398.7-1039.1c-416.5-203.9-936.4-3.6-1110.8,426.3c-158.5,390.7,17.6,853.8,398.7,1039.1
					C1328,2103.1,1846.9,1905,2021.7,1474.1z"/>
				<path class="st19" d="M663.6,1161.5C643.2,836,931.9,558,1246.8,548c339.3-10.8,627.5,271.7,621.9,612.1
					c-5.1,310.2-254.8,571.7-564,591.4c-157.4,10-315.8-43.1-434.8-146.9C777,1523.4,615.9,1300,663.6,1161.5z M2020,1456.1
					c158.6-391.1-17.9-851.7-398.2-1037.9c-416-203.7-935.4-3.6-1109.6,425.8c-158.3,390.3,17.6,852.9,398.2,1037.9
					C1327.1,2084.4,1845.4,1886.5,2020,1456.1z"/>
				<path class="st20" d="M663.4,1143.8C643.1,818.7,931.4,541,1246,531c339-10.8,626.8,271.4,621.2,611.4
					c-5.1,309.9-254.5,571.1-563.4,590.7c-157.3,10-315.5-43.1-434.3-146.8C776.7,1505.3,615.8,1282.2,663.4,1143.8z M2018.3,1438.1
					c158.4-390.7-17.9-850.7-397.8-1036.7c-415.6-203.5-934.3-3.6-1108.3,425.3C354,1216.4,529.7,1678.5,910,1863.4
					C1326.2,2065.6,1843.9,1868,2018.3,1438.1z"/>
				<path class="st21" d="M663.3,1126.2C642.9,801.4,930.9,524,1245.2,514c338.6-10.8,626.1,271,620.5,610.7
					c-5.1,309.5-254.2,570.4-562.7,590c-157.1,10-315.1-43-433.8-146.6C776.4,1487.2,615.7,1264.3,663.3,1126.2z M2016.6,1420
					c158.2-390.2-17.9-849.8-397.3-1035.6C1204.2,181.2,686,380.9,512.2,809.3c-158,389.4,17.5,851,397.3,1035.6
					C1325.3,2046.9,1842.4,1849.5,2016.6,1420z"/>
				<path class="st22" d="M663.1,1108.5C642.8,784,930.5,507,1244.3,497c338.2-10.7,625.4,270.7,619.8,610
					c-5.1,309.2-253.9,569.8-562.1,589.4c-156.9,10-314.8-43-433.3-146.4C776.1,1469.2,615.6,1246.5,663.1,1108.5z M2014.9,1402
					c158-389.8-17.8-848.8-396.9-1034.4c-414.6-203-932.2-3.6-1105.8,424.3c-157.8,388.9,17.5,850,396.9,1034.4
					C1324.4,2028.2,1840.9,1831,2014.9,1402z"/>
				<path class="st23" d="M662.9,1090.8C642.6,766.7,930,490,1243.5,480c337.8-10.7,624.7,270.4,619.1,609.3
					c-5.1,308.8-253.6,569.1-561.4,588.7c-156.7,10-314.4-43-432.8-146.3C775.8,1451.1,615.5,1228.6,662.9,1090.8z M2013.2,1384
					c157.8-389.3-17.8-847.8-396.5-1033.2C1202.6,148,685.6,347.2,512.2,774.6c-157.6,388.5,17.5,849.1,396.5,1033.2
					C1323.5,2009.5,1839.4,1812.5,2013.2,1384z"/>
				<path class="st24" d="M662.8,1073.1C642.5,749.4,929.5,473,1242.7,463c337.4-10.7,624,270.1,618.4,608.6
					c-5.1,308.5-253.3,568.5-560.8,588c-156.6,10-314.1-42.9-432.3-146.1C775.5,1433,615.4,1210.8,662.8,1073.1z M2011.5,1366
					c157.7-388.9-17.8-846.9-396-1032.1c-413.7-202.6-930.1-3.6-1103.3,423.4c-157.4,388.1,17.5,848.1,396,1032.1
					C1322.5,1990.8,1837.9,1794,2011.5,1366z"/>
				<path class="st25" d="M662.6,1055.4C642.3,732.1,929,455.9,1241.9,446c337.1-10.7,623.3,269.8,617.7,608
					c-5.1,308.1-253,567.9-560.2,587.4c-156.4,9.9-313.7-42.9-431.9-145.9C775.2,1414.9,615.2,1193,662.6,1055.4z M2009.9,1348
					c157.5-388.5-17.8-845.9-395.6-1030.9C1201.1,114.7,685.2,313.5,512.2,740c-157.3,387.6,17.4,847.1,395.6,1030.9
					C1321.6,1972,1836.4,1775.5,2009.9,1348z"/>
				<path class="st26" d="M662.4,1037.7c-20.2-323,266.2-598.8,578.6-608.7c336.7-10.7,622.6,269.5,617,607.3
					c-5.1,307.8-252.8,567.2-559.5,586.7c-156.2,9.9-313.4-42.8-431.4-145.8C774.9,1396.8,615.1,1175.1,662.4,1037.7z M2008.2,1330
					c157.3-388-17.8-845-395.1-1029.7c-412.8-202.1-928-3.5-1100.8,422.4c-157.1,387.2,17.4,846.2,395.1,1029.7
					C1320.7,1953.3,1834.9,1757,2008.2,1330z"/>
				<path class="st27" d="M662.2,1020.1c-20.2-322.6,265.9-598.1,578-608c336.3-10.7,621.8,269.2,616.3,606.6
					c-5.1,307.4-252.5,566.6-558.9,586.1c-156,9.9-313-42.8-430.9-145.6C774.6,1378.7,615,1157.3,662.2,1020.1z M2006.5,1312
					c157.1-387.6-17.7-844-394.7-1028.6c-412.3-201.9-927-3.5-1099.6,421.9c-156.9,386.8,17.4,845.2,394.7,1028.6
					C1319.8,1934.6,1833.4,1738.5,2006.5,1312z"/>
				<path class="st28" d="M662.1,1002.4C641.9,680.1,927.6,404.9,1239.4,395c335.9-10.7,621.1,268.9,615.6,605.9
					c-5.1,307.1-252.2,565.9-558.3,585.4c-155.8,9.9-312.6-42.7-430.4-145.4C774.3,1360.6,614.9,1139.4,662.1,1002.4z
					 M2004.8,1293.9c156.9-387.1-17.7-843-394.2-1027.4C1198.7,64.9,684.6,263,512.2,688c-156.7,386.3,17.4,844.3,394.2,1027.4
					C1318.9,1915.9,1831.9,1720,2004.8,1293.9z"/>
				<path class="st29" d="M661.9,984.7C641.8,662.8,927.2,387.9,1238.6,378c335.5-10.7,620.4,268.6,614.9,605.2
					c-5.1,306.7-251.9,565.3-557.6,584.7c-155.7,9.9-312.3-42.7-429.9-145.3C774,1342.5,614.8,1121.6,661.9,984.7z M2003.1,1275.9
					c156.8-386.7-17.7-842.1-393.8-1026.2c-411.4-201.4-924.9-3.5-1097.1,421C355.7,1056.6,529.6,1514,906,1696.9
					C1318,1897.2,1830.4,1701.5,2003.1,1275.9z"/>
				<path class="st30" d="M661.7,967c-20.1-321.5,265-596.1,576-606c335.1-10.7,619.7,268.3,614.2,604.5
					c-5.1,306.4-251.6,564.6-557,584.1c-155.5,9.9-311.9-42.6-429.4-145.1C773.7,1324.4,614.7,1103.8,661.7,967z M2001.4,1257.9
					c156.6-386.3-17.7-841.1-393.3-1025.1c-410.9-201.2-923.8-3.5-1095.8,420.5c-156.4,385.4,17.3,842.3,393.3,1025.1
					C1317.1,1878.4,1828.9,1683,2001.4,1257.9z"/>
				<path class="st31" d="M661.6,949.3C641.5,628.2,926.2,353.9,1236.9,344c334.8-10.6,619,268,613.5,603.8
					c-5.1,306-251.3,564-556.4,583.4c-155.3,9.9-311.6-42.6-428.9-144.9C773.4,1306.3,614.6,1085.9,661.6,949.3z M1999.7,1239.9
					C2156.1,854.1,1982,399.7,1606.8,216c-410.4-201-922.8-3.5-1094.6,420c-156.2,385,17.3,841.4,392.9,1023.9
					C1316.1,1859.7,1827.4,1664.5,1999.7,1239.9z"/>
				<path class="st32" d="M661.4,931.6c-20.1-320.8,264.3-594.7,574.7-604.6c334.4-10.6,618.3,267.7,612.8,603.1
					c-5.1,305.7-251,563.4-555.7,582.7c-155.1,9.9-311.2-42.5-428.4-144.8C773.1,1288.2,614.4,1068.1,661.4,931.6z M1998,1221.9
					c156.2-385.4-17.6-839.2-392.4-1022.7c-410-200.7-921.7-3.5-1093.4,419.5c-156,384.6,17.3,840.4,392.4,1022.7
					C1315.2,1841,1825.9,1646,1998,1221.9z"/>
				<path class="st33" d="M661.2,914c-20.1-320.4,264-594,574-603.9c334-10.6,617.6,267.4,612.1,602.4
					c-5.1,305.3-250.7,562.7-555.1,582.1c-155,9.9-310.9-42.5-427.9-144.6C772.9,1270.2,614.3,1050.2,661.2,914z M1996.3,1203.9
					c156.1-384.9-17.6-838.3-392-1021.6c-409.5-200.5-920.7-3.5-1092.1,419.1c-155.8,384.1,17.3,839.5,392,1021.6
					C1314.3,1822.3,1824.4,1627.5,1996.3,1203.9z"/>
				<path class="st34" d="M661.1,896.3c-20-320,263.7-593.4,573.4-603.2c333.6-10.6,616.9,267.1,611.4,601.8
					c-5.1,305-250.5,562.1-554.5,581.4c-154.8,9.8-310.5-42.4-427.5-144.5C772.6,1252.1,614.2,1032.4,661.1,896.3z M1994.6,1185.9
					c155.9-384.5-17.6-837.3-391.5-1020.4c-409-200.3-919.6-3.5-1090.9,418.6c-155.7,383.7,17.3,838.5,391.5,1020.4
					C1313.4,1803.5,1822.9,1609,1994.6,1185.9z"/>
			</g>
			<g>
				
					<linearGradient id="SVGID_6_" gradientUnits="userSpaceOnUse" x1="-1991.4329" y1="-2008.6536" x2="-525.2696" y2="-542.4903" gradientTransform="matrix(0.7071 0.7071 -0.7071 0.7071 1241.4369 2683.0388)">
					<stop  offset="0" style="stop-color:#E9E9E9"/>
					<stop  offset="0.271" style="stop-color:#EDEDED"/>
					<stop  offset="0.54" style="stop-color:#F9F9F9"/>
					<stop  offset="0.6349" style="stop-color:#FFFFFF"/>
					<stop  offset="1" style="stop-color:#E6E6E6"/>
				</linearGradient>
				<path class="st39" d="M1994.8,1186c155.9-384.5-17.6-837.3-391.5-1020.4c-409-200.3-919.6-3.5-1090.9,418.6
					c-155.7,383.7,17.3,838.5,391.5,1020.4C1313.6,1803.7,1823.1,1609.2,1994.8,1186z M661.2,896.4c-20-320,263.7-593.4,573.4-603.2
					c333.6-10.6,616.9,267.1,611.4,601.8c-5.1,305-250.5,562.1-554.5,581.4c-154.8,9.8-310.5-42.4-427.5-144.5
					C772.7,1252.2,614.4,1032.6,661.2,896.4z"/>
				<path class="st36" d="M1672.7,1327.7c-231.1,231.1-607.2,231.1-838.3,0c-113.1-113.1-170.8-260.8-173.2-409.3
					c-0.1-7.3-0.1-14.5,0-21.8c2.8,148,60.6,295,173.2,407.6c231.1,231.1,607.2,231.1,838.3,0c112.6-112.6,170.4-259.7,173.2-407.7
					c0.1,7.3,0.1,14.5,0,21.8C1843.5,1066.9,1785.8,1214.6,1672.7,1327.7z"/>
				<path class="st36" d="M2053.3,894.8c-1.2-100.3-20.9-198.1-58.5-290.9c-40.3-99.3-99.3-188.3-175.7-264.6
					c-76.3-76.3-165.3-135.4-264.6-175.7c-95.8-38.9-197.1-58.6-300.9-58.6c-103.8,0-205.1,19.7-300.9,58.6
					c-99.3,40.3-188.3,99.4-264.6,175.7C611.8,415.7,552.7,504.7,512.4,604c-37.6,92.7-57.3,190.5-58.5,290.9c0-3.2-0.1-6.5-0.1-9.7
					c0-103.8,19.7-205.1,58.6-300.9c40.3-99.3,99.4-188.3,175.7-264.6c76.3-76.3,165.3-135.4,264.6-175.7
					c95.8-38.9,197.1-58.6,300.9-58.6c103.8,0,205.1,19.7,300.9,58.6c99.3,40.3,188.3,99.4,264.6,175.7
					c76.3,76.3,135.4,165.4,175.7,264.6c38.9,95.8,58.6,197.1,58.6,300.9C2053.4,888.4,2053.3,891.6,2053.3,894.8z"/>
			</g>
		</g>
	</g>
</g>
</svg>
