<svg xmlns="http://www.w3.org/2000/svg" xmlns:xlink="http://www.w3.org/1999/xlink" width="469.431" height="541.767" viewBox="0 0 469.431 541.767">
  <defs>
    <linearGradient id="linear-gradient" y1="0.5" x2="1" y2="0.5" gradientUnits="objectBoundingBox">
      <stop offset="0" stop-color="#813389"/>
      <stop offset="0.129" stop-color="#6c3389"/>
      <stop offset="0.359" stop-color="#4e338a"/>
      <stop offset="0.584" stop-color="#38338a"/>
      <stop offset="0.801" stop-color="#2b338a"/>
      <stop offset="1" stop-color="#27348b"/>
    </linearGradient>
  </defs>
  <g id="Group_3059" data-name="Group 3059" transform="translate(-1739.206 57.581)">
    <path id="Path_4726" data-name="Path 4726" d="M1903.587,54.693c-.032,12.63-9.664,22.035-22.571,22.037-12.975,0-22.627-9.549-22.586-22.351.04-12.693,9.887-22.33,22.759-22.272C1894.032,32.166,1903.62,41.833,1903.587,54.693Z" transform="translate(55.022 41.391)" fill="url(#linear-gradient)"/>
    <path id="Path_4727" data-name="Path 4727" d="M1776.676,125.063c.072-12.877,9.851-22.285,23.063-22.187,12.81.1,22.178,9.741,22.12,22.777-.054,12.228-10,21.849-22.568,21.838A22.219,22.219,0,0,1,1776.676,125.063Z" transform="translate(17.292 74.051)" fill="url(#linear-gradient)"/>
    <path id="Path_4728" data-name="Path 4728" d="M1754.886,119.367c-9.136.018-15.662-6.559-15.68-15.8-.018-9.029,6.709-16.047,15.53-16.2,8.569-.151,16.122,7.435,16.1,16.17A15.884,15.884,0,0,1,1754.886,119.367Z" transform="translate(0 66.891)" fill="url(#linear-gradient)"/>
    <path id="Path_4729" data-name="Path 4729" d="M1928.582,1.926c.013,9.393-6.266,15.726-15.584,15.717-9.137-.009-15.746-6.555-15.849-15.694-.1-8.991,6.686-15.745,15.808-15.726C1922.35-13.756,1928.567-7.508,1928.582,1.926Z" transform="translate(72.891 20.216)" fill="url(#linear-gradient)"/>
    <path id="Path_4730" data-name="Path 4730" d="M1803.45,60.444c-9.367.045-15.874-6.257-15.962-15.463-.088-9.051,6.4-15.656,15.425-15.71,9.506-.056,16.022,6.111,16.158,15.29C1819.206,53.711,1812.626,60.4,1803.45,60.444Z" transform="translate(22.281 40.082)" fill="url(#linear-gradient)"/>
    <path id="Path_4731" data-name="Path 4731" d="M1810.527-48.425c.022,5.748-3.342,9.092-9.149,9.091-5.9,0-9.118-3.177-9.167-9.048-.045-5.71,3.737-9.262,9.8-9.2C1807.17-57.524,1810.5-53.941,1810.527-48.425Z" transform="translate(24.462)" fill="url(#linear-gradient)"/>
    <path id="Path_4732" data-name="Path 4732" d="M1759.582,41.632a8.369,8.369,0,0,1,8.6,8.446,8.818,8.818,0,0,1-9.118,9.01,8.728,8.728,0,0,1-8.406-8.789C1750.709,44.966,1754.144,41.628,1759.582,41.632Z" transform="translate(5.287 45.787)" fill="url(#linear-gradient)"/>
    <path id="Path_4733" data-name="Path 4733" d="M1778.526,15.012c-5,.05-8.709-3.28-8.816-7.911-.126-5.538,3.307-9.1,8.827-9.169a8.609,8.609,0,0,1,8.768,8.776C1787.3,11.539,1783.683,14.959,1778.526,15.012Z" transform="translate(14.076 25.618)" fill="url(#linear-gradient)"/>
    <path id="Path_4734" data-name="Path 4734" d="M1860.247-8.621c5.351-.022,8.747,3.42,8.718,8.833-.028,5-3.364,8.019-8.824,7.971-5.292-.047-8.376-3.278-8.376-8.778C1851.762-5.432,1855.111-8.6,1860.247-8.621Z" transform="translate(51.946 22.595)" fill="url(#linear-gradient)"/>
    <path id="Path_4735" data-name="Path 4735" d="M1876.43-38.487c5.241.015,8.6,3.562,8.548,9.032-.041,4.655-3.581,7.826-8.749,7.837-5.226.01-8.479-3.318-8.5-8.692C1867.719-35.2,1871.233-38.5,1876.43-38.487Z" transform="translate(59.316 8.812)" fill="url(#linear-gradient)"/>
    <path id="Path_4736" data-name="Path 4736" d="M2150.645,366.908a186.226,186.226,0,0,1-142.706,73.226c-1.957.061-3.917.009-5.875.009-75.381-3.094-132.019-36.519-167.3-104.066-8.031-15.376-12.965-31.886-16.175-48.911-1.081-5.741-2.727-7.227-8.557-7.706-15.559-1.276-25.8-12.588-25.739-28.431.055-14.929,11-26.554,26.168-27.59,11.081-.757,21.206-3.689,29.191-11.926,11.459-11.819,18.24-36.505-.482-55.385-16.467-16.606-18.117-39.925-4.331-57.934,16.2-21.167,49.611-21.861,66.5-1.236,5.225,6.381,10.771,12.129,18.59,15.312,20.17,8.214,44.244-5.776,46.733-27.424.531-4.615.1-9.362-.115-14.038-.523-11.441,2.981-21.157,12.512-27.916C1994.708,31.8,2017,39.757,2022.3,58.138a52.385,52.385,0,0,1,1.2,5.144c.745,4.119,2.121,5.282,6.269,6.188,9.843,2.147,19.808,3.945,29.429,6.853,27.681,8.369,51.809,23,72.627,43.018,28.48,27.387,46.575,60.553,53.754,99.381C2190.435,244.952,2190.813,305.038,2150.645,366.908Z" transform="translate(20.81 44.023)" fill="url(#linear-gradient)"/>
  </g>
</svg>
