<?xml version="1.0" encoding="utf-8"?>
<!-- Generator: Adobe Illustrator 25.2.0, SVG Export Plug-In . SVG Version: 6.00 Build 0)  -->
<svg version="1.1" id="Layer_1" xmlns="http://www.w3.org/2000/svg" xmlns:xlink="http://www.w3.org/1999/xlink" x="0px" y="0px"
	 viewBox="0 0 1960 1200" style="enable-background:new 0 0 1960 1200;" xml:space="preserve">
<style type="text/css">
	.st0{fill:#F5F6F6;}
	.st1{clip-path:url(#SVGID_2_);}
	.st2{opacity:0.68;}
	.st3{fill:#FFFFFF;fill-opacity:0;}
	.st4{opacity:3.225800e-02;fill:#FFFFFF;enable-background:new    ;}
	.st5{opacity:6.451600e-02;fill:#FDFEFF;enable-background:new    ;}
	.st6{opacity:9.677400e-02;fill:#FAFBFC;enable-background:new    ;}
	.st7{opacity:0.129;fill:#F7F8F8;enable-background:new    ;}
	.st8{opacity:0.1613;fill:#F7F8F8;enable-background:new    ;}
	.st9{opacity:0.1935;fill:#F5F6F6;enable-background:new    ;}
	.st10{opacity:0.2258;fill:#F3F3F3;enable-background:new    ;}
	.st11{opacity:0.2581;fill:#F3F3F3;enable-background:new    ;}
	.st12{opacity:0.2903;fill:#F1F0F0;enable-background:new    ;}
	.st13{opacity:0.3226;fill:#F0EFEF;enable-background:new    ;}
	.st14{opacity:0.3548;fill:#EDEDEE;enable-background:new    ;}
	.st15{opacity:0.3871;fill:#EBEBEB;enable-background:new    ;}
	.st16{opacity:0.4194;fill:#EAEAEA;enable-background:new    ;}
	.st17{opacity:0.4516;fill:#E9E8E8;enable-background:new    ;}
	.st18{opacity:0.4839;fill:#E6E6E5;enable-background:new    ;}
	.st19{opacity:0.5161;fill:#E5E5E5;enable-background:new    ;}
	.st20{opacity:0.5484;fill:#E3E3E3;enable-background:new    ;}
	.st21{opacity:0.5806;fill:#E1E2E1;enable-background:new    ;}
	.st22{opacity:0.6129;fill:#E0E1E0;enable-background:new    ;}
	.st23{opacity:0.6452;fill:#DFDFDE;enable-background:new    ;}
	.st24{opacity:0.6774;fill:#DCDCDC;enable-background:new    ;}
	.st25{opacity:0.7097;fill:#DCDBDB;enable-background:new    ;}
	.st26{opacity:0.7419;fill:#D9D9D8;enable-background:new    ;}
	.st27{opacity:0.7742;fill:#D8D9D8;enable-background:new    ;}
	.st28{opacity:0.8065;fill:#D7D6D6;enable-background:new    ;}
	.st29{opacity:0.8387;fill:#D4D4D4;enable-background:new    ;}
	.st30{opacity:0.871;fill:#D3D3D3;enable-background:new    ;}
	.st31{opacity:0.9032;fill:#D2D2D2;enable-background:new    ;}
	.st32{opacity:0.9355;fill:#CFD0D0;enable-background:new    ;}
	.st33{opacity:0.9677;fill:#CFCFCE;enable-background:new    ;}
	.st34{fill:#CCCCCC;}
	.st35{fill:url(#SVGID_3_);}
	.st36{fill:#FFFFFF;}
	.st37{fill:url(#SVGID_4_);}
	.st38{fill:url(#SVGID_5_);}
	.st39{fill:url(#SVGID_6_);}
	.st40{fill:url(#SVGID_7_);}
	.st41{fill:url(#SVGID_8_);}
	.st42{fill:url(#SVGID_9_);}
	.st43{fill:url(#SVGID_10_);}
	.st44{fill:url(#SVGID_11_);}
</style>
<rect y="-7" class="st0" width="1960" height="1219.1"/>
<g>
	<defs>
		<rect id="SVGID_1_" y="-7" width="1960" height="1219.1"/>
	</defs>
	<clipPath id="SVGID_2_">
		<use xlink:href="#SVGID_1_"  style="overflow:visible;"/>
	</clipPath>
	<g class="st1">
		<g class="st2">
			<path class="st3" d="M312.2,1107.6c-22.6-360.8,297.3-669,646.4-680.1c376.1-12,695.5,301.1,689.3,678.4
				c-5.7,343.8-282.4,633.7-625.1,655.5c-174.5,11.1-350.1-47.8-481.9-162.9C437.9,1508.7,259.3,1261.1,312.2,1107.6z
				 M1815.6,1434.1c175.7-433.5-19.8-944-441.4-1150.4C913,57.9,337.4,279.7,144.4,755.6c-175.5,432.6,19.5,945.3,441.4,1150.4
				C1047.6,2130.5,1622.1,1911.1,1815.6,1434.1z"/>
			<path class="st4" d="M312,1088.4C289.4,727.9,609,420.1,957.7,409c375.7-11.9,694.7,300.8,688.5,677.7
				c-5.7,343.5-282.1,633-624.4,654.7c-174.3,11.1-349.7-47.8-481.4-162.7C437.5,1489,259.2,1241.7,312,1088.4z M1813.8,1414.5
				c175.5-433-19.8-942.9-440.9-1149.1c-460.6-225.5-1035.6-4-1228.5,471.4c-175.3,432.1,19.4,944.3,440.9,1149.1
				C1046.6,2110.1,1620.4,1891,1813.8,1414.5z"/>
			<path class="st5" d="M311.8,1069.1c-22.5-360,296.7-667.5,645-678.6c375.3-11.9,694,300.4,687.7,676.9
				c-5.7,343.1-281.7,632.3-623.7,654c-174.1,11.1-349.3-47.7-480.8-162.5C437.2,1469.3,259.1,1222.2,311.8,1069.1z M1811.9,1394.9
				C1987.3,962.3,1792.1,453,1371.5,247C911.4,21.7,337,243,144.4,717.9c-175.1,431.6,19.4,943.2,440.4,1147.9
				C1045.6,2089.7,1618.8,1870.8,1811.9,1394.9z"/>
			<path class="st6" d="M311.6,1049.8C289.1,690.2,608,383.1,955.9,372c374.9-11.9,693.2,300.1,687,676.2
				c-5.7,342.7-281.4,631.6-623,653.3c-173.9,11.1-348.9-47.7-480.3-162.3C436.9,1449.6,259,1202.8,311.6,1049.8z M1810.1,1375.2
				c175.2-432.1-19.8-940.8-439.9-1146.6C910.5,3.6,336.8,224.7,144.4,699c-174.9,431.1,19.4,942.2,439.9,1146.6
				C1044.6,2069.3,1617.2,1850.7,1810.1,1375.2z"/>
			<path class="st7" d="M311.4,1030.6c-22.5-359.2,296-666,643.6-677.1c374.5-11.9,692.4,299.8,686.2,675.4
				c-5.7,342.3-281.1,630.9-622.3,652.6c-173.7,11-348.5-47.6-479.8-162.1C436.6,1429.9,258.8,1183.4,311.4,1030.6z M1808.2,1355.6
				c175-431.6-19.7-939.8-439.5-1145.3c-459-224.8-1032.1-3.9-1224.3,469.8c-174.7,430.7,19.4,941.2,439.5,1145.3
				C1043.6,2048.9,1615.5,1830.5,1808.2,1355.6z"/>
			<path class="st8" d="M311.2,1011.3C288.8,652.5,606.9,346.1,954.1,335c374-11.9,691.7,299.4,685.4,674.7
				c-5.7,341.9-280.8,630.2-621.7,651.8c-173.5,11-348.1-47.6-479.2-162C436.2,1410.2,258.7,1164,311.2,1011.3z M1806.4,1336
				c174.8-431.1-19.7-938.8-439-1144c-458.6-224.5-1031-3.9-1223,469.3c-174.5,430.2,19.4,940.1,439,1144
				C1042.6,2028.6,1613.9,1810.4,1806.4,1336z"/>
			<path class="st9" d="M311.1,992.1c-22.4-358.4,295.4-664.5,642.2-675.5c373.6-11.9,690.9,299.1,684.7,673.9
				c-5.7,341.6-280.5,629.5-621,651.1c-173.3,11-347.8-47.5-478.7-161.8C435.9,1390.5,258.6,1144.5,311.1,992.1z M1804.5,1316.4
				c174.6-430.6-19.7-937.7-438.5-1142.8C908-50.7,336.1,169.7,144.4,642.4c-174.3,429.7,19.3,939.1,438.5,1142.8
				C1041.6,2008.2,1612.3,1790.3,1804.5,1316.4z"/>
			<path class="st10" d="M310.9,972.8c-22.4-358,295-663.8,641.4-674.8c373.2-11.9,690.1,298.8,683.9,673.2
				c-5.7,341.2-280.2,628.8-620.3,650.4c-173.2,11-347.4-47.5-478.2-161.6C435.6,1370.9,258.5,1125.1,310.9,972.8z M1802.7,1296.8
				c174.4-430.1-19.7-936.7-438-1141.5c-457.6-224.1-1028.8-4-1220.3,468.2c-174.1,429.2,19.3,938,438,1141.5
				C1040.6,1987.8,1610.6,1770.1,1802.7,1296.8z"/>
			<path class="st11" d="M310.7,953.6c-22.4-357.6,294.7-663,640.7-674c372.8-11.8,689.4,298.4,683.2,672.4
				c-5.6,340.8-279.9,628.1-619.6,649.7c-173,11-347-47.4-477.7-161.4C435.3,1351.2,258.3,1105.7,310.7,953.6z M1800.8,1277.2
				C1975,847.5,1781.1,341.6,1363.3,137c-457-223.9-1027.6-4-1218.9,467.7c-173.9,428.7,19.3,937,437.5,1140.2
				C1039.6,1967.4,1609,1750,1800.8,1277.2z"/>
			<path class="st12" d="M310.5,934.3C288.2,577.1,604.9,272,950.5,261c372.4-11.8,688.6,298.1,682.4,671.7
				c-5.6,340.4-279.6,627.4-618.9,648.9c-172.8,11-346.6-47.3-477.1-161.2C435,1331.5,258.2,1086.3,310.5,934.3z M1799,1257.6
				c174-429.2-19.6-934.6-437-1139C905.4-105,335.5,114.7,144.4,585.8c-173.7,428.3,19.3,935.9,437,1139
				C1038.6,1947,1607.4,1729.8,1799,1257.6z"/>
			<path class="st13" d="M310.3,915.1C288,558.2,604.4,253.5,949.6,242.5c372-11.8,687.8,297.8,681.6,670.9
				c-5.6,340-279.3,626.7-618.2,648.2c-172.6,11-346.2-47.3-476.6-161.1C434.6,1311.8,258.1,1066.8,310.3,915.1z M1797.2,1237.9
				c173.8-428.7-19.6-933.5-436.5-1137.7C904.6-123.1,335.3,96.3,144.4,567c-173.6,427.8,19.3,934.9,436.5,1137.7
				C1037.6,1926.6,1605.8,1709.7,1797.2,1237.9z"/>
			<path class="st14" d="M310.1,895.8C287.8,539.4,603.9,235,948.7,224c371.6-11.8,687.1,297.4,680.9,670.2
				c-5.6,339.7-278.9,626-617.5,647.5c-172.4,11-345.8-47.2-476.1-160.9C434.3,1292.1,258,1047.4,310.1,895.8z M1795.3,1218.3
				c173.6-428.2-19.6-932.5-436-1136.4C903.7-141.2,335.1,78,144.4,548.1c-173.4,427.3,19.2,933.8,436,1136.4
				C1036.6,1906.2,1604.1,1689.6,1795.3,1218.3z"/>
			<path class="st15" d="M310,876.6c-22.3-356,293.4-660.1,637.9-671C1319,193.8,1634.2,502.7,1628,875
				c-5.6,339.3-278.6,625.3-616.8,646.8c-172.2,10.9-345.4-47.2-475.5-160.7C434,1272.4,257.8,1028,310,876.6z M1793.5,1198.7
				c173.4-427.7-19.6-931.5-435.6-1135.2c-455-222.8-1023-3.9-1213.5,465.7C-28.8,956.1,163.6,1462,579.9,1664.4
				C1035.6,1885.9,1602.5,1669.4,1793.5,1198.7z"/>
			<path class="st16" d="M309.8,857.3C287.5,501.7,602.9,198,946.9,187c370.7-11.8,685.5,296.8,679.4,668.7
				c-5.6,338.9-278.3,624.6-616.1,646.1c-172,10.9-345-47.1-475-160.5C433.7,1252.7,257.7,1008.6,309.8,857.3z M1791.6,1179.1
				c173.2-427.3-19.5-930.4-435.1-1133.9C902-177.3,334.7,41.3,144.4,510.4c-173,426.4,19.2,931.8,435.1,1133.9
				C1034.7,1865.5,1600.9,1649.3,1791.6,1179.1z"/>
			<path class="st17" d="M309.6,838.1C287.4,482.8,602.3,179.4,946,168.5c370.3-11.8,684.7,296.4,678.6,667.9
				c-5.6,338.5-278,623.9-615.4,645.3c-171.8,10.9-344.7-47.1-474.5-160.3C433.3,1233,257.6,989.2,309.6,838.1z M1789.8,1159.5
				c173-426.8-19.5-929.4-434.6-1132.6C901.2-195.4,334.5,23,144.4,491.5C-28.4,917.4,163.5,1422.2,579,1624.1
				C1033.7,1845.1,1599.2,1629.1,1789.8,1159.5z"/>
			<path class="st18" d="M309.4,818.8C287.2,464,601.8,160.9,945.1,150c369.9-11.8,684,296.1,677.8,667.2
				c-5.6,338.1-277.7,623.2-614.8,644.6c-171.6,10.9-344.3-47-473.9-160.2C433,1213.3,257.5,969.7,309.4,818.8z M1787.9,1139.9
				c172.8-426.3-19.5-928.3-434.1-1131.3c-453.5-222.1-1019.6-4-1209.4,464C-28.2,898,163.5,1402.3,578.5,1604
				C1032.7,1824.7,1597.6,1609,1787.9,1139.9z"/>
			<path class="st19" d="M309.2,799.5c-22.2-354.4,292.1-657.1,635-668c369.5-11.7,683.2,295.8,677.1,666.4
				c-5.6,337.8-277.4,622.5-614.1,643.9c-171.4,10.9-343.9-47-473.4-160C432.7,1193.6,257.3,950.3,309.2,799.5z M1786.1,1120.3
				C1958.7,694.4,1766.6,193,1352.5-9.8C899.5-231.6,334-13.7,144.4,453.8C-28,878.7,163.5,1382.4,578,1583.8
				C1031.7,1804.3,1596,1588.9,1786.1,1120.3z"/>
			<path class="st20" d="M309,780.3c-22.2-354,291.8-656.4,634.3-667.3c369.1-11.7,682.4,295.4,676.3,665.7
				c-5.6,337.4-277.1,621.8-613.4,643.2c-171.2,10.9-343.5-46.9-472.9-159.8C432.4,1173.9,257.2,930.9,309,780.3z M1784.2,1100.6
				c172.4-425.4-19.5-926.2-433.1-1128.8C898.6-249.7,333.8-32,144.4,434.9c-172.2,424.4,19.1,927.6,433.1,1128.8
				C1030.7,1783.9,1594.3,1568.7,1784.2,1100.6z"/>
			<path class="st21" d="M308.9,761C286.7,407.4,600.3,105.4,942.4,94.5c368.6-11.7,681.7,295.1,675.5,664.9
				c-5.6,337-276.8,621.1-612.7,642.4c-171,10.9-343.1-46.9-472.3-159.6C432.1,1154.2,257.1,911.5,308.9,761z M1782.4,1081
				c172.2-424.9-19.4-925.2-432.6-1127.5C897.8-267.8,333.6-50.4,144.4,416c-172,424,19.1,926.5,432.6,1127.5
				C1029.7,1763.6,1592.7,1548.6,1782.4,1081z"/>
			<path class="st22" d="M308.7,741.8C286.6,388.6,599.8,86.9,941.5,76c368.2-11.7,680.9,294.8,674.8,664.2
				c-5.6,336.6-276.4,620.4-612,641.7c-170.8,10.9-342.7-46.8-471.8-159.4C431.7,1134.5,257,892,308.7,741.8z M1780.6,1061.4
				c172-424.4-19.4-924.2-432.1-1126.3c-451.5-221.1-1015-3.9-1204,462c-171.8,423.5,19.1,925.5,432.1,1126.3
				C1028.7,1743.2,1591.1,1528.4,1780.6,1061.4z"/>
			<path class="st23" d="M308.5,722.5c-22.1-352.8,290.8-654.2,632.2-665c367.8-11.7,680.1,294.5,674,663.4
				c-5.6,336.2-276.1,619.7-611.3,641c-170.6,10.9-342.3-46.8-471.3-159.3C431.4,1114.8,256.8,872.6,308.5,722.5z M1778.7,1041.8
				c171.9-423.9-19.4-923.1-431.7-1125C896.1-304,333.2-87.1,144.4,378.3c-171.6,423,19,924.4,431.7,1125
				C1027.7,1722.8,1589.5,1508.3,1778.7,1041.8z"/>
			<path class="st24" d="M308.3,703.3C286.2,350.8,598.8,49.8,939.8,39c367.4-11.7,679.4,294.1,673.3,662.7
				c-5.6,335.9-275.8,619-610.6,640.3c-170.5,10.8-342-46.7-470.7-159.1C431.1,1095.1,256.7,853.2,308.3,703.3z M1776.9,1022.2
				c171.7-423.4-19.4-922.1-431.2-1123.7C895.3-322.1,333-105.4,144.4,359.4C-27,782,163.4,1282.8,575.6,1483.1
				C1026.7,1702.4,1587.8,1488.1,1776.9,1022.2z"/>
			<path class="st25" d="M308.1,684c-22-352,290.1-652.7,630.7-663.5c367-11.7,678.6,293.8,672.5,661.9
				c-5.6,335.5-275.5,618.3-609.9,639.5c-170.3,10.8-341.6-46.7-470.2-158.9C430.8,1075.4,256.6,833.8,308.1,684z M1775,1002.6
				c171.5-423-19.3-921-430.7-1122.4C894.4-340.2,332.8-123.7,144.4,340.6c-171.2,422,19,922.4,430.7,1122.4
				C1025.7,1682,1586.2,1468,1775,1002.6z"/>
			<path class="st26" d="M307.9,664.8C285.9,313.1,597.7,12.8,938,2c366.6-11.7,677.8,293.5,671.7,661.2
				c-5.6,335.1-275.2,617.6-609.2,638.8c-170.1,10.8-341.2-46.6-469.7-158.7C430.4,1055.7,256.5,814.3,307.9,664.8z M1773.2,982.9
				c171.3-422.5-19.3-920-430.2-1121.2c-449.4-220-1010.4-3.8-1198.6,460c-171,421.6,19,921.3,430.2,1121.2
				C1024.7,1661.6,1584.6,1447.9,1773.2,982.9z"/>
			<path class="st27" d="M307.8,645.5c-22-351.2,289.5-651.2,629.3-662c366.1-11.6,677.1,293.1,671,660.4
				c-5.5,334.7-274.9,616.9-608.5,638.1c-169.9,10.8-340.8-46.6-469.1-158.5C430.1,1036,256.3,794.9,307.8,645.5z M1771.3,963.3
				c171.1-422-19.3-918.9-429.7-1119.9C892.7-376.4,332.3-160.4,144.4,302.8c-170.8,421.1,19,920.3,429.7,1119.9
				C1023.7,1641.3,1582.9,1427.7,1771.3,963.3z"/>
			<path class="st28" d="M307.6,626.3C285.6,275.4,596.7-24.2,936.2-35c365.7-11.6,676.3,292.8,670.2,659.7
				c-5.5,334.3-274.6,616.2-607.8,637.4c-169.7,10.8-340.4-46.5-468.6-158.4C429.8,1016.3,256.2,775.5,307.6,626.3z M1769.5,943.7
				c170.9-421.5-19.3-917.9-429.2-1118.6C891.9-394.5,332.1-178.8,144.4,284c-170.6,420.6,18.9,919.2,429.2,1118.6
				C1022.7,1620.9,1581.3,1407.6,1769.5,943.7z"/>
			<path class="st29" d="M307.4,607C285.5,256.6,596.2-42.7,935.3-53.5c365.3-11.6,675.5,292.5,669.5,658.9
				c-5.5,334-274.3,615.5-607.2,636.6c-169.5,10.8-340-46.4-468.1-158.2C429.5,996.6,256.1,756.1,307.4,607z M1767.6,924.1
				c170.7-421-19.3-916.9-428.7-1117.4C891-412.6,331.9-197.1,144.4,265.1C-26,685.3,163.3,1183.3,573.1,1382.5
				C1021.7,1600.5,1579.7,1387.4,1767.6,924.1z"/>
			<path class="st30" d="M307.2,587.8c-21.9-350,288.5-649,627.2-659.8c364.9-11.6,674.8,292.1,668.7,658.2
				c-5.5,333.6-273.9,614.8-606.5,635.9c-169.3,10.8-339.6-46.4-467.5-158C429.2,976.9,256,736.7,307.2,587.8z M1765.8,904.5
				c170.5-420.6-19.2-915.8-428.2-1116.1C890.2-430.7,331.7-215.4,144.4,246.3C-25.9,666,163.3,1163.4,572.6,1362.4
				C1020.7,1580.1,1578,1367.3,1765.8,904.5z"/>
			<path class="st31" d="M307,568.5c-21.9-349.6,288.1-648.3,626.4-659c364.5-11.6,674,291.8,667.9,657.4
				c-5.5,333.2-273.6,614.1-605.8,635.2c-169.1,10.8-339.2-46.3-467-157.8C428.8,957.2,255.8,717.2,307,568.5z M1763.9,884.9
				c170.3-420.1-19.2-914.8-427.8-1114.8C889.3-448.7,331.5-233.8,144.4,227.4c-170.1,419.2,18.9,916.1,427.8,1114.8
				C1019.7,1559.7,1576.4,1347.2,1763.9,884.9z"/>
			<path class="st32" d="M306.8,549.2C285,200,594.7-98.3,932.6-109c364.1-11.6,673.2,291.5,667.2,656.7
				c-5.5,332.8-273.3,613.4-605.1,634.5c-168.9,10.7-338.9-46.3-466.5-157.6C428.5,937.5,255.7,697.8,306.8,549.2z M1762.1,865.3
				c170.1-419.6-19.2-913.7-427.3-1113.5C888.5-466.8,331.3-252.1,144.4,208.5c-169.9,418.7,18.8,915,427.3,1113.5
				C1018.7,1539.3,1574.8,1327,1762.1,865.3z"/>
			<path class="st33" d="M306.7,530c-21.8-348.8,287.5-646.8,625-657.5c363.7-11.6,672.5,291.1,666.4,655.9
				c-5.5,332.4-273,612.7-604.4,633.7c-168.7,10.7-338.5-46.2-465.9-157.5C428.2,917.8,255.6,678.4,306.7,530z M1760.3,845.6
				c169.9-419.1-19.2-912.7-426.8-1112.3C887.6-484.9,331.1-270.5,144.4,189.7c-169.7,418.2,18.8,914,426.8,1112.3
				C1017.7,1519,1573.1,1306.9,1760.3,845.6z"/>
			<path class="st34" d="M306.5,510.7c-21.8-348.4,287.2-646,624.3-656.8c363.2-11.5,671.7,290.8,665.6,655.2
				c-5.5,332.1-272.7,612-603.7,633c-168.5,10.7-338.1-46.2-465.4-157.3C427.9,898.1,255.5,659,306.5,510.7z M1758.4,826
				c169.7-418.6-19.2-911.6-426.3-1111C886.8-503,330.9-288.8,144.4,170.8c-169.5,417.7,18.8,913,426.3,1111
				C1016.7,1498.6,1571.5,1286.7,1758.4,826z"/>
		</g>
		<g>
			
				<linearGradient id="SVGID_3_" gradientUnits="userSpaceOnUse" x1="-2472.168" y1="3586.134" x2="-643.3508" y2="1757.3171" gradientTransform="matrix(0.7071 0.7071 0.7071 -0.7071 163.9288 3660.3811)">
				<stop  offset="0" style="stop-color:#9A4599"/>
				<stop  offset="9.081334e-02" style="stop-color:#8C4599"/>
				<stop  offset="0.3305" style="stop-color:#6E449A"/>
				<stop  offset="0.5656" style="stop-color:#59439A"/>
				<stop  offset="0.792" style="stop-color:#4B439A"/>
				<stop  offset="1" style="stop-color:#47439A"/>
			</linearGradient>
			<path class="st35" d="M1758.6,826.2c169.7-418.6-19.2-911.6-426.3-1111C887-502.8,331.1-288.6,144.6,171
				c-169.5,417.7,18.8,913,426.3,1111C1016.9,1498.8,1571.7,1286.9,1758.6,826.2z M306.7,510.9c-21.8-348.4,287.2-646,624.3-656.8
				c363.2-11.5,671.7,290.8,665.6,655.2c-5.5,332.1-272.7,612-603.7,633C824.4,1153,654.8,1096.1,527.5,985
				C428.1,898.3,255.6,659.1,306.7,510.9z"/>
			<path class="st36" d="M1408,980.5c-251.6,251.6-661.1,251.6-912.7,0c-123.1-123.1-186-283.9-188.6-445.6
				c-0.1-7.9-0.1-15.8,0-23.7c3.1,161.1,65.9,321.2,188.6,443.8c251.6,251.6,661.1,251.6,912.7,0
				c122.6-122.6,185.5-282.8,188.6-443.9c0.1,7.9,0.2,15.8,0,23.7C1593.9,696.5,1531.1,857.4,1408,980.5z"/>
			<linearGradient id="SVGID_4_" gradientUnits="userSpaceOnUse" x1="80.8" y1="68.5" x2="1822.4" y2="68.5">
				<stop  offset="0" style="stop-color:#9A4599"/>
				<stop  offset="9.081334e-02" style="stop-color:#8C4599"/>
				<stop  offset="0.3305" style="stop-color:#6E449A"/>
				<stop  offset="0.5656" style="stop-color:#59439A"/>
				<stop  offset="0.792" style="stop-color:#4B439A"/>
				<stop  offset="1" style="stop-color:#47439A"/>
			</linearGradient>
			<path class="st37" d="M1822.3,509.2c-1.4-109.2-22.8-215.7-63.7-316.7c-43.8-108.1-108.2-205-191.3-288.1
				c-83.1-83.1-180-147.4-288.1-191.3c-104.3-42.3-214.6-63.8-327.6-63.8c-113.1,0-223.3,21.5-327.6,63.8
				C515.9-243.1,419-178.7,335.9-95.6s-147.4,180-191.3,288.1c-41,101-62.4,207.5-63.7,316.7c0-3.5-0.1-7-0.1-10.6
				c0-113.1,21.5-223.3,63.8-327.6C188.4,62.9,252.8-34,335.9-117.1s180-147.4,288.1-191.3c104.4-42.3,214.6-63.8,327.6-63.8
				s223.3,21.5,327.6,63.8c108.1,43.8,205,108.2,288.1,191.3s147.4,180,191.3,288.1c42.3,104.3,63.8,214.6,63.8,327.6
				C1822.4,502.1,1822.4,505.7,1822.3,509.2z"/>
		</g>
	</g>
	<g class="st1">
		<g class="st2">
			<path class="st3" d="M386.5,1074.6c-20-319.8,263.5-592.9,572.9-602.7c333.3-10.6,616.4,266.8,610.8,601.2
				c-5.1,304.7-250.2,561.6-554,580.9c-154.7,9.8-310.2-42.4-427.1-144.3C497.9,1430.1,339.7,1210.6,386.5,1074.6z M1718.9,1363.9
				c155.7-384.2-17.6-836.6-391.2-1019.5C919,144.3,408.9,340.9,237.8,762.7C82.3,1146,255,1600.4,629,1782.2
				C1038.3,1981.1,1547.4,1786.7,1718.9,1363.9z"/>
			<path class="st4" d="M386.3,1057.5c-20-319.4,263.2-592.2,572.3-602c333-10.6,615.7,266.6,610.2,600.6
				c-5,304.4-250,561-553.4,580.3c-154.5,9.8-309.9-42.3-426.6-144.2C497.6,1412.6,339.6,1193.4,386.3,1057.5z M1717.3,1346.6
				c155.6-383.8-17.6-835.7-390.8-1018.4C918.3,128.3,408.7,324.7,237.8,746C82.4,1128.9,255,1582.8,628.5,1764.3
				C1037.4,1963,1545.9,1768.9,1717.3,1346.6z"/>
			<path class="st5" d="M386.2,1040.5c-20-319.1,262.9-591.5,571.6-601.4c332.6-10.6,615,266.3,609.5,599.9
				c-5,304-249.7,560.3-552.8,579.6c-154.3,9.8-309.6-42.3-426.1-144C497.3,1395.2,339.5,1176.2,386.2,1040.5z M1715.6,1329.2
				c155.4-383.3-17.5-834.7-390.3-1017.3c-407.8-199.7-916.8-3.5-1087.5,417.3C82.6,1111.7,255,1565.1,628.1,1746.5
				C1036.5,1945,1544.5,1751,1715.6,1329.2z"/>
			<path class="st6" d="M386,1023.4c-19.9-318.7,262.6-590.9,571-600.7c332.2-10.6,614.3,266,608.8,599.2
				c-5,303.7-249.4,559.7-552.2,579c-154.1,9.8-309.2-42.2-425.7-143.9C497,1377.7,339.3,1159,386,1023.4z M1714,1311.8
				c155.2-382.9-17.5-833.8-389.9-1016.1C916.8,96.2,408.3,292.2,237.8,712.5c-155,382.1,17.2,835,389.9,1016.1
				C1035.6,1926.9,1543,1733.2,1714,1311.8z"/>
			<path class="st7" d="M385.9,1006.4c-19.9-318.3,262.4-590.2,570.4-600c331.9-10.5,613.7,265.7,608.1,598.6
				c-5,303.4-249.1,559.1-551.5,578.3c-154,9.8-308.9-42.2-425.2-143.7C496.8,1360.3,339.2,1141.8,385.9,1006.4z M1712.4,1294.4
				c155.1-382.5-17.5-832.9-389.5-1015C916,80.2,408.1,275.9,237.8,695.8C83,1077.4,255,1529.9,627.3,1710.8
				C1034.7,1908.9,1541.6,1715.3,1712.4,1294.4z"/>
			<path class="st8" d="M385.7,989.3c-19.9-318,262.1-589.6,569.7-599.4c331.5-10.5,613,265.4,607.5,597.9
				c-5,303-248.9,558.5-550.9,577.7c-153.8,9.8-308.5-42.1-424.7-143.5C496.5,1342.8,339.1,1124.6,385.7,989.3z M1710.7,1277
				c154.9-382.1-17.5-832-389-1013.9C915.3,64.1,408,259.6,237.8,679c-154.7,381.3,17.2,833.2,389,1014
				C1033.9,1890.8,1540.2,1697.5,1710.7,1277z"/>
			<path class="st9" d="M385.5,972.2c-19.9-317.6,261.8-588.9,569.1-598.7c331.1-10.5,612.3,265.1,606.8,597.3
				c-5,302.7-248.6,557.9-550.3,577c-153.6,9.8-308.2-42.1-424.3-143.4C496.2,1325.4,339,1107.3,385.5,972.2z M1709.1,1259.6
				c154.7-381.6-17.5-831-388.6-1012.8C914.5,48,407.8,243.3,237.8,662.3c-154.5,380.8,17.1,832.2,388.6,1012.8
				C1033,1872.7,1538.7,1679.6,1709.1,1259.6z"/>
			<path class="st10" d="M385.4,955.2c-19.9-317.3,261.5-588.3,568.5-598c330.8-10.5,611.6,264.8,606.1,596.6
				c-5,302.4-248.3,557.2-549.7,576.4c-153.5,9.8-307.8-42.1-423.8-143.2C495.9,1307.9,338.9,1090.1,385.4,955.2z M1707.5,1242.3
				C1862,861.1,1690,412.2,1319.3,230.6C913.8,32,407.6,227.1,237.8,645.6C83.5,1026,254.9,1476.9,626,1657.3
				C1032.1,1854.7,1537.3,1661.8,1707.5,1242.3z"/>
			<path class="st11" d="M385.2,938.1C365.4,621.2,646.4,350.5,953,340.7c330.4-10.5,610.9,264.5,605.4,595.9
				c-5,302-248,556.6-549.1,575.8c-153.3,9.7-307.5-42-423.3-143.1C495.6,1290.5,338.8,1072.9,385.2,938.1z M1705.8,1224.9
				c154.4-380.8-17.4-829.2-387.7-1010.5C913,16,407.4,210.9,237.8,628.9c-154.2,380,17.1,830.4,387.7,1010.5
				C1031.2,1836.6,1535.8,1643.9,1705.8,1224.9z"/>
			<path class="st12" d="M385,921c-19.8-316.6,260.9-587,567.2-596.7c330-10.5,610.3,264.2,604.8,595.3
				c-5,301.7-247.8,556-548.5,575.1c-153.1,9.7-307.2-42-422.8-142.9C495.3,1273,338.7,1055.7,385,921z M1704.2,1207.5
				c154.2-380.4-17.4-828.3-387.3-1009.4C912.3,0,407.2,194.6,237.8,612.2c-154,379.5,17.1,829.5,387.3,1009.4
				C1030.3,1818.5,1534.4,1626.1,1704.2,1207.5z"/>
			<path class="st13" d="M384.9,904c-19.8-316.2,260.6-586.3,566.6-596c329.6-10.5,609.6,263.9,604.1,594.6
				c-5,301.4-247.5,555.4-547.9,574.5c-152.9,9.7-306.8-41.9-422.4-142.7C495,1255.5,338.6,1038.5,384.9,904z M1702.6,1190.1
				c154-379.9-17.4-827.3-386.9-1008.3C911.5-16,407,178.4,237.8,595.5C84,974.6,254.9,1424,624.7,1603.7
				C1029.4,1800.5,1532.9,1608.2,1702.6,1190.1z"/>
			<path class="st14" d="M384.7,886.9C364.9,571,645,301.3,950.6,291.6c329.3-10.5,608.9,263.6,603.4,593.9
				c-5,301-247.2,554.8-547.3,573.8c-152.8,9.7-306.5-41.9-421.9-142.6C494.8,1238.1,338.5,1021.3,384.7,886.9z M1700.9,1172.7
				c153.9-379.5-17.4-826.4-386.4-1007.1C910.8-32.1,406.8,162.1,237.8,578.7c-153.6,378.7,17,827.6,386.4,1007.1
				C1028.6,1782.4,1531.5,1590.4,1700.9,1172.7z"/>
			<path class="st15" d="M384.6,869.9c-19.8-315.5,260-585,565.3-594.7c328.9-10.5,608.2,263.3,602.7,593.3
				c-5,300.7-246.9,554.1-546.7,573.2c-152.6,9.7-306.1-41.8-421.4-142.4C494.5,1220.6,338.4,1004.1,384.6,869.9z M1699.3,1155.4
				c153.7-379.1-17.3-825.5-386-1006C910-48.1,406.6,145.9,237.8,562c-153.5,378.3,17,826.7,386,1006
				C1027.7,1764.3,1530,1572.5,1699.3,1155.4z"/>
			<path class="st16" d="M384.4,852.8c-19.7-315.2,259.7-584.3,564.7-594c328.5-10.4,607.5,263,602.1,592.6
				c-5,300.3-246.7,553.5-546,572.6c-152.4,9.7-305.8-41.8-421-142.3C494.2,1203.2,338.2,986.9,384.4,852.8z M1697.6,1138
				c153.5-378.7-17.3-824.6-385.6-1004.9C909.3-64.1,406.5,129.6,237.8,545.3c-153.3,377.8,17,825.7,385.6,1004.9
				C1026.8,1746.3,1528.6,1554.7,1697.6,1138z"/>
			<path class="st17" d="M384.2,835.7c-19.7-314.8,259.4-583.7,564-593.4c328.2-10.4,606.8,262.7,601.4,591.9
				c-5,300-246.4,552.9-545.4,571.9c-152.3,9.7-305.4-41.7-420.5-142.1C493.9,1185.7,338.1,969.6,384.2,835.7z M1696,1120.6
				c153.3-378.2-17.3-823.6-385.1-1003.8c-402.4-197-904.6-3.5-1073.1,411.8C84.7,906,254.8,1353.4,623,1532.3
				C1025.9,1728.2,1527.2,1536.8,1696,1120.6z"/>
			<path class="st18" d="M384.1,818.7c-19.7-314.5,259.2-583,563.4-592.7c327.8-10.4,606.2,262.4,600.7,591.3
				c-5,299.7-246.1,552.3-544.8,571.3c-152.1,9.7-305.1-41.7-420-141.9C493.6,1168.3,338,952.4,384.1,818.7z M1694.4,1103.2
				c153.2-377.8-17.3-822.7-384.7-1002.6C907.8-96.2,406.1,97.1,237.8,511.9c-152.9,377,17,823.9,384.7,1002.6
				C1025,1710.1,1525.7,1519,1694.4,1103.2z"/>
			<path class="st19" d="M383.9,801.6c-19.7-314.1,258.9-582.4,562.8-592c327.4-10.4,605.5,262.1,600,590.6
				c-5,299.3-245.8,551.7-544.2,570.6c-151.9,9.7-304.8-41.6-419.5-141.8C493.3,1150.8,337.9,935.2,383.9,801.6z M1692.7,1085.8
				c153-377.4-17.3-821.8-384.3-1001.5C907-112.3,405.9,80.9,237.8,495.2c-152.8,376.6,16.9,823,384.3,1001.5
				C1024.2,1692.1,1524.3,1501.1,1692.7,1085.8z"/>
			<path class="st20" d="M383.7,784.5c-19.6-313.8,258.6-581.7,562.1-591.4c327.1-10.4,604.8,261.8,599.4,589.9
				c-5,299-245.5,551-543.6,570c-151.7,9.6-304.4-41.6-419.1-141.6C493,1133.3,337.8,918,383.7,784.5z M1691.1,1068.4
				c152.8-377-17.2-820.9-383.8-1000.4c-401-196.4-901.6-3.4-1069.5,410.4c-152.6,376.2,16.9,822,383.8,1000.4
				C1023.3,1674,1522.8,1483.3,1691.1,1068.4z"/>
			<path class="st21" d="M383.6,767.5C364,454.1,641.9,186.4,945.1,176.8c326.7-10.4,604.1,261.5,598.7,589.3
				c-4.9,298.7-245.3,550.4-543,569.3c-151.6,9.6-304.1-41.5-418.6-141.5C492.8,1115.9,337.7,900.8,383.6,767.5z M1689.5,1051.1
				c152.6-376.5-17.2-819.9-383.4-999.3C905.5-144.3,405.5,48.4,237.8,461.7C85.4,837.4,254.7,1282.8,621.2,1461
				C1022.4,1655.9,1521.4,1465.4,1689.5,1051.1z"/>
			<path class="st22" d="M383.4,750.4c-19.6-313,258-580.4,560.9-590c326.3-10.4,603.4,261.2,598,588.6
				c-4.9,298.3-245,549.8-542.4,568.7c-151.4,9.6-303.7-41.5-418.1-141.3C492.5,1098.4,337.6,883.6,383.4,750.4z M1687.8,1033.7
				c152.5-376.1-17.2-819-383-998.1c-400-196-899.5-3.5-1067,409.4c-152.3,375.3,16.9,820.2,383,998.1
				C1021.5,1637.9,1519.9,1447.6,1687.8,1033.7z"/>
			<path class="st23" d="M383.3,733.3C363.7,420.7,640.9,153.6,943.5,144c326-10.4,602.8,261,597.3,588
				c-4.9,298-244.7,549.2-541.8,568.1c-151.2,9.6-303.4-41.4-417.6-141.1C492.2,1081,337.5,866.4,383.3,733.3z M1686.2,1016.3
				c152.3-375.7-17.2-818.1-382.5-997C904-176.4,405.1,15.9,237.8,428.3c-152.1,374.9,16.9,819.3,382.5,997
				C1020.6,1619.8,1518.5,1429.7,1686.2,1016.3z"/>
			<path class="st24" d="M383.1,716.3C363.5,404,640.5,137.2,942.7,127.6c325.6-10.3,602.1,260.7,596.7,587.3
				c-4.9,297.6-244.4,548.6-541.1,567.4c-151.1,9.6-303-41.4-417.2-141C491.9,1063.5,337.4,849.1,383.1,716.3z M1684.6,998.9
				c152.1-375.3-17.2-817.2-382.1-995.9C903.3-192.4,405-0.4,237.8,411.6C85.9,786,254.7,1229.9,619.9,1407.4
				C1019.7,1601.8,1517,1411.9,1684.6,998.9z"/>
			<path class="st25" d="M382.9,699.2c-19.5-312,257.1-578.4,559-588c325.2-10.3,601.4,260.4,596,586.6
				c-4.9,297.3-244.2,547.9-540.5,566.8c-150.9,9.6-302.7-41.3-416.7-140.8C491.6,1046.1,337.2,831.9,382.9,699.2z M1682.9,981.5
				c152-374.8-17.1-816.3-381.7-994.7c-398.7-195.3-896.4-3.4-1063.4,408c-151.7,374,16.8,817.4,381.7,994.7
				C1018.9,1583.7,1515.6,1394,1682.9,981.5z"/>
			<path class="st26" d="M382.8,682.2C363.3,370.5,639.6,104.4,941.1,94.8c324.9-10.3,600.7,260.1,595.3,586
				c-4.9,297-243.9,547.3-539.9,566.1c-150.7,9.6-302.4-41.3-416.2-140.7C491.3,1028.6,337.1,814.7,382.8,682.2z M1681.3,964.1
				c151.8-374.4-17.1-815.3-381.2-993.6c-398.3-195-895.5-3.4-1062.2,407.6c-151.6,373.6,16.8,816.5,381.2,993.6
				C1018,1565.6,1514.1,1376.2,1681.3,964.1z"/>
			<path class="st27" d="M382.6,665.1C363.1,353.8,639.1,88,940.3,78.4c324.5-10.3,600,259.8,594.6,585.3
				c-4.9,296.6-243.6,546.7-539.3,565.5c-150.6,9.6-302-41.3-415.8-140.5C491,1011.2,337,797.5,382.6,665.1z M1679.7,946.8
				c151.6-374-17.1-814.4-380.8-992.5C901-240.5,404.4-49.2,237.8,361.4C86.4,734.6,254.6,1177,618.6,1353.9
				C1017.1,1547.6,1512.7,1358.3,1679.7,946.8z"/>
			<path class="st28" d="M382.4,648C363,337.1,638.7,71.6,939.5,62c324.1-10.3,599.4,259.5,594,584.6
				c-4.9,296.3-243.3,546.1-538.7,564.9c-150.4,9.6-301.7-41.2-415.3-140.3C490.8,993.7,336.9,780.3,382.4,648z M1678,929.4
				c151.4-373.6-17.1-813.5-380.4-991.4C900.3-256.6,404.2-65.4,237.8,344.7c-151.2,372.8,16.8,814.6,380.4,991.4
				C1016.2,1529.5,1511.3,1340.5,1678,929.4z"/>
			<path class="st29" d="M382.3,631C362.8,320.4,638.2,55.1,938.7,45.6c323.8-10.3,598.7,259.2,593.3,584
				c-4.9,296-243.1,545.5-538.1,564.2c-150.2,9.6-301.3-41.2-414.8-140.2C490.5,976.2,336.8,763.1,382.3,631z M1676.4,912
				c151.3-373.1-17.1-812.6-380-990.2C899.5-272.6,404-81.7,237.8,328c-151.1,372.3,16.8,813.7,380,990.2
				C1015.3,1511.4,1509.8,1322.6,1676.4,912z"/>
			<path class="st30" d="M382.1,613.9C362.7,303.7,637.8,38.7,937.9,29.2c323.4-10.3,598,258.9,592.6,583.3
				c-4.9,295.6-242.8,544.8-537.5,563.6c-150,9.5-301-41.1-414.3-140C490.2,958.8,336.7,745.9,382.1,613.9z M1674.8,894.6
				c151.1-372.7-17.1-811.6-379.5-989.1C898.8-288.6,403.8-97.9,237.8,311.3C86.9,683.2,254.6,1124,617.4,1300.4
				C1014.4,1493.4,1508.4,1304.8,1674.8,894.6z"/>
			<path class="st31" d="M382,596.8C362.6,287,637.3,22.3,937.1,12.8c323-10.3,597.3,258.6,591.9,582.6
				c-4.9,295.3-242.5,544.2-536.9,562.9c-149.9,9.5-300.6-41.1-413.9-139.9C489.9,941.3,336.6,728.6,382,596.8z M1673.1,877.2
				c150.9-372.3-17-810.7-379.1-988c-396-193.9-890.4-3.4-1056.2,405.3c-150.7,371.5,16.7,811.9,379.1,988
				C1013.6,1475.3,1506.9,1286.9,1673.1,877.2z"/>
			<path class="st32" d="M381.8,579.8C362.4,270.3,636.9,5.9,936.3-3.6c322.7-10.3,596.6,258.3,591.3,582
				c-4.9,295-242.2,543.6-536.2,562.3c-149.7,9.5-300.3-41-413.4-139.7C489.6,923.9,336.5,711.4,381.8,579.8z M1671.5,859.8
				c150.8-371.9-17-809.8-378.7-986.9c-395.6-193.7-889.4-3.4-1055,404.8c-150.5,371.1,16.7,810.9,378.7,986.9
				C1012.7,1457.2,1505.5,1269.1,1671.5,859.8z"/>
			<path class="st33" d="M381.6,562.7C362.3,253.6,636.4-10.5,935.5-20c322.3-10.2,595.9,258,590.6,581.3
				c-4.9,294.6-242,543-535.6,561.6c-149.5,9.5-300-41-412.9-139.5C489.3,906.4,336.4,694.2,381.6,562.7z M1669.9,842.5
				c150.6-371.4-17-808.9-378.2-985.7c-395.1-193.5-888.4-3.4-1053.8,404.4c-150.4,370.6,16.7,810,378.2,985.7
				C1011.8,1439.2,1504,1251.2,1669.9,842.5z"/>
			<path class="st34" d="M381.5,545.7C362.1,236.8,636-26.9,934.7-36.4c321.9-10.2,595.3,257.7,589.9,580.6
				c-4.9,294.3-241.7,542.3-535,561c-149.4,9.5-299.6-40.9-412.5-139.4C489,889,336.2,677,381.5,545.7z M1668.2,825.1
				c150.4-371-17-807.9-377.8-984.6C895.7-352.8,403-162.9,237.8,244.4C87.6,614.6,254.5,1053.5,615.6,1229
				C1010.9,1421.1,1502.6,1233.4,1668.2,825.1z"/>
		</g>
		<g>
			
				<linearGradient id="SVGID_5_" gradientUnits="userSpaceOnUse" x1="-2355.106" y1="3471.345" x2="-827.6378" y2="1943.8767" gradientTransform="matrix(0.7071 0.7071 0.7071 -0.7071 163.9288 3660.3811)">
				<stop  offset="0" style="stop-color:#9A4599"/>
				<stop  offset="9.081334e-02" style="stop-color:#8C4599"/>
				<stop  offset="0.3305" style="stop-color:#6E449A"/>
				<stop  offset="0.5656" style="stop-color:#59439A"/>
				<stop  offset="0.792" style="stop-color:#4B439A"/>
				<stop  offset="1" style="stop-color:#47439A"/>
			</linearGradient>
			<path class="st38" d="M1668.4,825.2c150.4-371-17-807.9-377.8-984.6C895.9-352.6,403.2-162.8,238,244.5
				c-150.2,370.2,16.7,809.1,377.8,984.6C1011.1,1421.3,1502.8,1233.5,1668.4,825.2z M381.6,545.8C362.3,237,636.1-26.7,934.9-36.2
				c321.9-10.2,595.3,257.7,589.9,580.6c-4.9,294.3-241.7,542.3-535,561c-149.4,9.5-299.6-40.9-412.5-139.4
				C489.2,889.1,336.4,677.2,381.6,545.8z"/>
			<path class="st36" d="M1357.6,961.9c-223,223-585.9,223-808.9,0C439.7,852.8,384,710.3,381.6,567c-0.1-7-0.1-14,0-21
				c2.7,142.8,58.4,284.7,167.1,393.3c223,223,585.9,223,808.9,0c108.7-108.7,164.4-250.6,167.2-393.4c0.1,7,0.1,14,0,21
				C1522.5,710.3,1466.7,852.8,1357.6,961.9z"/>
			<linearGradient id="SVGID_6_" gradientUnits="userSpaceOnUse" x1="181.4" y1="153.8" x2="1724.9" y2="153.8">
				<stop  offset="0" style="stop-color:#9A4599"/>
				<stop  offset="9.081334e-02" style="stop-color:#8C4599"/>
				<stop  offset="0.3305" style="stop-color:#6E449A"/>
				<stop  offset="0.5656" style="stop-color:#59439A"/>
				<stop  offset="0.792" style="stop-color:#4B439A"/>
				<stop  offset="1" style="stop-color:#47439A"/>
			</linearGradient>
			<path class="st39" d="M1724.9,544.3c-1.2-96.8-20.2-191.2-56.5-280.7c-38.8-95.8-95.9-181.7-169.5-255.3
				s-159.5-130.6-255.3-169.5c-92.5-37.5-190.1-56.5-290.3-56.5s-197.9,19-290.4,56.5C567.1-122.4,481.2-65.4,407.5,8.3
				C333.9,81.9,276.8,167.8,238,263.6c-36.3,89.5-55.3,183.8-56.5,280.7c0-3.1-0.1-6.2-0.1-9.4c0-100.2,19-197.9,56.5-290.3
				c38.8-95.8,95.9-181.7,169.5-255.3s159.5-130.7,255.3-169.5c92.5-37.5,190.2-56.5,290.4-56.5s197.9,19,290.3,56.5
				c95.8,38.9,181.7,95.9,255.3,169.5c73.6,73.6,130.7,159.6,169.5,255.4c37.5,92.5,56.5,190.1,56.5,290.3
				C1724.9,538,1724.9,541.1,1724.9,544.3z"/>
		</g>
	</g>
	<g class="st1">
		<g class="st2">
			<path class="st3" d="M460.4,1041.8c-17.5-279,229.9-517.2,499.8-525.8c290.8-9.2,537.7,232.8,532.9,524.5
				c-4.4,265.8-218.3,489.9-483.3,506.8c-134.9,8.6-270.7-37-372.6-125.9C557.6,1352,419.5,1160.5,460.4,1041.8z M1622.8,1294.2
				c135.9-335.2-15.3-729.9-341.3-889.5c-356.5-174.5-801.6-3-950.9,365c-135.7,334.4,15.1,730.9,341.3,889.5
				C1029,1832.7,1473.2,1663.1,1622.8,1294.2z"/>
			<path class="st4" d="M460.3,1026.9c-17.4-278.7,229.6-516.6,499.3-525.2c290.5-9.2,537.1,232.5,532.3,524
				c-4.4,265.5-218.1,489.4-482.8,506.2c-134.8,8.6-270.4-36.9-372.2-125.8C557.3,1336.7,419.4,1145.5,460.3,1026.9z M1621.4,1279.1
				c135.7-334.8-15.3-729-340.9-888.5c-356.1-174.4-800.7-3.1-949.8,364.5c-135.5,334.1,15,730.1,340.9,888.5
				C1028.2,1816.9,1471.9,1647.5,1621.4,1279.1z"/>
			<path class="st5" d="M460.1,1012.1C442.7,733.7,689.5,496,958.8,487.4c290.2-9.2,536.6,232.3,531.7,523.4
				c-4.4,265.3-217.8,488.9-482.2,505.7c-134.6,8.6-270.1-36.9-371.8-125.6C557.1,1321.5,419.3,1130.4,460.1,1012.1z M1619.9,1263.9
				c135.6-334.4-15.3-728.2-340.5-887.5c-355.7-174.2-799.8-3.1-948.8,364.1c-135.4,333.7,15,729.3,340.5,887.5
				C1027.5,1801.1,1470.6,1631.9,1619.9,1263.9z"/>
			<path class="st6" d="M460,997.2c-17.4-278,229.1-515.5,498.1-524.1c289.8-9.2,536,232,531.1,522.8
				c-4.4,265-217.6,488.3-481.7,505.1c-134.5,8.6-269.8-36.9-371.4-125.5C556.8,1306.3,419.3,1115.4,460,997.2z M1618.5,1248.7
				c135.4-334-15.3-727.4-340.1-886.5c-355.4-174-798.9-3.1-947.7,363.7c-135.2,333.3,15,728.5,340.1,886.5
				C1026.7,1785.4,1469.4,1616.4,1618.5,1248.7z"/>
			<path class="st7" d="M459.8,982.3c-17.4-277.7,228.9-514.9,497.6-523.5c289.5-9.2,535.4,231.8,530.5,522.2
				c-4.4,264.7-217.4,487.8-481.2,504.5c-134.3,8.5-269.5-36.8-371-125.4C556.6,1291,419.2,1100.4,459.8,982.3z M1617.1,1233.6
				c135.3-333.7-15.3-726.6-339.8-885.5c-355-173.8-798.1-3-946.7,363.3c-135.1,333,15,727.7,339.8,885.5
				C1025.9,1769.6,1468.1,1600.8,1617.1,1233.6z"/>
			<path class="st8" d="M459.7,967.4C442.3,690,688.3,453,956.7,444.5c289.2-9.2,534.8,231.5,530,521.6
				c-4.4,264.4-217.1,487.2-480.6,504c-134.2,8.5-269.2-36.8-370.5-125.2C556.3,1275.8,419.1,1085.4,459.7,967.4z M1615.7,1218.4
				c135.1-333.3-15.2-725.8-339.4-884.5c-354.6-173.6-797.2-3-945.6,362.9c-134.9,332.6,15,726.9,339.4,884.5
				C1025.2,1753.9,1466.9,1585.2,1615.7,1218.4z"/>
			<path class="st9" d="M459.5,952.5C442.2,675.4,687.9,438.7,956,430.2c288.9-9.2,534.2,231.3,529.4,521.1
				c-4.4,264.1-216.9,486.7-480.1,503.4c-134,8.5-268.9-36.7-370.1-125.1C556.1,1260.6,419,1070.4,459.5,952.5z M1614.2,1203.3
				c135-332.9-15.2-725-339-883.6c-354.2-173.4-796.3-3-944.6,362.5c-134.8,332.2,15,726,339,883.6
				C1024.4,1738.1,1465.6,1569.6,1614.2,1203.3z"/>
			<path class="st10" d="M459.4,937.6c-17.3-276.8,228.1-513.2,495.9-521.7c288.6-9.2,533.6,231,528.8,520.5
				c-4.4,263.8-216.6,486.1-479.6,502.9c-133.9,8.5-268.6-36.7-369.7-124.9C555.8,1245.4,418.9,1055.4,459.4,937.6z M1612.8,1188.1
				c134.8-332.6-15.2-724.2-338.6-882.6c-353.8-173.2-795.4-3-943.5,362.1c-134.6,331.9,14.9,725.2,338.6,882.6
				C1023.6,1722.3,1464.3,1554.1,1612.8,1188.1z"/>
			<path class="st11" d="M459.3,922.7C442,646.2,687.1,410.1,954.6,401.6c288.2-9.2,533,230.7,528.2,519.9
				c-4.4,263.5-216.4,485.6-479,502.3c-133.7,8.5-268.3-36.6-369.3-124.8C555.6,1230.1,418.8,1040.3,459.3,922.7z M1611.4,1172.9
				c134.7-332.2-15.2-723.4-338.3-881.6c-353.4-173-794.5-3-942.5,361.6c-134.5,331.5,14.9,724.4,338.3,881.6
				C1022.8,1706.6,1463.1,1538.5,1611.4,1172.9z"/>
			<path class="st12" d="M459.1,907.8c-17.3-276.1,227.6-512,494.9-520.5c287.9-9.2,532.4,230.5,527.6,519.3
				c-4.4,263.2-216.1,485.1-478.5,501.7c-133.6,8.5-268-36.6-368.9-124.7C555.3,1214.9,418.7,1025.3,459.1,907.8z M1610,1157.8
				c134.5-331.8-15.2-722.6-337.9-880.6c-353-172.8-793.6-3-941.4,361.2C196.3,969.5,345.6,1362,668.5,1519
				C1022.1,1690.8,1461.8,1522.9,1610,1157.8z"/>
			<path class="st13" d="M459,893c-17.3-275.9,227.4-511.5,494.3-520c287.6-9.1,531.8,230.2,527,518.7
				c-4.4,262.9-215.9,484.5-478,501.2c-133.4,8.5-267.7-36.6-368.5-124.5C555.1,1199.7,418.6,1010.3,459,893z M1608.5,1142.6
				c134.4-331.5-15.2-721.8-337.5-879.6c-352.6-172.6-792.7-3-940.4,360.8c-134.2,330.7,14.9,722.8,337.5,879.6
				C1021.3,1675.1,1460.6,1507.3,1608.5,1142.6z"/>
			<path class="st14" d="M458.8,878.1c-17.2-275.6,227.1-510.9,493.7-519.4c287.3-9.1,531.2,230,526.4,518.2
				c-4.4,262.6-215.7,484-477.4,500.6c-133.3,8.5-267.4-36.5-368.1-124.4C554.8,1184.4,418.5,995.3,458.8,878.1z M1607.1,1127.4
				c134.2-331.1-15.1-721-337.1-878.6c-352.2-172.5-791.9-3-939.3,360.4c-134,330.4,14.9,722,337.1,878.6
				C1020.5,1659.3,1459.3,1491.8,1607.1,1127.4z"/>
			<path class="st15" d="M458.7,863.2c-17.2-275.3,226.8-510.4,493.2-518.8c286.9-9.1,530.6,229.7,525.8,517.6
				c-4.3,262.3-215.4,483.4-476.9,500.1c-133.1,8.5-267.1-36.5-367.7-124.2C554.6,1169.2,418.4,980.3,458.7,863.2z M1605.7,1112.3
				c134.1-330.7-15.1-720.2-336.8-877.7c-351.8-172.3-791-3-938.3,360c-133.9,330,14.9,721.2,336.8,877.7
				C1019.8,1643.5,1458,1476.2,1605.7,1112.3z"/>
			<path class="st16" d="M458.5,848.3c-17.2-275,226.6-509.8,492.6-518.2c286.6-9.1,530,229.5,525.3,517
				c-4.3,262-215.2,482.9-476.4,499.5c-133,8.5-266.8-36.4-367.2-124.1C554.3,1154,418.3,965.3,458.5,848.3z M1604.3,1097.1
				c133.9-330.3-15.1-719.4-336.4-876.7c-351.4-172.1-790.1-3-937.2,359.6c-133.7,329.6,14.8,720.4,336.4,876.7
				C1019,1627.8,1456.8,1460.6,1604.3,1097.1z"/>
			<path class="st17" d="M458.4,833.4c-17.2-274.6,226.3-509.2,492.1-517.7c286.3-9.1,529.4,229.2,524.7,516.4
				c-4.3,261.7-214.9,482.4-475.8,498.9c-132.8,8.4-266.5-36.4-366.8-124C554.1,1138.8,418.2,950.2,458.4,833.4z M1602.8,1081.9
				c133.8-330-15.1-718.6-336-875.7c-351-171.9-789.2-3-936.2,359.2c-133.6,329.3,14.8,719.6,336,875.7
				C1018.2,1612,1455.5,1445.1,1602.8,1081.9z"/>
			<path class="st18" d="M458.3,818.5c-17.2-274.3,226.1-508.6,491.5-517.1c286-9.1,528.8,228.9,524.1,515.8
				c-4.3,261.4-214.7,481.8-475.3,498.4c-132.7,8.4-266.2-36.4-366.4-123.8C553.8,1123.5,418.1,935.2,458.3,818.5z M1601.4,1066.8
				c133.6-329.6-15.1-717.8-335.6-874.7c-350.6-171.7-788.3-3-935.1,358.8c-133.4,328.9,14.8,718.8,335.6,874.7
				C1017.5,1596.3,1454.3,1429.5,1601.4,1066.8z"/>
			<path class="st19" d="M458.1,803.6c-17.2-274,225.8-508.1,491-516.5c285.7-9.1,528.2,228.7,523.5,515.3
				c-4.3,261.1-214.5,481.3-474.8,497.8c-132.5,8.4-265.9-36.3-366-123.7C553.6,1108.3,418,920.2,458.1,803.6z M1600,1051.6
				c133.5-329.2-15.1-716.9-335.2-873.7c-350.2-171.5-787.4-3-934.1,358.4c-133.3,328.5,14.8,718,335.2,873.7
				C1016.7,1580.5,1453,1413.9,1600,1051.6z"/>
			<path class="st20" d="M458,788.8c-17.2-273.8,225.6-507.5,490.4-516c285.3-9.1,527.6,228.4,522.9,514.7
				c-4.3,260.8-214.2,480.7-474.2,497.3c-132.4,8.4-265.6-36.3-365.6-123.6C553.3,1093.1,417.9,905.2,458,788.8z M1598.6,1036.4
				c133.3-328.9-15-716.1-334.9-872.7c-349.8-171.3-786.5-3-933,358c-133.1,328.2,14.8,717.2,334.9,872.7
				C1015.9,1564.7,1451.7,1398.3,1598.6,1036.4z"/>
			<path class="st21" d="M457.8,773.9C440.7,500.5,683.1,267,947.7,258.6c285-9.1,527,228.2,522.3,514.1
				c-4.3,260.6-214,480.2-473.7,496.7c-132.2,8.4-265.3-36.2-365.2-123.4C553.1,1077.8,417.8,890.2,457.8,773.9z M1597.1,1021.3
				c133.2-328.5-15-715.3-334.5-871.8c-349.4-171.1-785.7-3-932,357.6c-133,327.8,14.8,716.4,334.5,871.8
				C1015.1,1549,1450.5,1382.8,1597.1,1021.3z"/>
			<path class="st22" d="M457.7,759C440.6,485.9,682.8,252.6,947,244.2c284.7-9,526.5,227.9,521.7,513.5
				c-4.3,260.3-213.7,479.7-473.2,496.1c-132.1,8.4-265-36.2-364.8-123.3C552.8,1062.6,417.7,875.2,457.7,759z M1595.7,1006.1
				c133-328.1-15-714.5-334.1-870.8c-349.1-170.9-784.8-3-930.9,357.2c-132.8,327.4,14.7,715.6,334.1,870.8
				C1014.4,1533.2,1449.2,1367.2,1595.7,1006.1z"/>
			<path class="st23" d="M457.6,744.1c-17.1-272.8,224.8-505.8,488.8-514.2c284.4-9,525.9,227.7,521.1,512.9
				c-4.3,260-213.5,479.1-472.6,495.6c-131.9,8.4-264.7-36.2-364.4-123.1C552.6,1047.4,417.6,860.1,457.6,744.1z M1594.3,990.9
				c132.9-327.8-15-713.7-333.7-869.8c-348.7-170.7-783.9-3-929.9,356.8C198,805,345.4,1192.7,664.4,1347.7
				C1013.6,1517.5,1447.9,1351.6,1594.3,990.9z"/>
			<path class="st24" d="M457.4,729.2C440.4,456.7,682,224,945.6,215.6c284.1-9,525.3,227.4,520.5,512.4
				c-4.3,259.7-213.3,478.6-472.1,495c-131.8,8.4-264.4-36.1-364-123C552.3,1032.2,417.5,845.1,457.4,729.2z M1592.8,975.8
				c132.7-327.4-15-712.9-333.4-868.8c-348.3-170.5-783-3-928.8,356.4c-132.5,326.7,14.7,713.9,333.4,868.8
				C1012.8,1501.7,1446.7,1336,1592.8,975.8z"/>
			<path class="st25" d="M457.3,714.3c-17-272.2,224.3-504.6,487.7-513c283.7-9,524.7,227.1,520,511.8
				c-4.3,259.4-213,478-471.6,494.5c-131.6,8.4-264.1-36.1-363.5-122.9C552.1,1016.9,417.4,830.1,457.3,714.3z M1591.4,960.6
				c132.6-327-15-712.1-333-867.8c-347.9-170.3-782.1-3-927.8,356c-132.4,326.3,14.7,713.1,333,867.8
				C1012.1,1485.9,1445.4,1320.5,1591.4,960.6z"/>
			<path class="st26" d="M457.1,699.4c-17-271.9,224.1-504.1,487.1-512.4c283.4-9,524.1,226.9,519.4,511.2
				c-4.3,259.1-212.8,477.5-471,493.9c-131.5,8.4-263.8-36-363.1-122.7C551.8,1001.7,417.3,815.1,457.1,699.4z M1590,945.4
				c132.4-326.6-14.9-711.3-332.6-866.8c-347.5-170.1-781.2-3-926.7,355.6c-132.2,325.9,14.7,712.3,332.6,866.8
				C1011.3,1470.2,1444.2,1304.9,1590,945.4z"/>
			<path class="st27" d="M457,684.6C440,413,680.8,181.1,943.5,172.7c283.1-9,523.5,226.6,518.8,510.6
				c-4.3,258.8-212.5,476.9-470.5,493.3c-131.3,8.4-263.5-36-362.7-122.6C551.6,986.5,417.2,800.1,457,684.6z M1588.6,930.3
				c132.3-326.3-14.9-710.5-332.2-865.9c-347.1-169.9-780.3-3-925.7,355.2c-132.1,325.6,14.7,711.5,332.2,865.9
				C1010.5,1454.4,1442.9,1289.3,1588.6,930.3z"/>
			<path class="st28" d="M456.8,669.7c-17-271.3,223.5-502.9,486-511.3c282.8-9,522.9,226.4,518.2,510
				c-4.3,258.5-212.3,476.4-470,492.8c-131.2,8.3-263.2-36-362.3-122.4C551.3,971.2,417.1,785,456.8,669.7z M1587.1,915.1
				c132.1-325.9-14.9-709.7-331.9-864.9c-346.7-169.8-779.5-3-924.6,354.8c-131.9,325.2,14.6,710.7,331.9,864.9
				C1009.8,1438.7,1441.6,1273.8,1587.1,915.1z"/>
			<path class="st29" d="M456.7,654.8c-17-270.9,223.3-502.4,485.4-510.7c282.5-9,522.3,226.1,517.6,509.5
				c-4.3,258.2-212,475.9-469.4,492.2c-131,8.3-262.9-35.9-361.9-122.3C551.1,956,417,770,456.7,654.8z M1585.7,899.9
				c132-325.5-14.9-708.9-331.5-863.9c-346.3-169.6-778.6-3-923.6,354.4c-131.8,324.8,14.6,709.9,331.5,863.9
				C1009,1422.9,1440.4,1258.2,1585.7,899.9z"/>
			<path class="st30" d="M456.6,639.9c-16.9-270.6,223-501.8,484.9-510.1c282.1-9,521.7,225.9,517,508.9
				c-4.3,257.9-211.8,475.3-468.9,491.7c-130.9,8.3-262.6-35.9-361.5-122.2C550.8,940.8,416.9,755,456.6,639.9z M1584.3,884.8
				c131.8-325.2-14.9-708.1-331.1-862.9c-345.9-169.4-777.7-3-922.5,354c-131.6,324.5,14.6,709.1,331.1,862.9
				C1008.2,1407.1,1439.1,1242.6,1584.3,884.8z"/>
			<path class="st31" d="M456.4,625c-16.9-270.3,222.8-501.2,484.3-509.5c281.8-9,521.1,225.6,516.4,508.3
				c-4.3,257.6-211.6,474.8-468.4,491.1c-130.7,8.3-262.3-35.8-361.1-122C550.6,925.5,416.8,740,456.4,625z M1582.9,869.6
				c131.7-324.8-14.9-707.3-330.7-861.9c-345.5-169.2-776.8-3-921.4,353.6c-131.5,324.1,14.6,708.3,330.7,861.9
				C1007.4,1391.4,1437.9,1227,1582.9,869.6z"/>
			<path class="st32" d="M456.3,610.1c-16.9-270,222.5-500.6,483.8-508.9c281.5-8.9,520.5,225.3,515.8,507.7
				c-4.3,257.3-211.3,474.2-467.8,490.5c-130.6,8.3-262-35.8-360.7-121.9C550.3,910.3,416.7,725,456.3,610.1z M1581.4,854.5
				C1713,530,1566.6,148,1251.1-6.5c-345.1-169-775.9-3-920.4,353.2c-131.3,323.7,14.6,707.5,330.3,861
				C1006.7,1375.6,1436.6,1211.5,1581.4,854.5z"/>
			<path class="st33" d="M456.1,595.2c-16.8-269.7,222.3-500,483.3-508.3C1220.6,78,1459.3,312,1454.6,594
				c-4.3,257-211.1,473.7-467.3,490c-130.4,8.3-261.7-35.7-360.2-121.7C550.1,895.1,416.6,710,456.1,595.2z M1580,839.3
				c131.4-324.1-14.8-705.7-330-860c-344.7-168.8-775-3-919.3,352.8c-131.2,323.4,14.6,706.7,330,860
				C1005.9,1359.9,1435.3,1195.9,1580,839.3z"/>
			<path class="st34" d="M456,580.3C439.1,310.9,678,80.8,938.7,72.6c280.8-8.9,519.3,224.8,514.7,506.6
				c-4.3,256.7-210.8,473.2-466.8,489.4c-130.3,8.3-261.4-35.7-359.8-121.6C549.8,879.9,416.5,694.9,456,580.3z M1578.6,824.1
				c131.2-323.7-14.8-704.9-329.6-859c-344.3-168.6-774.1-3-918.3,352.4c-131,323,14.5,705.9,329.6,859
				C1005.1,1344.1,1434.1,1180.3,1578.6,824.1z"/>
		</g>
		<g>
			
				<linearGradient id="SVGID_7_" gradientUnits="userSpaceOnUse" x1="-2238.7937" y1="3357.2246" x2="-790.9816" y2="1909.4124" gradientTransform="matrix(0.7071 0.7071 0.7071 -0.7071 163.9288 3660.3811)">
				<stop  offset="0" style="stop-color:#9A4599"/>
				<stop  offset="9.081334e-02" style="stop-color:#8C4599"/>
				<stop  offset="0.3305" style="stop-color:#6E449A"/>
				<stop  offset="0.5656" style="stop-color:#59439A"/>
				<stop  offset="0.792" style="stop-color:#4B439A"/>
				<stop  offset="1" style="stop-color:#47439A"/>
			</linearGradient>
			<path class="st40" d="M1578.7,824.3c131.2-323.7-14.8-704.9-329.6-859c-344.3-168.6-774.1-3-918.3,352.4
				c-131,323,14.5,705.9,329.6,859C1005.3,1344.3,1434.2,1180.5,1578.7,824.3z M456.1,580.5C439.3,311.1,678.2,81,938.8,72.7
				c280.8-8.9,519.3,224.8,514.7,506.6c-4.3,256.7-210.8,473.2-466.8,489.4c-130.3,8.3-261.4-35.7-359.8-121.6
				C550,880,416.7,695.1,456.1,580.5z"/>
			<path class="st36" d="M1307.6,943.5c-194.5,194.5-511.1,194.5-705.7,0C506.8,848.3,458.2,724,456.1,599c-0.1-6.1-0.1-12.2,0-18.4
				c2.4,124.5,51,248.3,145.8,343.2c194.6,194.6,511.1,194.6,705.7,0c94.8-94.8,143.4-218.6,145.8-343.2c0.1,6.1,0.1,12.2,0,18.4
				C1451.4,724,1402.8,848.3,1307.6,943.5z"/>
			<linearGradient id="SVGID_8_" gradientUnits="userSpaceOnUse" x1="281.5" y1="238.4" x2="1628.1001" y2="238.4">
				<stop  offset="0" style="stop-color:#9A4599"/>
				<stop  offset="9.081334e-02" style="stop-color:#8C4599"/>
				<stop  offset="0.3305" style="stop-color:#6E449A"/>
				<stop  offset="0.5656" style="stop-color:#59439A"/>
				<stop  offset="0.792" style="stop-color:#4B439A"/>
				<stop  offset="1" style="stop-color:#47439A"/>
			</linearGradient>
			<path class="st41" d="M1628,579.1c-1-84.4-17.6-166.8-49.3-244.8c-33.9-83.6-83.6-158.5-147.9-222.8
				c-64.2-64.2-139.2-114-222.8-147.9c-80.7-32.7-165.9-49.3-253.3-49.3S782.1-69.1,701.4-36.4C617.9-2.5,543,47.3,478.7,111.5
				c-64.2,64.2-114,139.2-147.9,222.8c-31.7,78.1-48.2,160.4-49.3,244.8c0-2.7,0-5.4,0-8.2c0-87.4,16.6-172.6,49.3-253.3
				c33.9-83.6,83.7-158.5,147.9-222.8C543,30.7,617.9-19.1,701.5-53c80.7-32.7,165.9-49.3,253.3-49.3s172.6,16.6,253.3,49.3
				c83.6,33.9,158.5,83.6,222.8,147.9c64.2,64.2,114,139.2,147.9,222.8c32.7,80.7,49.3,165.9,49.3,253.3
				C1628,573.7,1628,576.4,1628,579.1z"/>
		</g>
	</g>
	<g class="st1">
		<g class="st2">
			<path class="st3" d="M545.9,1003.9c-14.5-231.7,191-429.7,415.2-436.8c241.6-7.7,446.7,193.4,442.7,435.8
				c-3.7,220.8-181.4,407-401.5,421c-112.1,7.1-224.9-30.7-309.5-104.6C626.6,1261.5,512,1102.4,545.9,1003.9z M1511.6,1213.6
				c112.9-278.4-12.7-606.3-283.5-738.9c-296.2-145-665.9-2.5-789.9,303.1c-112.7,277.8,12.5,607.2,283.5,738.9
				C1018.3,1660.9,1387.3,1520,1511.6,1213.6z"/>
			<path class="st4" d="M545.8,991.5C531.3,760,736.6,562.3,960.5,555.2c241.3-7.7,446.2,193.2,442.2,435.3
				c-3.7,220.6-181.2,406.6-401.1,420.5c-112,7.1-224.6-30.7-309.2-104.5C626.4,1248.9,511.9,1090,545.8,991.5z M1510.4,1201
				c112.8-278.1-12.7-605.6-283.2-738.1C931.3,318,562,460.3,438.1,765.7c-112.6,277.5,12.5,606.5,283.2,738.1
				C1017.6,1647.8,1386.2,1507,1510.4,1201z"/>
			<path class="st5" d="M545.7,979.1C531.2,747.9,736.2,550.4,960,543.3c241-7.7,445.7,193,441.7,434.8
				c-3.7,220.4-181,406.1-400.6,420.1c-111.8,7.1-224.4-30.6-308.8-104.4C626.2,1236.2,511.8,1077.5,545.7,979.1z M1509.2,1188.4
				c112.6-277.8-12.7-605-282.9-737.3c-295.5-144.7-664.4-2.5-788.2,302.4c-112.5,277.2,12.5,605.8,282.9,737.3
				C1017,1634.7,1385.2,1494.1,1509.2,1188.4z"/>
			<path class="st6" d="M545.6,966.8c-14.5-231,190.4-428.2,413.8-435.4c240.8-7.7,445.2,192.8,441.2,434.3
				c-3.6,220.1-180.8,405.7-400.2,419.6c-111.7,7.1-224.1-30.6-308.5-104.3C626,1223.6,511.7,1065,545.6,966.8z M1508,1175.8
				c112.5-277.5-12.7-604.3-282.6-736.5c-295.2-144.5-663.7-2.5-787.3,302.1c-112.3,276.9,12.5,605.2,282.6,736.5
				C1016.4,1621.6,1384.1,1481.2,1508,1175.8z"/>
			<path class="st7" d="M545.4,954.4C531,723.7,735.6,526.6,958.8,519.5c240.5-7.6,444.7,192.5,440.8,433.8
				c-3.6,219.9-180.6,405.2-399.7,419.1c-111.6,7.1-223.9-30.6-308.2-104.1C625.8,1210.9,511.7,1052.5,545.4,954.4z M1506.8,1163.2
				c112.4-277.2-12.7-603.6-282.3-735.6c-294.9-144.4-663-2.5-786.4,301.8C325.9,1006,450.6,1333.9,720.4,1465
				C1015.7,1608.5,1383.1,1468.2,1506.8,1163.2z"/>
			<path class="st8" d="M545.3,942c-14.4-230.5,189.9-427.3,412.9-434.4C1198.5,500,1402.5,700,1398.5,941
				c-3.6,219.6-180.4,404.8-399.3,418.7c-111.5,7.1-223.6-30.5-307.8-104C625.6,1198.3,511.6,1040.1,545.3,942z M1505.6,1150.6
				c112.3-276.9-12.7-603-282-734.8C929,271.6,561.4,413.3,438,717.2C326,993.5,450.6,1321,720.1,1452
				C1015.1,1595.4,1382,1455.3,1505.6,1150.6z"/>
			<path class="st9" d="M545.2,929.7c-14.4-230.2,189.7-426.8,412.5-433.9c240-7.6,443.8,192.1,439.8,432.9
				c-3.6,219.4-180.2,404.3-398.8,418.2c-111.3,7.1-223.4-30.5-307.5-103.9C625.4,1185.6,511.5,1027.6,545.2,929.7z M1504.5,1138
				c112.1-276.6-12.7-602.3-281.6-734c-294.2-144.1-661.5-2.5-784.7,301.1c-112,276,12.4,603.2,281.6,734
				C1014.4,1582.3,1381,1442.3,1504.5,1138z"/>
			<path class="st10" d="M545.1,917.3c-14.4-230,189.5-426.4,412-433.4c239.7-7.6,443.3,191.9,439.3,432.4
				c-3.6,219.1-180,403.9-398.4,417.8c-111.2,7.1-223.1-30.5-307.1-103.8C625.2,1173,511.4,1015.1,545.1,917.3z M1503.3,1125.4
				c112-276.3-12.6-601.6-281.3-733.2C928.1,248.3,561.2,389.7,438.1,693c-111.8,275.7,12.4,602.5,281.3,733.2
				C1013.8,1569.2,1379.9,1429.4,1503.3,1125.4z"/>
			<path class="st11" d="M545,904.9C530.6,675.2,734.3,479.1,956.5,472c239.4-7.6,442.8,191.7,438.8,431.9
				c-3.6,218.9-179.8,403.4-398,417.3c-111.1,7.1-222.9-30.4-306.8-103.7C625,1160.3,511.3,1002.6,545,904.9z M1502.1,1112.8
				c111.9-276-12.6-601-281-732.4c-293.6-143.7-660-2.5-782.9,300.4c-111.7,275.4,12.4,601.8,281,732.4
				C1013.2,1556.1,1378.9,1416.5,1502.1,1112.8z"/>
			<path class="st12" d="M544.8,892.6c-14.4-229.4,189.1-425.4,411.1-432.5c239.2-7.6,442.3,191.5,438.3,431.4
				c-3.6,218.7-179.6,403-397.5,416.8c-111,7.1-222.6-30.4-306.5-103.6C624.8,1147.7,511.2,990.2,544.8,892.6z M1500.9,1100.2
				c111.8-275.7-12.6-600.3-280.7-731.6C927,225,560.9,366.1,438.1,668.7c-111.6,275.1,12.4,601.1,280.7,731.6
				C1012.5,1543,1377.8,1403.5,1500.9,1100.2z"/>
			<path class="st13" d="M544.7,880.2c-14.3-229.2,188.9-424.9,410.6-432c238.9-7.6,441.8,191.3,437.8,430.9
				c-3.6,218.4-179.4,402.5-397.1,416.4c-110.8,7-222.4-30.4-306.1-103.4C624.6,1135,511.2,977.7,544.7,880.2z M1499.7,1087.6
				c111.6-275.4-12.6-599.6-280.4-730.7c-292.9-143.4-658.6-2.5-781.2,299.8c-111.5,274.8,12.4,600.5,280.4,730.7
				C1011.9,1529.9,1376.8,1390.6,1499.7,1087.6z"/>
			<path class="st14" d="M544.6,867.8c-14.3-228.9,188.7-424.5,410.2-431.5c238.6-7.6,441.3,191,437.3,430.5
				c-3.6,218.2-179.2,402.1-396.6,415.9c-110.7,7-222.1-30.3-305.8-103.3C624.4,1122.4,511.1,965.2,544.6,867.8z M1498.5,1075
				c111.5-275-12.6-598.9-280.1-729.9c-292.6-143.3-657.8-2.5-780.3,299.4c-111.3,274.5,12.4,599.8,280.1,729.9
				C1011.2,1516.8,1375.7,1377.7,1498.5,1075z"/>
			<path class="st15" d="M544.5,855.5c-14.3-228.7,188.5-424,409.7-431c238.4-7.6,440.8,190.8,436.8,430
				c-3.6,217.9-179,401.6-396.2,415.4c-110.6,7-221.9-30.3-305.4-103.2C624.2,1109.7,511,952.7,544.5,855.5z M1497.3,1062.4
				c111.4-274.7-12.6-598.3-279.8-729.1C925.2,190.2,560.4,330.8,438,632.4c-111.2,274.2,12.3,599.1,279.8,729.1
				C1010.6,1503.7,1374.7,1364.7,1497.3,1062.4z"/>
			<path class="st16" d="M544.4,843.1c-14.3-228.4,188.2-423.5,409.2-430.5c238.1-7.6,440.3,190.6,436.3,429.5
				c-3.6,217.7-178.8,401.2-395.7,415c-110.5,7-221.6-30.3-305.1-103.1C623.9,1097,510.9,940.3,544.4,843.1z M1496.2,1049.8
				c111.3-274.4-12.6-597.6-279.4-728.3c-292-142.9-656.4-2.5-778.7,298.8c-111.1,273.8,12.3,598.5,279.4,728.3
				C1010,1490.7,1373.6,1351.8,1496.2,1049.8z"/>
			<path class="st17" d="M544.3,830.7c-14.3-228.2,188-423,408.8-430c237.8-7.6,439.8,190.4,435.9,429
				c-3.6,217.4-178.6,400.7-395.3,414.5c-110.4,7-221.4-30.2-304.7-103C623.7,1084.4,510.8,927.8,544.3,830.7z M1495,1037.2
				c111.1-274.1-12.5-596.9-279.1-727.5c-291.6-142.8-655.6-2.5-777.7,298.4c-111,273.5,12.3,597.8,279.1,727.5
				C1009.3,1477.6,1372.6,1338.9,1495,1037.2z"/>
			<path class="st18" d="M544.1,818.4C529.9,590.5,732,395.8,952.5,388.8c237.6-7.6,439.3,190.2,435.4,428.5
				c-3.6,217.2-178.4,400.3-394.9,414c-110.2,7-221.1-30.2-304.4-102.9C623.5,1071.7,510.8,915.3,544.1,818.4z M1493.8,1024.6
				c111-273.8-12.5-596.3-278.8-726.7C923.7,155.3,560.1,295.4,438.1,596c-110.8,273.2,12.3,597.1,278.8,726.7
				C1008.7,1464.5,1371.6,1325.9,1493.8,1024.6z"/>
			<path class="st19" d="M544,806c-14.2-227.6,187.6-422.1,407.9-429.1c237.3-7.5,438.8,190,434.9,428
				c-3.6,216.9-178.2,399.8-394.4,413.6c-110.1,7-220.9-30.2-304.1-102.8C623.3,1059.1,510.7,902.8,544,806z M1492.6,1012
				c110.9-273.5-12.5-595.6-278.5-725.8c-291-142.5-654.1-2.5-776,297.8c-110.7,272.9,12.3,596.5,278.5,725.8
				C1008,1451.4,1370.5,1313,1492.6,1012z"/>
			<path class="st20" d="M543.9,793.6C529.7,566.2,731.3,372,951.3,365c237-7.5,438.3,189.8,434.4,427.6
				c-3.6,216.7-178,399.4-394,413.1c-110,7-220.6-30.1-303.7-102.6C623.1,1046.4,510.6,890.4,543.9,793.6z M1491.4,999.4
				c110.8-273.2-12.5-594.9-278.2-725c-290.6-142.3-653.4-2.5-775.1,297.4c-110.6,272.6,12.3,595.8,278.2,725
				C1007.4,1438.3,1369.5,1300,1491.4,999.4z"/>
			<path class="st21" d="M543.8,781.3c-14.2-227.1,187.2-421.1,407-428.1c236.8-7.5,437.8,189.6,433.9,427.1
				c-3.6,216.5-177.8,398.9-393.5,412.6c-109.9,7-220.4-30.1-303.4-102.5C622.9,1033.8,510.5,877.9,543.8,781.3z M1490.2,986.8
				c110.6-272.9-12.5-594.3-277.9-724.2C922,120.5,559.6,260.1,438.1,559.7C327.7,832,450.4,1154.8,716,1283.9
				C1006.8,1425.2,1368.4,1287.1,1490.2,986.8z"/>
			<path class="st22" d="M543.7,768.9c-14.2-226.9,187-420.7,406.5-427.6c236.5-7.5,437.3,189.3,433.4,426.6
				C1380,984.1,1206,1166.3,990.5,1180c-109.7,7-220.1-30.1-303-102.4C622.7,1021.1,510.4,865.4,543.7,768.9z M1489.1,974.2
				c110.5-272.6-12.5-593.6-277.6-723.4c-290-142-651.9-2.5-773.3,296.8c-110.4,272,12.2,594.4,277.6,723.4
				C1006.1,1412.1,1367.4,1274.2,1489.1,974.2z"/>
			<path class="st23" d="M543.6,756.5c-14.2-226.6,186.8-420.2,406-427.1c236.2-7.5,436.9,189.1,432.9,426.1
				c-3.6,216-177.4,398-392.6,411.7c-109.6,7-219.9-30-302.7-102.3C622.5,1008.5,510.4,852.9,543.6,756.5z M1487.9,961.6
				c110.4-272.3-12.5-592.9-277.3-722.6C921,97.2,559.4,236.5,438.2,535.4C328,807.1,450.4,1129.2,715.5,1258
				C1005.5,1399,1366.3,1261.2,1487.9,961.6z"/>
			<path class="st24" d="M543.4,744.2C529.3,517.8,730,324.5,949,317.5c236-7.5,436.4,188.9,432.4,425.6
				c-3.6,215.7-177.2,397.6-392.2,411.2c-109.5,7-219.6-30-302.4-102.2C622.3,995.8,510.3,840.5,543.4,744.2z M1486.7,949
				c110.3-272-12.4-592.3-276.9-721.8c-289.3-141.7-650.5-2.5-771.6,296.1c-110.1,271.4,12.2,593.1,276.9,721.8
				C1004.8,1385.9,1365.3,1248.3,1486.7,949z"/>
			<path class="st25" d="M543.3,731.8c-14.2-226.1,186.3-419.2,405.1-426.2c235.7-7.5,435.9,188.7,431.9,425.2
				c-3.6,215.5-177,397.1-391.8,410.8c-109.4,7-219.4-30-302-102.1C622.1,983.2,510.2,828,543.3,731.8z M1485.5,936.4
				c110.1-271.7-12.4-591.6-276.6-720.9C919.9,74,559.1,213,438.2,511.2c-110,271.1,12.2,592.4,276.6,720.9
				C1004.2,1372.8,1364.2,1235.4,1485.5,936.4z"/>
			<path class="st26" d="M543.2,719.4c-14.1-225.9,186.1-418.8,404.7-425.7c235.4-7.5,435.4,188.5,431.5,424.7
				c-3.6,215.2-176.8,396.7-391.3,410.3c-109.2,6.9-219.1-29.9-301.7-101.9C621.9,970.5,510.1,815.5,543.2,719.4z M1484.3,923.8
				c110-271.4-12.4-590.9-276.3-720.1c-288.7-141.3-649-2.5-769.9,295.4c-109.9,270.8,12.2,591.8,276.3,720.1
				C1003.6,1359.7,1363.2,1222.4,1484.3,923.8z"/>
			<path class="st27" d="M543.1,707.1C529,481.5,729,288.8,947.3,281.9c235.2-7.5,434.9,188.3,431,424.2
				c-3.6,215-176.6,396.2-390.9,409.8c-109.1,6.9-218.9-29.9-301.3-101.8C621.7,957.9,510,803,543.1,707.1z M1483.1,911.2
				c109.9-271-12.4-590.2-276-719.3c-288.3-141.2-648.3-2.5-769,295.1c-109.7,270.5,12.2,591.1,276,719.3
				C1002.9,1346.6,1362.1,1209.5,1483.1,911.2z"/>
			<path class="st28" d="M543,694.7C528.9,469.4,728.7,276.9,946.7,270c234.9-7.5,434.4,188.1,430.5,423.7
				c-3.6,214.7-176.4,395.8-390.4,409.4c-109,6.9-218.6-29.9-301-101.7C621.5,945.2,510,790.6,543,694.7z M1481.9,898.6
				c109.8-270.7-12.4-589.6-275.7-718.5c-288-141-647.5-2.5-768.1,294.7c-109.6,270.2,12.2,590.4,275.7,718.5
				C1002.3,1333.5,1361.1,1196.5,1481.9,898.6z"/>
			<path class="st29" d="M542.8,682.3c-14-225,185.5-417.3,403.3-424.2c234.6-7.5,433.9,187.8,430,423.2
				c-3.6,214.5-176.2,395.3-390,408.9c-108.9,6.9-218.4-29.8-300.6-101.6C621.3,932.6,509.9,778.1,542.8,682.3z M1480.8,886
				c109.6-270.4-12.4-588.9-275.4-717.7c-287.7-140.9-646.8-2.5-767.2,294.4c-109.5,269.9,12.1,589.7,275.4,717.7
				C1001.7,1320.5,1360,1183.6,1480.8,886z"/>
			<path class="st30" d="M542.7,670c-14-224.9,185.3-416.9,402.9-423.8C1180,238.8,1379,433.8,1375.1,669
				c-3.6,214.3-176,394.9-389.5,408.4c-108.7,6.9-218.1-29.8-300.3-101.5C621.1,919.9,509.8,765.6,542.7,670z M1479.6,873.4
				c109.5-270.1-12.4-588.2-275.1-716.9C917.1,15.8,558.4,154,438.1,450.6c-109.4,269.5,12.1,589.1,275.1,716.9
				C1001,1307.4,1359,1170.7,1479.6,873.4z"/>
			<path class="st31" d="M542.6,657.6C528.6,433,727.7,241.2,945,234.3c234.1-7.4,432.9,187.4,429,422.3
				c-3.5,214-175.8,394.4-389.1,408c-108.6,6.9-217.9-29.8-300-101.4C620.8,907.3,509.7,753.1,542.6,657.6z M1478.4,860.8
				c109.4-269.8-12.3-587.6-274.7-716c-287-140.5-645.3-2.5-765.5,293.7c-109.2,269.2,12.1,588.4,274.7,716
				C1000.4,1294.3,1357.9,1157.7,1478.4,860.8z"/>
			<path class="st32" d="M542.5,645.2c-14-224.3,184.9-415.9,401.9-422.8c233.8-7.4,432.4,187.2,428.5,421.8
				c-3.5,213.8-175.6,394-388.6,407.5c-108.5,6.9-217.6-29.7-299.6-101.3C620.6,894.6,509.6,740.7,542.5,645.2z M1477.2,848.2
				c109.3-269.5-12.3-586.9-274.4-715.2C916.1-7.4,558.2,130.5,438.2,426.4c-109.1,268.9,12.1,587.7,274.4,715.2
				C999.7,1281.2,1356.9,1144.8,1477.2,848.2z"/>
			<path class="st33" d="M542.4,632.9c-14-224.1,184.7-415.4,401.4-422.3c233.6-7.4,431.9,187,428,421.3
				c-3.5,213.5-175.4,393.5-388.2,407.1c-108.4,6.9-217.4-29.7-299.3-101.1C620.4,882,509.6,728.2,542.4,632.9z M1476,835.6
				c109.1-269.2-12.3-586.2-274.1-714.4C915.5-19,558.1,118.7,438.2,414.3c-109,268.6,12.1,587.1,274.1,714.4
				C999.1,1268.1,1355.8,1131.9,1476,835.6z"/>
			<path class="st34" d="M542.3,620.5c-14-223.8,184.4-415,401-421.8c233.3-7.4,431.4,186.8,427.5,420.8
				c-3.5,213.3-175.2,393.1-387.8,406.6c-108.2,6.9-217.2-29.7-298.9-101C620.2,869.3,509.5,715.7,542.3,620.5z M1474.8,823
				c109-268.9-12.3-585.6-273.8-713.6c-286-140-643.1-2.4-762.8,292.8c-108.9,268.3,12,586.3,273.8,713.6
				C998.5,1255,1354.8,1118.9,1474.8,823z"/>
		</g>
		<g>
			
				<linearGradient id="SVGID_9_" gradientUnits="userSpaceOnUse" x1="-2104.1118" y1="3225.2097" x2="-1078.7783" y2="2199.8762" gradientTransform="matrix(0.7071 0.7071 0.7071 -0.7071 163.9288 3660.3811)">
				<stop  offset="0" style="stop-color:#9A4599"/>
				<stop  offset="9.081334e-02" style="stop-color:#8C4599"/>
				<stop  offset="0.3305" style="stop-color:#6E449A"/>
				<stop  offset="0.5656" style="stop-color:#59439A"/>
				<stop  offset="0.792" style="stop-color:#4B439A"/>
				<stop  offset="1" style="stop-color:#47439A"/>
			</linearGradient>
			<path class="st42" d="M1475,823.1c109-268.9-12.3-585.6-273.8-713.6c-286-140.1-643.1-2.5-762.9,292.7
				c-108.9,268.3,12.1,586.4,273.8,713.6C998.6,1255.1,1354.9,1119,1475,823.1z M542.4,620.6c-14-223.8,184.4-415,401-421.8
				c233.3-7.4,431.4,186.8,427.5,420.8c-3.5,213.3-175.2,393.1-387.8,406.6c-108.2,6.9-217.2-29.7-298.9-101
				C620.3,869.4,542.2,762.9,542.4,620.6z"/>
			<linearGradient id="SVGID_10_" gradientUnits="userSpaceOnUse" x1="542.225" y1="832.05" x2="1370.7749" y2="832.05">
				<stop  offset="0" style="stop-color:#9A4599"/>
				<stop  offset="9.081334e-02" style="stop-color:#8C4599"/>
				<stop  offset="0.3305" style="stop-color:#6E449A"/>
				<stop  offset="0.5656" style="stop-color:#59439A"/>
				<stop  offset="0.792" style="stop-color:#4B439A"/>
				<stop  offset="1" style="stop-color:#47439A"/>
			</linearGradient>
			<path class="st43" d="M1249.7,922.2c-161.6,161.6-424.6,161.6-586.2,0C584.4,843.1,544.1,739.8,542.3,636
				c-0.1-5.1-0.1-10.2,0-15.3c2,103.5,42.4,206.3,121.1,285.1c161.6,161.6,424.6,161.6,586.2,0c78.8-78.8,119.2-181.6,121.1-285.1
				c0.1,5.1,0.1,10.2,0,15.3C1369.2,739.8,1328.8,843.1,1249.7,922.2z"/>
			<linearGradient id="SVGID_11_" gradientUnits="userSpaceOnUse" x1="397.4" y1="336.4" x2="1516.2001" y2="336.4">
				<stop  offset="0" style="stop-color:#9A4599"/>
				<stop  offset="9.081334e-02" style="stop-color:#8C4599"/>
				<stop  offset="0.3305" style="stop-color:#6E449A"/>
				<stop  offset="0.5656" style="stop-color:#59439A"/>
				<stop  offset="0.792" style="stop-color:#4B439A"/>
				<stop  offset="1" style="stop-color:#47439A"/>
			</linearGradient>
			<path class="st44" d="M1515.9,619.5c-0.9-70.1-14.6-138.5-40.9-203.4c-28.1-69.4-69.5-131.7-122.8-185.1
				c-53.4-53.4-115.6-94.7-185.1-122.8c-67-27.2-137.8-41-210.4-41s-143.4,13.8-210.4,41c-69.4,28.1-131.7,69.5-185.1,122.9
				s-94.7,115.6-122.9,185.1C412,481,398.2,549.3,397.4,619.5c0-2.3,0-4.5,0-6.8c0-72.6,13.8-143.4,41-210.4
				c28.1-69.4,69.5-131.7,122.9-185.1s115.6-94.7,185.1-122.9c67-27.2,137.8-41,210.4-41s143.4,13.8,210.4,41
				c69.4,28.2,131.7,69.5,185.1,122.8c53.4,53.4,94.7,115.6,122.9,185.1c27.2,67,41,137.8,41,210.4
				C1515.9,615,1515.9,617.2,1515.9,619.5z"/>
		</g>
	</g>
</g>
</svg>
