<?xml version="1.0" encoding="utf-8"?>
<!-- Generator: Adobe Illustrator 25.2.0, SVG Export Plug-In . SVG Version: 6.00 Build 0)  -->
<svg version="1.1" id="Layer_1" xmlns="http://www.w3.org/2000/svg" xmlns:xlink="http://www.w3.org/1999/xlink" x="0px" y="0px"
	 viewBox="0 0 1960 1200" style="enable-background:new 0 0 1960 1200;" xml:space="preserve">
<style type="text/css">
	.st0{fill:#F5F6F6;}
	.st1{clip-path:url(#SVGID_2_);}
	.st2{fill:url(#SVGID_3_);}
	.st3{fill:url(#SVGID_4_);}
	.st4{fill:url(#SVGID_5_);}
	.st5{fill:url(#SVGID_6_);}
	.st6{fill:url(#SVGID_7_);}
	.st7{fill:url(#SVGID_8_);}
	.st8{fill:url(#SVGID_9_);}
	.st9{fill:url(#SVGID_10_);}
	.st10{fill:url(#SVGID_11_);}
	.st11{fill:url(#SVGID_12_);}
	.st12{fill:url(#SVGID_13_);}
	.st13{fill:url(#SVGID_14_);}
</style>
<rect y="-7" class="st0" width="1960" height="1219.1"/>
<g>
	<defs>
		<rect id="SVGID_1_" y="-7" width="1960" height="1219.1"/>
	</defs>
	<clipPath id="SVGID_2_">
		<use xlink:href="#SVGID_1_"  style="overflow:visible;"/>
	</clipPath>
	<g class="st1">
		
			<linearGradient id="SVGID_3_" gradientUnits="userSpaceOnUse" x1="-2472.168" y1="-2386.134" x2="-643.3508" y2="-557.3171" gradientTransform="matrix(0.7071 0.7071 -0.7071 0.7071 1012.4488 2811.8611)">
			<stop  offset="0" style="stop-color:#9A4599"/>
			<stop  offset="9.081334e-02" style="stop-color:#8C4599"/>
			<stop  offset="0.3305" style="stop-color:#6E449A"/>
			<stop  offset="0.5656" style="stop-color:#59439A"/>
			<stop  offset="0.792" style="stop-color:#4B439A"/>
			<stop  offset="1" style="stop-color:#47439A"/>
		</linearGradient>
		<path class="st2" d="M1758.6,826.2c169.7-418.6-19.2-911.6-426.3-1111C887-502.8,331.1-288.6,144.6,171
			c-169.5,417.7,18.8,913,426.3,1111C1016.9,1498.8,1571.7,1286.9,1758.6,826.2z M306.7,510.9c-21.8-348.4,287.2-646,624.3-656.8
			c363.2-11.5,671.7,290.8,665.6,655.2c-5.5,332.1-272.7,612-603.7,633C824.4,1153,654.8,1096.1,527.5,985
			C428.1,898.3,313.6,751.5,306.7,510.9z"/>
		<linearGradient id="SVGID_4_" gradientUnits="userSpaceOnUse" x1="306.625" y1="840.15" x2="1596.7155" y2="840.15">
			<stop  offset="0" style="stop-color:#9A4599"/>
			<stop  offset="9.081334e-02" style="stop-color:#8C4599"/>
			<stop  offset="0.3305" style="stop-color:#6E449A"/>
			<stop  offset="0.5656" style="stop-color:#59439A"/>
			<stop  offset="0.792" style="stop-color:#4B439A"/>
			<stop  offset="1" style="stop-color:#47439A"/>
		</linearGradient>
		<path class="st3" d="M1408,980.5c-251.6,251.6-661.1,251.6-912.7,0c-123.1-123.1-186-283.9-188.6-445.6c-0.1-7.9-0.1-15.8,0-23.7
			c3.1,161.1,65.9,321.2,188.6,443.8c251.6,251.6,661.1,251.6,912.7,0c122.6-122.6,185.5-282.8,188.6-443.9c0.1,7.9,0.2,15.8,0,23.7
			C1593.9,696.5,1531.1,857.4,1408,980.5z"/>
		
			<linearGradient id="SVGID_5_" gradientUnits="userSpaceOnUse" x1="80.8" y1="1131.5" x2="1822.4" y2="1131.5" gradientTransform="matrix(1 0 0 -1 0 1200)">
			<stop  offset="0" style="stop-color:#9A4599"/>
			<stop  offset="9.081334e-02" style="stop-color:#8C4599"/>
			<stop  offset="0.3305" style="stop-color:#6E449A"/>
			<stop  offset="0.5656" style="stop-color:#59439A"/>
			<stop  offset="0.792" style="stop-color:#4B439A"/>
			<stop  offset="1" style="stop-color:#47439A"/>
		</linearGradient>
		<path class="st4" d="M1822.3,509.2c-1.4-109.2-22.8-215.7-63.7-316.7c-43.8-108.1-108.2-205-191.3-288.1
			c-83.1-83.1-180-147.4-288.1-191.3c-104.3-42.3-214.6-63.8-327.6-63.8c-113.1,0-223.3,21.5-327.6,63.8
			C515.9-243.1,419-178.7,335.9-95.6s-147.4,180-191.3,288.1c-41,101-62.4,207.5-63.7,316.7c0-3.5-0.1-7-0.1-10.6
			c0-113.1,21.5-223.3,63.8-327.6C188.4,62.9,252.8-34,335.9-117.1s180-147.4,288.1-191.3c104.4-42.3,214.6-63.8,327.6-63.8
			s223.3,21.5,327.6,63.8c108.1,43.8,205,108.2,288.1,191.3s147.4,180,191.3,288.1c42.3,104.3,63.8,214.6,63.8,327.6
			C1822.4,502.1,1822.4,505.7,1822.3,509.2z"/>
	</g>
	<g class="st1">
		
			<linearGradient id="SVGID_6_" gradientUnits="userSpaceOnUse" x1="-2355.106" y1="-2271.345" x2="-827.6379" y2="-743.8766" gradientTransform="matrix(0.7071 0.7071 -0.7071 0.7071 1012.4488 2811.8611)">
			<stop  offset="0" style="stop-color:#9A4599"/>
			<stop  offset="9.081334e-02" style="stop-color:#8C4599"/>
			<stop  offset="0.3305" style="stop-color:#6E449A"/>
			<stop  offset="0.5656" style="stop-color:#59439A"/>
			<stop  offset="0.792" style="stop-color:#4B439A"/>
			<stop  offset="1" style="stop-color:#47439A"/>
		</linearGradient>
		<path class="st5" d="M1668.4,825.2c150.4-371-17-807.9-377.8-984.6C895.9-352.6,403.2-162.8,238,244.5
			c-150.2,370.2,16.7,809.1,377.8,984.6C1011.1,1421.3,1502.8,1233.5,1668.4,825.2z M381.6,545.8C362.3,237,636.1-26.7,934.9-36.2
			c321.9-10.2,595.3,257.7,589.9,580.6c-4.9,294.3-241.7,542.3-535,561c-149.4,9.5-299.6-40.9-412.5-139.4
			C489.2,889.1,388.9,768,381.6,545.8z"/>
		<linearGradient id="SVGID_7_" gradientUnits="userSpaceOnUse" x1="381.525" y1="837.525" x2="1524.875" y2="837.525">
			<stop  offset="0" style="stop-color:#9A4599"/>
			<stop  offset="9.081334e-02" style="stop-color:#8C4599"/>
			<stop  offset="0.3305" style="stop-color:#6E449A"/>
			<stop  offset="0.5656" style="stop-color:#59439A"/>
			<stop  offset="0.792" style="stop-color:#4B439A"/>
			<stop  offset="1" style="stop-color:#47439A"/>
		</linearGradient>
		<path class="st6" d="M1357.6,961.9c-223,223-585.9,223-808.9,0C439.7,852.8,384,710.3,381.6,567c-0.1-7-0.1-14,0-21
			c2.7,142.8,58.4,284.7,167.1,393.3c223,223,585.9,223,808.9,0c108.7-108.7,164.4-250.6,167.2-393.4c0.1,7,0.1,14,0,21
			C1522.5,710.3,1466.7,852.8,1357.6,961.9z"/>
		
			<linearGradient id="SVGID_8_" gradientUnits="userSpaceOnUse" x1="181.4" y1="1046.2" x2="1724.9" y2="1046.2" gradientTransform="matrix(1 0 0 -1 0 1200)">
			<stop  offset="0" style="stop-color:#9A4599"/>
			<stop  offset="9.081334e-02" style="stop-color:#8C4599"/>
			<stop  offset="0.3305" style="stop-color:#6E449A"/>
			<stop  offset="0.5656" style="stop-color:#59439A"/>
			<stop  offset="0.792" style="stop-color:#4B439A"/>
			<stop  offset="1" style="stop-color:#47439A"/>
		</linearGradient>
		<path class="st7" d="M1724.9,544.3c-1.2-96.8-20.2-191.2-56.5-280.7c-38.8-95.8-95.9-181.7-169.5-255.3s-159.5-130.6-255.3-169.5
			c-92.5-37.5-190.1-56.5-290.3-56.5s-197.9,19-290.4,56.5C567.1-122.4,481.2-65.4,407.5,8.3C333.9,81.9,276.8,167.8,238,263.6
			c-36.3,89.5-55.3,183.8-56.5,280.7c0-3.1-0.1-6.2-0.1-9.4c0-100.2,19-197.9,56.5-290.3c38.8-95.8,95.9-181.7,169.5-255.3
			s159.5-130.7,255.3-169.5c92.5-37.5,190.2-56.5,290.4-56.5s197.9,19,290.3,56.5c95.8,38.9,181.7,95.9,255.3,169.5
			c73.6,73.6,130.7,159.6,169.5,255.4c37.5,92.5,56.5,190.1,56.5,290.3C1724.9,538,1724.9,541.1,1724.9,544.3z"/>
	</g>
	<g class="st1">
		
			<linearGradient id="SVGID_9_" gradientUnits="userSpaceOnUse" x1="-2238.7937" y1="-2157.2246" x2="-790.9816" y2="-709.4123" gradientTransform="matrix(0.7071 0.7071 -0.7071 0.7071 1012.4488 2811.8611)">
			<stop  offset="0" style="stop-color:#9A4599"/>
			<stop  offset="9.081334e-02" style="stop-color:#8C4599"/>
			<stop  offset="0.3305" style="stop-color:#6E449A"/>
			<stop  offset="0.5656" style="stop-color:#59439A"/>
			<stop  offset="0.792" style="stop-color:#4B439A"/>
			<stop  offset="1" style="stop-color:#47439A"/>
		</linearGradient>
		<path class="st8" d="M1578.7,824.3c131.2-323.7-14.8-704.9-329.6-859c-344.3-168.6-774.1-3-918.3,352.4
			c-131,323,14.5,705.9,329.6,859C1005.3,1344.3,1434.2,1180.5,1578.7,824.3z M456.1,580.5C439.3,311.1,678.2,81,938.8,72.7
			c280.8-8.9,519.3,224.8,514.7,506.6c-4.3,256.7-210.8,473.2-466.8,489.4c-130.3,8.3-261.4-35.7-359.8-121.6
			C550,880,460,760.5,456.1,580.5z"/>
		<linearGradient id="SVGID_10_" gradientUnits="userSpaceOnUse" x1="456.025" y1="834.9875" x2="1453.4751" y2="834.9875">
			<stop  offset="0" style="stop-color:#9A4599"/>
			<stop  offset="9.081334e-02" style="stop-color:#8C4599"/>
			<stop  offset="0.3305" style="stop-color:#6E449A"/>
			<stop  offset="0.5656" style="stop-color:#59439A"/>
			<stop  offset="0.792" style="stop-color:#4B439A"/>
			<stop  offset="1" style="stop-color:#47439A"/>
		</linearGradient>
		<path class="st9" d="M1307.6,943.5c-194.5,194.5-511.1,194.5-705.7,0C506.8,848.3,458.2,724,456.1,599c-0.1-6.1-0.1-12.2,0-18.4
			c2.4,124.5,51,248.3,145.8,343.2c194.6,194.6,511.1,194.6,705.7,0c94.8-94.8,143.4-218.6,145.8-343.2c0.1,6.1,0.1,12.2,0,18.4
			C1451.4,724,1402.8,848.3,1307.6,943.5z"/>
		
			<linearGradient id="SVGID_11_" gradientUnits="userSpaceOnUse" x1="281.5" y1="961.6" x2="1628.1001" y2="961.6" gradientTransform="matrix(1 0 0 -1 0 1200)">
			<stop  offset="0" style="stop-color:#9A4599"/>
			<stop  offset="9.081334e-02" style="stop-color:#8C4599"/>
			<stop  offset="0.3305" style="stop-color:#6E449A"/>
			<stop  offset="0.5656" style="stop-color:#59439A"/>
			<stop  offset="0.792" style="stop-color:#4B439A"/>
			<stop  offset="1" style="stop-color:#47439A"/>
		</linearGradient>
		<path class="st10" d="M1628,579.1c-1-84.4-17.6-166.8-49.3-244.8c-33.9-83.6-83.6-158.5-147.9-222.8
			c-64.2-64.2-139.2-114-222.8-147.9c-80.7-32.7-165.9-49.3-253.3-49.3S782.1-69.1,701.4-36.4C617.9-2.5,543,47.3,478.7,111.5
			c-64.2,64.2-114,139.2-147.9,222.8c-31.7,78.1-48.2,160.4-49.3,244.8c0-2.7,0-5.4,0-8.2c0-87.4,16.6-172.6,49.3-253.3
			c33.9-83.6,83.7-158.5,147.9-222.8C543,30.7,617.9-19.1,701.5-53c80.7-32.7,165.9-49.3,253.3-49.3s172.6,16.6,253.3,49.3
			c83.6,33.9,158.5,83.6,222.8,147.9c64.2,64.2,114,139.2,147.9,222.8c32.7,80.7,49.3,165.9,49.3,253.3
			C1628,573.7,1628,576.4,1628,579.1z"/>
	</g>
	<g class="st1">
		
			<linearGradient id="SVGID_12_" gradientUnits="userSpaceOnUse" x1="-2104.1118" y1="-2025.2097" x2="-1078.7783" y2="-999.8762" gradientTransform="matrix(0.7071 0.7071 -0.7071 0.7071 1012.4488 2811.8611)">
			<stop  offset="0" style="stop-color:#9A4599"/>
			<stop  offset="9.081334e-02" style="stop-color:#8C4599"/>
			<stop  offset="0.3305" style="stop-color:#6E449A"/>
			<stop  offset="0.5656" style="stop-color:#59439A"/>
			<stop  offset="0.792" style="stop-color:#4B439A"/>
			<stop  offset="1" style="stop-color:#47439A"/>
		</linearGradient>
		<path class="st11" d="M1475,823.1c109-268.9-12.3-585.6-273.8-713.6c-286-140.1-643.1-2.5-762.9,292.7
			c-108.9,268.3,12.1,586.4,273.8,713.6C998.6,1255.1,1354.9,1119,1475,823.1z M542.4,620.6c-14-223.8,184.4-415,401-421.8
			c233.3-7.4,431.4,186.8,427.5,420.8c-3.5,213.3-175.2,393.1-387.8,406.6c-108.2,6.9-217.2-29.7-298.9-101
			C620.3,869.4,542.2,762.9,542.4,620.6z"/>
		
			<linearGradient id="SVGID_13_" gradientUnits="userSpaceOnUse" x1="542.225" y1="367.95" x2="1370.7749" y2="367.95" gradientTransform="matrix(1 0 0 -1 0 1200)">
			<stop  offset="0" style="stop-color:#9A4599"/>
			<stop  offset="9.081334e-02" style="stop-color:#8C4599"/>
			<stop  offset="0.3305" style="stop-color:#6E449A"/>
			<stop  offset="0.5656" style="stop-color:#59439A"/>
			<stop  offset="0.792" style="stop-color:#4B439A"/>
			<stop  offset="1" style="stop-color:#47439A"/>
		</linearGradient>
		<path class="st12" d="M1249.7,922.2c-161.6,161.6-424.6,161.6-586.2,0C584.4,843.1,544.1,739.8,542.3,636
			c-0.1-5.1-0.1-10.2,0-15.3c2,103.5,42.4,206.3,121.1,285.1c161.6,161.6,424.6,161.6,586.2,0c78.8-78.8,119.2-181.6,121.1-285.1
			c0.1,5.1,0.1,10.2,0,15.3C1369.2,739.8,1328.8,843.1,1249.7,922.2z"/>
		
			<linearGradient id="SVGID_14_" gradientUnits="userSpaceOnUse" x1="397.4" y1="863.6" x2="1516.2001" y2="863.6" gradientTransform="matrix(1 0 0 -1 0 1200)">
			<stop  offset="0" style="stop-color:#9A4599"/>
			<stop  offset="9.081334e-02" style="stop-color:#8C4599"/>
			<stop  offset="0.3305" style="stop-color:#6E449A"/>
			<stop  offset="0.5656" style="stop-color:#59439A"/>
			<stop  offset="0.792" style="stop-color:#4B439A"/>
			<stop  offset="1" style="stop-color:#47439A"/>
		</linearGradient>
		<path class="st13" d="M1515.9,619.5c-0.9-70.1-14.6-138.5-40.9-203.4c-28.1-69.4-69.5-131.7-122.8-185.1
			c-53.4-53.4-115.6-94.7-185.1-122.8c-67-27.2-137.8-41-210.4-41s-143.4,13.8-210.4,41c-69.4,28.1-131.7,69.5-185.1,122.9
			s-94.7,115.6-122.9,185.1C412,481,398.2,549.3,397.4,619.5c0-2.3,0-4.5,0-6.8c0-72.6,13.8-143.4,41-210.4
			c28.1-69.4,69.5-131.7,122.9-185.1s115.6-94.7,185.1-122.9c67-27.2,137.8-41,210.4-41s143.4,13.8,210.4,41
			c69.4,28.2,131.7,69.5,185.1,122.8c53.4,53.4,94.7,115.6,122.9,185.1c27.2,67,41,137.8,41,210.4
			C1515.9,615,1515.9,617.2,1515.9,619.5z"/>
	</g>
</g>
</svg>
