<svg xmlns="http://www.w3.org/2000/svg" width="307" height="307" viewBox="0 0 307 307">
  <path id="Combined_Shape" data-name="Combined Shape" d="M302.418,304.708a2.291,2.291,0,1,1,2.29,2.291A2.291,2.291,0,0,1,302.418,304.708Zm-27.492,0a2.291,2.291,0,1,1,2.29,2.291A2.291,2.291,0,0,1,274.926,304.708Zm-27.493,0A2.291,2.291,0,1,1,249.724,307,2.291,2.291,0,0,1,247.433,304.708Zm-27.492,0A2.291,2.291,0,1,1,222.232,307,2.291,2.291,0,0,1,219.94,304.708Zm-27.492,0a2.291,2.291,0,1,1,2.29,2.291A2.291,2.291,0,0,1,192.448,304.708Zm-27.492,0A2.291,2.291,0,1,1,167.246,307,2.291,2.291,0,0,1,164.956,304.708Zm-27.493,0A2.291,2.291,0,1,1,139.754,307,2.291,2.291,0,0,1,137.462,304.708Zm-27.492,0A2.291,2.291,0,1,1,112.262,307,2.291,2.291,0,0,1,109.97,304.708Zm-27.492,0A2.291,2.291,0,1,1,84.768,307,2.291,2.291,0,0,1,82.478,304.708Zm-27.492,0A2.291,2.291,0,1,1,57.276,307,2.291,2.291,0,0,1,54.986,304.708Zm-27.493,0A2.291,2.291,0,1,1,29.784,307,2.291,2.291,0,0,1,27.492,304.708ZM0,304.708A2.291,2.291,0,1,1,2.291,307,2.291,2.291,0,0,1,0,304.708Zm302.418-27.492a2.291,2.291,0,1,1,2.29,2.291A2.291,2.291,0,0,1,302.418,277.216Zm-27.492,0a2.291,2.291,0,1,1,2.29,2.291A2.29,2.29,0,0,1,274.926,277.216Zm-27.493,0a2.291,2.291,0,1,1,2.291,2.291A2.291,2.291,0,0,1,247.433,277.216Zm-27.492,0a2.291,2.291,0,1,1,2.291,2.291A2.291,2.291,0,0,1,219.94,277.216Zm-27.492,0a2.291,2.291,0,1,1,2.29,2.291A2.291,2.291,0,0,1,192.448,277.216Zm-27.492,0a2.291,2.291,0,1,1,2.291,2.291A2.29,2.29,0,0,1,164.956,277.216Zm-27.493,0a2.291,2.291,0,1,1,2.291,2.291A2.291,2.291,0,0,1,137.462,277.216Zm-27.492,0a2.291,2.291,0,1,1,2.291,2.291A2.291,2.291,0,0,1,109.97,277.216Zm-27.492,0a2.291,2.291,0,1,1,2.291,2.291A2.29,2.29,0,0,1,82.478,277.216Zm-27.492,0a2.291,2.291,0,1,1,2.291,2.291A2.29,2.29,0,0,1,54.986,277.216Zm-27.493,0a2.291,2.291,0,1,1,2.291,2.291A2.291,2.291,0,0,1,27.492,277.216ZM0,277.216a2.291,2.291,0,1,1,2.291,2.291A2.291,2.291,0,0,1,0,277.216Zm302.418-27.492a2.291,2.291,0,1,1,2.29,2.291A2.291,2.291,0,0,1,302.418,249.724Zm-27.492,0a2.291,2.291,0,1,1,2.29,2.291A2.291,2.291,0,0,1,274.926,249.724Zm-27.493,0a2.291,2.291,0,1,1,2.291,2.291A2.292,2.292,0,0,1,247.433,249.724Zm-27.492,0a2.291,2.291,0,1,1,2.291,2.291A2.292,2.292,0,0,1,219.94,249.724Zm-27.492,0a2.291,2.291,0,1,1,2.29,2.291A2.291,2.291,0,0,1,192.448,249.724Zm-27.492,0a2.291,2.291,0,1,1,2.291,2.291A2.291,2.291,0,0,1,164.956,249.724Zm-27.493,0a2.291,2.291,0,1,1,2.291,2.291A2.292,2.292,0,0,1,137.462,249.724Zm-27.492,0a2.291,2.291,0,1,1,2.291,2.291A2.292,2.292,0,0,1,109.97,249.724Zm-27.492,0a2.291,2.291,0,1,1,2.291,2.291A2.291,2.291,0,0,1,82.478,249.724Zm-27.492,0a2.291,2.291,0,1,1,2.291,2.291A2.291,2.291,0,0,1,54.986,249.724Zm-27.493,0a2.291,2.291,0,1,1,2.291,2.291A2.292,2.292,0,0,1,27.492,249.724ZM0,249.724a2.291,2.291,0,1,1,2.291,2.291A2.292,2.292,0,0,1,0,249.724Zm302.418-27.492a2.291,2.291,0,1,1,2.29,2.291A2.291,2.291,0,0,1,302.418,222.232Zm-27.492,0a2.291,2.291,0,1,1,2.29,2.291A2.291,2.291,0,0,1,274.926,222.232Zm-27.493,0a2.291,2.291,0,1,1,2.291,2.291A2.292,2.292,0,0,1,247.433,222.232Zm-27.492,0a2.291,2.291,0,1,1,2.291,2.291A2.292,2.292,0,0,1,219.94,222.232Zm-27.492,0a2.291,2.291,0,1,1,2.29,2.291A2.291,2.291,0,0,1,192.448,222.232Zm-27.492,0a2.291,2.291,0,1,1,2.291,2.291A2.291,2.291,0,0,1,164.956,222.232Zm-27.493,0a2.291,2.291,0,1,1,2.291,2.291A2.292,2.292,0,0,1,137.462,222.232Zm-27.492,0a2.291,2.291,0,1,1,2.291,2.291A2.292,2.292,0,0,1,109.97,222.232Zm-27.492,0a2.291,2.291,0,1,1,2.291,2.291A2.291,2.291,0,0,1,82.478,222.232Zm-27.492,0a2.291,2.291,0,1,1,2.291,2.291A2.291,2.291,0,0,1,54.986,222.232Zm-27.493,0a2.291,2.291,0,1,1,2.291,2.291A2.292,2.292,0,0,1,27.492,222.232ZM0,222.232a2.291,2.291,0,1,1,2.291,2.291A2.292,2.292,0,0,1,0,222.232Zm302.418-27.493a2.291,2.291,0,1,1,2.29,2.291A2.291,2.291,0,0,1,302.418,194.738Zm-27.492,0a2.291,2.291,0,1,1,2.29,2.291A2.291,2.291,0,0,1,274.926,194.738Zm-27.493,0a2.291,2.291,0,1,1,2.291,2.291A2.291,2.291,0,0,1,247.433,194.738Zm-27.492,0a2.291,2.291,0,1,1,2.291,2.291A2.291,2.291,0,0,1,219.94,194.738Zm-27.492,0a2.291,2.291,0,1,1,2.29,2.291A2.291,2.291,0,0,1,192.448,194.738Zm-27.492,0a2.291,2.291,0,1,1,2.291,2.291A2.291,2.291,0,0,1,164.956,194.738Zm-27.493,0a2.291,2.291,0,1,1,2.291,2.291A2.291,2.291,0,0,1,137.462,194.738Zm-27.492,0a2.291,2.291,0,1,1,2.291,2.291A2.291,2.291,0,0,1,109.97,194.738Zm-27.492,0a2.291,2.291,0,1,1,2.291,2.291A2.291,2.291,0,0,1,82.478,194.738Zm-27.492,0a2.291,2.291,0,1,1,2.291,2.291A2.291,2.291,0,0,1,54.986,194.738Zm-27.493,0a2.291,2.291,0,1,1,2.291,2.291A2.291,2.291,0,0,1,27.492,194.738ZM0,194.738a2.291,2.291,0,1,1,2.291,2.291A2.291,2.291,0,0,1,0,194.738Zm302.418-27.492a2.291,2.291,0,1,1,2.29,2.291A2.291,2.291,0,0,1,302.418,167.246Zm-27.492,0a2.291,2.291,0,1,1,2.29,2.291A2.29,2.29,0,0,1,274.926,167.246Zm-27.493,0a2.291,2.291,0,1,1,2.291,2.291A2.291,2.291,0,0,1,247.433,167.246Zm-27.492,0a2.291,2.291,0,1,1,2.291,2.291A2.291,2.291,0,0,1,219.94,167.246Zm-27.492,0a2.291,2.291,0,1,1,2.29,2.291A2.291,2.291,0,0,1,192.448,167.246Zm-27.492,0a2.291,2.291,0,1,1,2.291,2.291A2.29,2.29,0,0,1,164.956,167.246Zm-27.493,0a2.291,2.291,0,1,1,2.291,2.291A2.291,2.291,0,0,1,137.462,167.246Zm-27.492,0a2.291,2.291,0,1,1,2.291,2.291A2.291,2.291,0,0,1,109.97,167.246Zm-27.492,0a2.291,2.291,0,1,1,2.291,2.291A2.29,2.29,0,0,1,82.478,167.246Zm-27.492,0a2.291,2.291,0,1,1,2.291,2.291A2.29,2.29,0,0,1,54.986,167.246Zm-27.493,0a2.291,2.291,0,1,1,2.291,2.291A2.291,2.291,0,0,1,27.492,167.246ZM0,167.246a2.291,2.291,0,1,1,2.291,2.291A2.291,2.291,0,0,1,0,167.246Zm302.418-27.492a2.291,2.291,0,1,1,2.29,2.291A2.291,2.291,0,0,1,302.418,139.754Zm-27.492,0a2.291,2.291,0,1,1,2.29,2.291A2.291,2.291,0,0,1,274.926,139.754Zm-27.493,0a2.291,2.291,0,1,1,2.291,2.291A2.292,2.292,0,0,1,247.433,139.754Zm-27.492,0a2.291,2.291,0,1,1,2.291,2.291A2.292,2.292,0,0,1,219.94,139.754Zm-27.492,0a2.291,2.291,0,1,1,2.29,2.291A2.291,2.291,0,0,1,192.448,139.754Zm-27.492,0a2.291,2.291,0,1,1,2.291,2.291A2.291,2.291,0,0,1,164.956,139.754Zm-27.493,0a2.291,2.291,0,1,1,2.291,2.291A2.292,2.292,0,0,1,137.462,139.754Zm-27.492,0a2.291,2.291,0,1,1,2.291,2.291A2.292,2.292,0,0,1,109.97,139.754Zm-27.492,0a2.291,2.291,0,1,1,2.291,2.291A2.291,2.291,0,0,1,82.478,139.754Zm-27.492,0a2.291,2.291,0,1,1,2.291,2.291A2.291,2.291,0,0,1,54.986,139.754Zm-27.493,0a2.291,2.291,0,1,1,2.291,2.291A2.292,2.292,0,0,1,27.492,139.754ZM0,139.754a2.291,2.291,0,1,1,2.291,2.291A2.292,2.292,0,0,1,0,139.754Zm302.418-27.492a2.291,2.291,0,1,1,2.29,2.29A2.291,2.291,0,0,1,302.418,112.262Zm-27.492,0a2.291,2.291,0,1,1,2.29,2.29A2.291,2.291,0,0,1,274.926,112.262Zm-27.493,0a2.291,2.291,0,1,1,2.291,2.29A2.292,2.292,0,0,1,247.433,112.262Zm-27.492,0a2.291,2.291,0,1,1,2.291,2.29A2.292,2.292,0,0,1,219.94,112.262Zm-27.492,0a2.291,2.291,0,1,1,2.29,2.29A2.291,2.291,0,0,1,192.448,112.262Zm-27.492,0a2.291,2.291,0,1,1,2.291,2.29A2.291,2.291,0,0,1,164.956,112.262Zm-27.493,0a2.291,2.291,0,1,1,2.291,2.29A2.292,2.292,0,0,1,137.462,112.262Zm-27.492,0a2.291,2.291,0,1,1,2.291,2.29A2.292,2.292,0,0,1,109.97,112.262Zm-27.492,0a2.291,2.291,0,1,1,2.291,2.29A2.291,2.291,0,0,1,82.478,112.262Zm-27.492,0a2.291,2.291,0,1,1,2.291,2.29A2.291,2.291,0,0,1,54.986,112.262Zm-27.493,0a2.291,2.291,0,1,1,2.291,2.29A2.292,2.292,0,0,1,27.492,112.262ZM0,112.262a2.291,2.291,0,1,1,2.291,2.29A2.292,2.292,0,0,1,0,112.262ZM302.418,84.768a2.291,2.291,0,1,1,2.29,2.291A2.291,2.291,0,0,1,302.418,84.768Zm-27.492,0a2.291,2.291,0,1,1,2.29,2.291A2.29,2.29,0,0,1,274.926,84.768Zm-27.493,0a2.291,2.291,0,1,1,2.291,2.291A2.291,2.291,0,0,1,247.433,84.768Zm-27.492,0a2.291,2.291,0,1,1,2.291,2.291A2.291,2.291,0,0,1,219.94,84.768Zm-27.492,0a2.291,2.291,0,1,1,2.29,2.291A2.291,2.291,0,0,1,192.448,84.768Zm-27.492,0a2.291,2.291,0,1,1,2.291,2.291A2.29,2.29,0,0,1,164.956,84.768Zm-27.493,0a2.291,2.291,0,1,1,2.291,2.291A2.291,2.291,0,0,1,137.462,84.768Zm-27.492,0a2.291,2.291,0,1,1,2.291,2.291A2.291,2.291,0,0,1,109.97,84.768Zm-27.492,0a2.291,2.291,0,1,1,2.291,2.291A2.29,2.29,0,0,1,82.478,84.768Zm-27.492,0a2.291,2.291,0,1,1,2.291,2.291A2.29,2.29,0,0,1,54.986,84.768Zm-27.493,0a2.291,2.291,0,1,1,2.291,2.291A2.291,2.291,0,0,1,27.492,84.768ZM0,84.768A2.291,2.291,0,1,1,2.291,87.06,2.291,2.291,0,0,1,0,84.768ZM302.418,57.276a2.291,2.291,0,1,1,2.29,2.291A2.291,2.291,0,0,1,302.418,57.276Zm-27.492,0a2.291,2.291,0,1,1,2.29,2.291A2.29,2.29,0,0,1,274.926,57.276Zm-27.493,0a2.291,2.291,0,1,1,2.291,2.291A2.291,2.291,0,0,1,247.433,57.276Zm-27.492,0a2.291,2.291,0,1,1,2.291,2.291A2.291,2.291,0,0,1,219.94,57.276Zm-27.492,0a2.291,2.291,0,1,1,2.29,2.291A2.291,2.291,0,0,1,192.448,57.276Zm-27.492,0a2.291,2.291,0,1,1,2.291,2.291A2.29,2.29,0,0,1,164.956,57.276Zm-27.493,0a2.291,2.291,0,1,1,2.291,2.291A2.291,2.291,0,0,1,137.462,57.276Zm-27.492,0a2.291,2.291,0,1,1,2.291,2.291A2.291,2.291,0,0,1,109.97,57.276Zm-27.492,0a2.291,2.291,0,1,1,2.291,2.291A2.29,2.29,0,0,1,82.478,57.276Zm-27.492,0a2.291,2.291,0,1,1,2.291,2.291A2.29,2.29,0,0,1,54.986,57.276Zm-27.493,0a2.291,2.291,0,1,1,2.291,2.291A2.291,2.291,0,0,1,27.492,57.276ZM0,57.276a2.291,2.291,0,1,1,2.291,2.291A2.291,2.291,0,0,1,0,57.276ZM302.418,29.784a2.291,2.291,0,1,1,2.29,2.29A2.291,2.291,0,0,1,302.418,29.784Zm-27.492,0a2.291,2.291,0,1,1,2.29,2.29A2.291,2.291,0,0,1,274.926,29.784Zm-27.493,0a2.291,2.291,0,1,1,2.291,2.29A2.292,2.292,0,0,1,247.433,29.784Zm-27.492,0a2.291,2.291,0,1,1,2.291,2.29A2.292,2.292,0,0,1,219.94,29.784Zm-27.492,0a2.291,2.291,0,1,1,2.29,2.29A2.291,2.291,0,0,1,192.448,29.784Zm-27.492,0a2.291,2.291,0,1,1,2.291,2.29A2.291,2.291,0,0,1,164.956,29.784Zm-27.493,0a2.291,2.291,0,1,1,2.291,2.29A2.292,2.292,0,0,1,137.462,29.784Zm-27.492,0a2.291,2.291,0,1,1,2.291,2.29A2.292,2.292,0,0,1,109.97,29.784Zm-27.492,0a2.291,2.291,0,1,1,2.291,2.29A2.291,2.291,0,0,1,82.478,29.784Zm-27.492,0a2.291,2.291,0,1,1,2.291,2.29A2.291,2.291,0,0,1,54.986,29.784Zm-27.493,0a2.291,2.291,0,1,1,2.291,2.29A2.292,2.292,0,0,1,27.492,29.784ZM0,29.784a2.291,2.291,0,1,1,2.291,2.29A2.292,2.292,0,0,1,0,29.784ZM302.418,2.291a2.291,2.291,0,1,1,2.29,2.291A2.291,2.291,0,0,1,302.418,2.291Zm-27.492,0a2.291,2.291,0,1,1,2.29,2.291A2.291,2.291,0,0,1,274.926,2.291Zm-27.493,0a2.291,2.291,0,1,1,2.291,2.291A2.292,2.292,0,0,1,247.433,2.291Zm-27.492,0a2.291,2.291,0,1,1,2.291,2.291A2.292,2.292,0,0,1,219.94,2.291Zm-27.492,0a2.291,2.291,0,1,1,2.29,2.291A2.291,2.291,0,0,1,192.448,2.291Zm-27.492,0a2.291,2.291,0,1,1,2.291,2.291A2.291,2.291,0,0,1,164.956,2.291Zm-27.493,0a2.291,2.291,0,1,1,2.291,2.291A2.292,2.292,0,0,1,137.462,2.291Zm-27.492,0a2.291,2.291,0,1,1,2.291,2.291A2.292,2.292,0,0,1,109.97,2.291Zm-27.492,0a2.291,2.291,0,1,1,2.291,2.291A2.291,2.291,0,0,1,82.478,2.291Zm-27.492,0a2.291,2.291,0,1,1,2.291,2.291A2.291,2.291,0,0,1,54.986,2.291Zm-27.493,0a2.291,2.291,0,1,1,2.291,2.291A2.292,2.292,0,0,1,27.492,2.291ZM0,2.291A2.291,2.291,0,1,1,2.291,4.582,2.292,2.292,0,0,1,0,2.291Z" fill="#81338a"/>
</svg>
