<svg xmlns="http://www.w3.org/2000/svg" width="35.707" height="35.707" viewBox="0 0 35.707 35.707">
  <path id="Combined_Shape" data-name="Combined Shape" d="M16.325,34.179a1.528,1.528,0,1,1,1.528,1.528A1.533,1.533,0,0,1,16.325,34.179Zm11.538-4.788a1.528,1.528,0,1,1,1.528,1.528A1.528,1.528,0,0,1,27.863,29.391Zm-23.075,0a1.528,1.528,0,1,1,1.528,1.528A1.528,1.528,0,0,1,4.788,29.391Zm11.538-.216A1.528,1.528,0,1,1,17.854,30.7,1.533,1.533,0,0,1,16.325,29.175Zm8.455-2.229a1.53,1.53,0,1,1,1.083.449A1.53,1.53,0,0,1,24.781,26.946Zm-16.007,0a1.529,1.529,0,1,1,1.082.449A1.529,1.529,0,0,1,8.774,26.946Zm1.26-9.093a7.819,7.819,0,1,1,7.819,7.819A7.828,7.828,0,0,1,10.034,17.853Zm3.056,0a4.763,4.763,0,1,0,4.762-4.762A4.769,4.769,0,0,0,13.091,17.853Zm19.56,0a1.528,1.528,0,1,1,1.528,1.528A1.528,1.528,0,0,1,32.651,17.854Zm-5,0a1.528,1.528,0,1,1,1.528,1.528A1.533,1.533,0,0,1,27.646,17.854ZM5,17.854a1.528,1.528,0,1,1,1.528,1.528A1.533,1.533,0,0,1,5,17.854Zm-5,0a1.528,1.528,0,1,1,1.528,1.528A1.533,1.533,0,0,1,0,17.854Zm24.336-8.01a1.528,1.528,0,1,1,1.528,1.528A1.528,1.528,0,0,1,24.336,9.844Zm-16.02,0a1.528,1.528,0,1,1,1.528,1.528A1.528,1.528,0,0,1,8.315,9.844Zm8.01-3.311a1.528,1.528,0,1,1,1.528,1.528A1.533,1.533,0,0,1,16.325,6.532Zm11.538-.216a1.528,1.528,0,1,1,1.528,1.528A1.528,1.528,0,0,1,27.863,6.316Zm-23.075,0A1.528,1.528,0,1,1,6.316,7.844,1.528,1.528,0,0,1,4.788,6.316ZM16.325,1.528a1.528,1.528,0,1,1,1.528,1.528A1.528,1.528,0,0,1,16.325,1.528Z" fill="#fff"/>
</svg>
