<svg xmlns="http://www.w3.org/2000/svg" width="20.942" height="20.931" viewBox="0 0 20.942 20.931">
  <path id="Combined_Shape" data-name="Combined Shape" d="M18.083,20.486a1.527,1.527,0,0,1,2.16-2.16,1.562,1.562,0,0,1,.445,1.08,1.527,1.527,0,0,1-2.6,1.08ZM13.242,20a1.523,1.523,0,1,1,1.918-.978A1.514,1.514,0,0,1,13.242,20Zm-5.35-2.732a1.528,1.528,0,1,1,2.135-.33,1.518,1.518,0,0,1-1.233.622A1.474,1.474,0,0,1,7.891,17.271ZM3.672,13.039a1.528,1.528,0,1,1,2.135.331,1.5,1.5,0,0,1-.9.292A1.534,1.534,0,0,1,3.672,13.039Zm14.664-.216a1.564,1.564,0,0,1-.444-1.08,1.519,1.519,0,0,1,1.525-1.525,1.486,1.486,0,0,1,1.08.445,1.527,1.527,0,0,1-2.161,2.16Zm-4.79-1.131a1.526,1.526,0,1,1,2.084-.559,1.5,1.5,0,0,1-1.322.763A1.521,1.521,0,0,1,13.546,11.692ZM.94,7.688A1.515,1.515,0,1,1,2.389,8.743,1.516,1.516,0,0,1,.94,7.688ZM9.251,7.4a1.527,1.527,0,1,1,1.321.762A1.511,1.511,0,0,1,9.251,7.4ZM.445,2.846a1.532,1.532,0,0,1,0-2.16A1.56,1.56,0,0,1,1.525.241a1.527,1.527,0,0,1,1.08,2.6,1.486,1.486,0,0,1-1.08.445A1.538,1.538,0,0,1,.445,2.846ZM8.133,2.6a1.562,1.562,0,0,1-.445-1.08A1.525,1.525,0,1,1,10.293,2.6a1.533,1.533,0,0,1-2.161,0Z" fill="#fff"/>
</svg>
