<svg xmlns="http://www.w3.org/2000/svg" width="49" height="62" viewBox="0 0 49 62">
  <path id="Combined_Shape" data-name="Combined Shape" d="M0,56.066a5.979,5.979,0,0,1,6.01-5.934A5.934,5.934,0,1,1,6.01,62,5.979,5.979,0,0,1,0,56.066Zm3.109,0a2.9,2.9,0,1,0,2.9-2.878A2.893,2.893,0,0,0,3.109,56.066Zm23.158,2.623-3.238-3.184L19.79,58.689a1.6,1.6,0,0,1-1.1.446,1.573,1.573,0,0,1-1.1-.446,1.511,1.511,0,0,1,0-2.165l3.238-3.184-3.238-3.183a1.511,1.511,0,0,1,0-2.165,1.574,1.574,0,0,1,2.2,0l3.239,3.183,3.238-3.183a1.575,1.575,0,0,1,2.2,0,1.534,1.534,0,0,1,0,2.165L25.23,53.341l3.239,3.184a1.512,1.512,0,0,1,0,2.165,1.6,1.6,0,0,1-1.1.446A1.574,1.574,0,0,1,26.267,58.689Zm18.418-7.882-3.239-3.184-3.238,3.184a1.6,1.6,0,0,1-1.1.446,1.574,1.574,0,0,1-1.1-.446,1.512,1.512,0,0,1,0-2.165l3.239-3.184-3.239-3.183a1.512,1.512,0,0,1,0-2.165,1.575,1.575,0,0,1,2.2,0l3.238,3.184,3.239-3.184a1.574,1.574,0,0,1,2.2,0,1.511,1.511,0,0,1,0,2.165l-3.238,3.183,3.238,3.184a1.511,1.511,0,0,1,0,2.165,1.6,1.6,0,0,1-1.1.446A1.574,1.574,0,0,1,44.684,50.807ZM4.909,46.541a1.519,1.519,0,0,1,0-2.165,1.583,1.583,0,0,1,2.2,0,1.521,1.521,0,0,1,0,2.165,1.581,1.581,0,0,1-2.2,0ZM6.89,41.015A1.5,1.5,0,0,1,6.45,38.9a1.575,1.575,0,0,1,2.15-.433,1.518,1.518,0,0,1,.44,2.114,1.552,1.552,0,0,1-1.3.688A1.6,1.6,0,0,1,6.89,41.015Zm4.066-4.521a1.509,1.509,0,0,1,.791-2.012,1.575,1.575,0,0,1,2.059.777,1.51,1.51,0,0,1-.79,2.012,1.608,1.608,0,0,1-.634.128A1.555,1.555,0,0,1,10.957,36.495ZM23,34.979a1.555,1.555,0,1,1,1.554,1.528A1.541,1.541,0,0,1,23,34.979Zm-6.152,0A1.555,1.555,0,1,1,18.4,36.507,1.546,1.546,0,0,1,16.85,34.979Zm12.292-.012A1.546,1.546,0,0,1,30.7,33.439a9.077,9.077,0,0,0,9.183-8.952V20.539l-3.355,3.3a1.575,1.575,0,0,1-2.2,0,1.511,1.511,0,0,1,0-2.165l6.01-5.909a1.575,1.575,0,0,1,2.2,0l6.009,5.909a1.5,1.5,0,0,1,0,2.152,1.593,1.593,0,0,1-1.1.446,1.57,1.57,0,0,1-1.1-.446l-3.354-3.3v3.96A12.168,12.168,0,0,1,30.7,36.495,1.546,1.546,0,0,1,29.142,34.967Zm-8.276-8.672-3.238-3.183L14.39,26.295a1.6,1.6,0,0,1-1.1.446,1.574,1.574,0,0,1-1.1-.446,1.511,1.511,0,0,1,0-2.165l3.238-3.183-3.238-3.184a1.511,1.511,0,0,1,0-2.165,1.575,1.575,0,0,1,2.2,0l3.238,3.184L20.866,15.6a1.575,1.575,0,0,1,2.2,0,1.511,1.511,0,0,1,0,2.165L19.83,20.947l3.238,3.183a1.511,1.511,0,0,1,0,2.165,1.6,1.6,0,0,1-1.1.446A1.574,1.574,0,0,1,20.866,26.295ZM35.436,5.934a6.01,6.01,0,0,1,12.019,0,6.01,6.01,0,0,1-12.019,0ZM39.393,3.9a2.83,2.83,0,0,0-.848,2.029A2.874,2.874,0,1,0,39.393,3.9Z" fill="#fff"/>
</svg>
