<svg xmlns="http://www.w3.org/2000/svg" width="58.739" height="44.125" viewBox="0 0 58.739 44.125">
  <path id="Combined_Shape" data-name="Combined Shape" d="M47.021,43.678a1.53,1.53,0,0,1,1.088-2.614,1.6,1.6,0,0,1,1.087.446,1.536,1.536,0,0,1-2.175,2.168Zm-37.479,0A1.566,1.566,0,0,1,9.1,42.594a1.526,1.526,0,1,1,.447,1.084Zm41.509-4.145a1.536,1.536,0,1,1,2.136-.344,1.508,1.508,0,0,1-1.241.637A1.56,1.56,0,0,1,51.051,39.533ZM5.539,39.189a1.532,1.532,0,1,1,2.136.344,1.471,1.471,0,0,1-.895.293A1.508,1.508,0,0,1,5.539,39.189Zm34.909-2.066a1.546,1.546,0,1,1,1.087.447A1.543,1.543,0,0,1,40.447,37.123Zm-24.329,0a1.546,1.546,0,1,1,1.087.447A1.54,1.54,0,0,1,16.118,37.123ZM2.507,33.909a1.531,1.531,0,0,1,2.8-1.237A1.556,1.556,0,0,1,4.541,34.7a1.581,1.581,0,0,1-.627.127A1.545,1.545,0,0,1,2.507,33.909Zm51.717.765a1.528,1.528,0,1,1,1.241-2.793,1.528,1.528,0,0,1-1.241,2.793ZM11.871,31.92a1.537,1.537,0,1,1,2.1.574,1.5,1.5,0,0,1-.755.2A1.542,1.542,0,0,1,11.871,31.92Zm32.913.562A1.512,1.512,0,0,1,44.2,30.4a1.534,1.534,0,1,1,2.673,1.5,1.521,1.521,0,0,1-1.33.778A1.493,1.493,0,0,1,44.784,32.481ZM56.3,29.293a1.508,1.508,0,1,1,.319.038A1.339,1.339,0,0,1,56.3,29.293ZM.627,28.12a1.535,1.535,0,1,1,1.817,1.173,1.424,1.424,0,0,1-.32.038A1.526,1.526,0,0,1,.627,28.12Zm46.766-1.39a1.534,1.534,0,1,1,.524-3.022,1.536,1.536,0,0,1-.269,3.048A1.993,1.993,0,0,1,47.393,26.73ZM9.556,25.467a1.521,1.521,0,1,1,1.522,1.275A1.555,1.555,0,0,1,9.556,25.467Zm46.114-3.4A1.537,1.537,0,0,1,57.2,20.532a1.522,1.522,0,0,1,1.535,1.531,1.535,1.535,0,0,1-3.07,0ZM0,22.062a1.535,1.535,0,1,1,1.535,1.53A1.537,1.537,0,0,1,0,22.062Zm46.139-2.9a1.538,1.538,0,1,1,1.765,1.25,1.8,1.8,0,0,1-.256.025A1.545,1.545,0,0,1,46.139,19.167Zm-35.33,1.25a1.534,1.534,0,1,1,1.778-1.25,1.533,1.533,0,0,1-1.51,1.276A2.2,2.2,0,0,1,10.809,20.417ZM1.8,17.829a1.525,1.525,0,1,1,.627-2.984,1.521,1.521,0,0,1,1.19,1.81,1.541,1.541,0,0,1-1.5,1.212A1.385,1.385,0,0,1,1.8,17.829Zm53.3-1.2a1.563,1.563,0,0,1,1.19-1.823,1.531,1.531,0,1,1,.627,3,1.423,1.423,0,0,1-.32.038A1.54,1.54,0,0,1,55.106,16.629ZM12.433,14.309a1.533,1.533,0,1,1,.755.2A1.493,1.493,0,0,1,12.433,14.309ZM44.2,13.722a1.537,1.537,0,1,1,2.1.574,1.493,1.493,0,0,1-.755.2A1.541,1.541,0,0,1,44.2,13.722ZM3.275,12.242a1.515,1.515,0,0,1-.768-2.015,1.531,1.531,0,0,1,2.8,1.237A1.555,1.555,0,0,1,3.9,12.37,1.525,1.525,0,0,1,3.275,12.242Zm50.156-.791a1.537,1.537,0,1,1,2.034.778,1.584,1.584,0,0,1-.627.127A1.532,1.532,0,0,1,53.43,11.452ZM40.447,9.169A1.535,1.535,0,0,1,42.621,7a1.566,1.566,0,0,1,.447,1.084,1.539,1.539,0,0,1-2.622,1.084Zm-24.329,0A1.535,1.535,0,0,1,18.292,7a1.566,1.566,0,0,1,.447,1.084A1.525,1.525,0,0,1,17.2,9.615,1.6,1.6,0,0,1,16.118,9.169ZM5.884,7.078A1.532,1.532,0,1,1,8.02,6.734a1.508,1.508,0,0,1-1.24.637A1.563,1.563,0,0,1,5.884,7.078Zm44.822-.357a1.537,1.537,0,1,1,2.149.344,1.473,1.473,0,0,1-.9.293A1.547,1.547,0,0,1,50.706,6.721Zm-3.7-4.107a1.534,1.534,0,0,1,0-2.167,1.546,1.546,0,0,1,2.174,0,1.536,1.536,0,0,1,0,2.167,1.553,1.553,0,0,1-1.087.447A1.6,1.6,0,0,1,47.009,2.614Zm-37.467,0a1.536,1.536,0,0,1,0-2.167,1.546,1.546,0,0,1,2.174,0,1.534,1.534,0,0,1,0,2.167,1.575,1.575,0,0,1-1.087.447A1.6,1.6,0,0,1,9.543,2.614Z" fill="#fff"/>
</svg>
