<svg xmlns="http://www.w3.org/2000/svg" xmlns:xlink="http://www.w3.org/1999/xlink" width="1965.815" height="1082.385" viewBox="0 0 1965.815 1082.385">
  <defs>
    <clipPath id="clip-path">
      <rect x="340" y="557" width="1965.815" height="1082.385" fill="none"/>
    </clipPath>
  </defs>
  <g id="Scroll_Group_1" data-name="Scroll Group 1" transform="translate(-340 -557)" clip-path="url(#clip-path)" style="isolation: isolate">
    <g id="big_tex_shape_Image" data-name="big tex , shape &amp; Image" transform="translate(343.322 1026.68) rotate(-21)">
      <text id="Best_Our_Work" data-name="Best
Our 
Work" transform="matrix(0.903, -0.431, 0.431, 0.903, 830.173, 458.471)" fill="#fff" font-size="395" font-family="Muli-ExtraLight, Muli" font-weight="200" letter-spacing="-0.01em" opacity="0.012"><tspan x="0" y="0">Best</tspan><tspan x="0" y="395">Our </tspan><tspan x="0" y="790">Work</tspan></text>
      <path id="Shape_1" data-name="Shape 1" d="M1955.223,256.023c-64.81,19.546-51.7,250.707-107.023,374.458-24.531,54.873-62.479,88.639-126.585,73.6-208.815-48.987-166.569,527.914-542.329,198.634-243.391-213.285-559.234,245.1-667.62-326.107-49.411-260.405-738.64-5.526-738.64-5.526" transform="translate(-0.214 -9.564)" fill="none" stroke="#27358b" stroke-width="20"/>
      <path id="Shape_1_copy" data-name="Shape 1 copy" d="M-247.617,558.229c72.244-17.814,716.368-252.071,769.161,7.67,119,585.453,350.435,104.58,640.5,315.528,467.161,339.745,342.408-199.5,553.422-183.19,212.191,16.4,129.306-451.928,236.562-448.409" transform="translate(0 -8.669)" fill="none" stroke="#81338a" stroke-width="20"/>
    </g>
  </g>
</svg>
