<svg xmlns="http://www.w3.org/2000/svg" width="2188.222" height="1943.287" viewBox="0 0 2188.222 1943.287">
  <g id="big_tex_shape_Image" data-name="big tex , shape &amp; Image" transform="matrix(0.848, -0.53, 0.53, 0.848, 103.318, 1018.758)">
    <text id="Best_Our_Work" data-name="Best
Our 
Work" transform="matrix(0.903, -0.431, 0.431, 0.903, 779.402, 422.905)" fill="#fff" font-size="377" font-family="Muli-ExtraLight, Muli" font-weight="200" letter-spacing="-0.01em" opacity="0.012"><tspan x="0" y="0">Best</tspan><tspan x="0" y="377">Our </tspan><tspan x="0" y="754">Work</tspan></text>
    <path id="Shape_1" data-name="Shape 1" d="M1851.7,256.023c-61.736,18.619-49.248,238.813-101.946,356.693-23.367,52.27-59.515,84.434-120.58,70.108-198.909-46.663-158.667,502.87-516.6,189.211C880.728,668.869,579.869,1105.51,476.625,561.4c-47.067-248.052-703.6-5.264-703.6-5.264" transform="translate(-1.183 -35.824)" fill="none" stroke="#27358b" stroke-width="20"/>
    <path id="Shape_1_copy" data-name="Shape 1 copy" d="M-247.617,543.6c68.817-16.969,682.383-240.113,732.672,7.306,113.351,557.679,333.811,99.619,610.111,300.56,445,323.628,326.164-190.036,527.168-174.5,202.125,15.623,123.172-430.489,225.339-427.137" transform="translate(0 -34.677)" fill="none" stroke="#81338a" stroke-width="20"/>
  </g>
</svg>
