<svg xmlns="http://www.w3.org/2000/svg" width="131.732" height="131.732" viewBox="0 0 131.732 131.732">
  <g id="Group_468" data-name="Group 468" transform="translate(49.559 -0.472) rotate(31)">
    <rect id="Rectangle_377" data-name="Rectangle 377" width="96" height="96" rx="48" transform="translate(0.145 0.464)" fill="rgba(255,255,255,0.43)"/>
    <path id="php" d="M18.7,139.663H5.644L0,168.241H6.7l1.412-7.408h6.351c6,.352,12.7-4.587,12.7-13.055C27.169,142.838,24.344,140.015,18.7,139.663Zm-4.941,15.878H9.524l1.764-10.583h4.587c2.468,0,4.235,1.06,4.235,3.176C19.758,154.133,16.935,155.189,13.759,155.541Zm28.578-15.877-6.351,0,1.412-7.408h-6.7L25.05,160.833h6.7l3.176-15.875h5.292c2.471,0,2.471,1.06,2.116,2.824l-2.468,13.055h7.056l2.468-14.467C50.1,142.842,47.981,140.017,42.337,139.664Zm23.64,0H52.92l-5.644,28.578h6.7l1.412-7.408h6.351c6,.352,12.7-4.587,12.7-13.055C74.446,142.838,71.62,140.015,65.976,139.663Zm-4.941,15.878H56.8l1.764-10.583h4.587c2.471,0,4.235,1.06,4.235,3.176C67.035,154.133,64.211,155.189,61.035,155.541Z" transform="translate(10.77 -102.224)"/>
  </g>
</svg>
