<svg xmlns="http://www.w3.org/2000/svg" width="132.247" height="132.589" viewBox="0 0 132.247 132.589">
  <g id="Group_469" data-name="Group 469" transform="translate(49.519 -0.202) rotate(31)">
    <rect id="Rectangle_378" data-name="Rectangle 378" width="96" height="97" rx="48" transform="translate(0.48 -0.053)" fill="rgba(248,208,208,0.43)"/>
    <path id="msql-server" d="M27.075,31.621q2.563-.881,5.166-1.666a30.192,30.192,0,0,1,.471,5.228A61.1,61.1,0,0,1,27.075,31.621Zm-1.118.3c2.41,1.45,4.768,2.809,6.72,3.729A38.679,38.679,0,0,1,24.852,39.9,29,29,0,0,0,25.957,31.923Zm-6.2,2.491c.142-.1,4.982-1.975,5.018-1.939a19.376,19.376,0,0,1-1.1,7.313A12.153,12.153,0,0,1,19.759,34.414Zm-5.568,9.335a57.559,57.559,0,0,0,4.23-8.669c.029-.152.3-.274.378-.227a13.674,13.674,0,0,0,4.275,5.768C20.309,41.753,17.166,42.8,14.191,43.749ZM16.932,35.6a65.726,65.726,0,0,1-4.57,8.214,7.7,7.7,0,0,1-.706-5.715C13.125,37.338,14.929,36.494,16.932,35.6Zm15.845.639a54.437,54.437,0,0,1-.647,7.954,24.914,24.914,0,0,1-6.949-3.3A48.025,48.025,0,0,0,32.778,36.24Zm-22.753,2.7a7.726,7.726,0,0,0,.968,5.806q-4.559,1.391-9.23,2.685C1.707,46.47,3.42,41.97,10.025,38.938ZM20.941,49.187a45.773,45.773,0,0,0,3.385-7.659,28.871,28.871,0,0,0,7.748,3.051A111.6,111.6,0,0,1,20.941,49.187ZM22.863,42a57.014,57.014,0,0,1-3.984,7.941A19.173,19.173,0,0,1,13.3,45.289,65.1,65.1,0,0,0,22.863,42Zm6.707,11.548a36.366,36.366,0,0,1-9.2-2.842c1.142-.551,8.038-3.546,11.575-5.536A76.277,76.277,0,0,1,29.571,53.552ZM10.992,45.895c-2.141,3.16-4.581,6.456-5.484,7.892-2.27-1.861-3.575-3.815-3.763-5.72C4.6,47.381,7.71,46.651,10.992,45.895ZM6.323,54.388l-.354-.243c1.732-2.5,3.94-5.173,6.2-7.8a20.575,20.575,0,0,0,5.1,4.179Q11.826,52.492,6.323,54.388Zm8.795,3.782c-.088.018-.395-.062-.395-.1A67.38,67.38,0,0,0,19.5,51.582,37.531,37.531,0,0,0,29.3,53.9C24.2,55.645,18.979,57.03,15.118,58.17Zm2.757-6.542c-1.594,2.528-3.286,5.2-3.887,6.269a25.317,25.317,0,0,1-7.139-3.173Q12.483,53.213,17.875,51.628Zm11.444,2.683A45.721,45.721,0,0,1,27.1,60.2c-3.93-.53-7.594-1.125-10.942-1.8A57.135,57.135,0,0,0,29.319,54.311ZM22.347.473A35.984,35.984,0,0,0,23.555,5.8c-2.894-.6-6.046-1.118-9.366-1.586A54.38,54.38,0,0,1,22.347.473Zm-4.09,8.694.8.126c1.485-.9,3.138-1.8,4.9-2.705a50.536,50.536,0,0,1-10.467-2Zm-5.13-4.293S16.279,8.795,16.272,8.8a36.586,36.586,0,0,1-5.377-1.255C10.912,6.5,12.134,5.593,13.126,4.874Zm7.508,4.664a21.963,21.963,0,0,0,3.511-2.484c.622,1.287,1.241,2.484,1.767,3.357C23.848,10.078,21.139,9.654,20.634,9.538Zm6.653,1.06A46.9,46.9,0,0,1,22.564,0,51.012,51.012,0,0,0,10.526,5.217C8.752,6.5,9,7.031,10.2,8.149,21.942,17.184,21.389,28.086,4.465,42c-7.821,6.6-4.476,11.161,3.17,14.935,5.36,2.471,15.688,3.868,19.9,3.722a48.183,48.183,0,0,0,6.136-31,176.679,176.679,0,0,1,21.791-5.134C50.459,15.685,39.837,12.532,27.288,10.6ZM11.713,8.63c.913.311,2.369.7,3.9,1.1.494,1.392,1,3.117,1.51,4.969A20.642,20.642,0,0,0,11.713,8.63ZM23.43,11.273a21.894,21.894,0,0,0-5.281,3.872,33.04,33.04,0,0,0-1.926-5.261s0,0,.01-.005h0C16.637,9.925,20.713,10.8,23.43,11.273Zm1.451,6.234c-2.19-.693-4.163-1.26-5.841-1.745a28.135,28.135,0,0,1,5.155-4.37A13.591,13.591,0,0,1,24.88,17.507Zm-.054-6.025q4.32.653,8.756,1.634a48.213,48.213,0,0,0-7.638,4.246A14.687,14.687,0,0,0,24.826,11.482Zm6.861,9.073A38.747,38.747,0,0,0,26.829,18.2a63.327,63.327,0,0,1,7.757-4.786A19.462,19.462,0,0,1,31.687,20.555Zm3.593-7.031a54.766,54.766,0,0,1,9.551,3.3,67.519,67.519,0,0,0-11.585,3.585A21.2,21.2,0,0,0,35.28,13.524ZM18.835,23.5a25.994,25.994,0,0,0-.191-6.154,31.846,31.846,0,0,1,5.263,1.562C22.222,20.321,20.531,21.868,18.835,23.5Zm19.383,3.4a20.571,20.571,0,0,0-4.845-5.186,84.469,84.469,0,0,1,12.1-4.349C43.57,20.369,40.77,23.685,38.218,26.905Zm7.954-9.349a30.485,30.485,0,0,1,8.334,6.6A93.018,93.018,0,0,0,39.39,26.626,26.014,26.014,0,0,0,46.172,17.556ZM23.533,25.442a22.087,22.087,0,0,0,2.153-5.814,48.715,48.715,0,0,1,4.393,2.192C27.848,22.917,25.67,24.131,23.533,25.442Zm.99-5.577a21.642,21.642,0,0,1-2.817,6.713,9.281,9.281,0,0,0-2.669-2.021A59.251,59.251,0,0,1,24.523,19.865Zm7.3,3a33.413,33.413,0,0,1,5.47,4.3c-4.349,1.16-8.7,2.557-12.885,4.126A44.015,44.015,0,0,0,31.827,22.868Zm-9.447,4.594q3.313-2.037,7.531-4.11a92.466,92.466,0,0,1-6.478,8.3A9.2,9.2,0,0,0,22.379,27.462ZM16.1,30.781a19.334,19.334,0,0,0,2.21-4.588,9.924,9.924,0,0,1,2.07,1.322C18.728,28.735,17.231,29.866,16.1,30.781Zm5.292-2.159a6.129,6.129,0,0,1,1.407,3.3,99.258,99.258,0,0,0-9.339,3.993A39.654,39.654,0,0,0,21.388,28.622ZM14.55,32.9a3.139,3.139,0,0,1,.916-.875c1.36-.981,4.467-3.087,4.5-3.051a30.791,30.791,0,0,1-7.98,6.9C11.884,35.873,13.844,33.933,14.55,32.9Z" transform="translate(25.376 18.042)" fill="#f42525" fill-rule="evenodd"/>
  </g>
</svg>
