<svg xmlns="http://www.w3.org/2000/svg" width="132.247" height="132.589" viewBox="0 0 132.247 132.589">
  <g id="Group_481" data-name="Group 481" transform="translate(49.417 -0.033) rotate(31)">
    <rect id="Rectangle_387" data-name="Rectangle 387" width="96" height="97" rx="48" transform="translate(0.48 -0.25)" fill="rgba(101,214,147,0.43)"/>
    <g id="devicon-3-1175039" transform="translate(20.768 22.346)">
      <path id="Path_875" data-name="Path 875" d="M4.92,8,9.61,48.14,32.162,59.621V8Z" transform="translate(-4.92 -8)" fill="#558d6c"/>
      <path id="Path_876" data-name="Path 876" d="M64,8V59.621l.023.023L86.585,48.158,91.242,8Z" transform="translate(-36.758 -8)" fill="#5aa579"/>
      <path id="Path_877" data-name="Path 877" d="M18.84,22.11l2.993,30.055,17.831,8.614V22.11Z" transform="translate(-12.421 -15.604)" fill="#60be86"/>
      <path id="Path_878" data-name="Path 878" d="M64,22.11h0V60.779l.023.023,17.84-8.65,2.96-30.041Z" transform="translate(-36.758 -15.604)" fill="#65d693"/>
      <path id="Path_879" data-name="Path 879" d="M83.238,46.073,68.215,38.935l-.844-.415-.516,1.051L64,45.386v6.866l4.219-8.337,9.914,4.413L67.486,53.11l-.4.217v5.017l1.065-.521,15.115-7.235a.922.922,0,0,0,.424-.922V47A.922.922,0,0,0,83.238,46.073Z" transform="translate(-36.758 -24.447)" fill="#5aa579"/>
      <path id="Path_880" data-name="Path 880" d="M36.956,52.345,26.908,47.918l10.744-4.782.812-.323V37.76l-1.568.664L21.25,45.659a1.042,1.042,0,0,0-.59.922v2.661a1.024,1.024,0,0,0,.572.922l15.42,7.156.922.415.558-1.042,2.513-4.851V44.976Z" transform="translate(-13.402 -24.037)" fill="#558d6c"/>
    </g>
  </g>
</svg>
