<svg xmlns="http://www.w3.org/2000/svg" width="132.589" height="132.247" viewBox="0 0 132.589 132.247">
  <g id="Group_486" data-name="Group 486" transform="translate(49.689 -0.408) rotate(31)">
    <rect id="Rectangle_392" data-name="Rectangle 392" width="97" height="96" rx="48" transform="translate(0 0.477)" fill="#fff"/>
    <g id="github-170-1175028" transform="translate(19.438 20.226)">
      <path id="Path_886" data-name="Path 886" d="M32.363,5.1a28.754,28.754,0,0,0-9.089,56.032c1.436.267,1.964-.624,1.964-1.383,0-.686-.027-2.95-.039-5.353-8,1.739-9.686-3.392-9.686-3.392C14.2,47.684,12.32,46.8,12.32,46.8c-2.609-1.784.2-1.747.2-1.747a6.043,6.043,0,0,1,4.407,2.963c2.564,4.394,6.726,3.124,8.366,2.39a6.124,6.124,0,0,1,1.825-3.845c-6.386-.726-13.1-3.192-13.1-14.208a11.129,11.129,0,0,1,2.963-7.718,10.325,10.325,0,0,1,.278-7.608s2.414-.773,7.908,2.947a27.249,27.249,0,0,1,14.4,0c5.488-3.72,7.9-2.947,7.9-2.947a10.317,10.317,0,0,1,.282,7.608A11.107,11.107,0,0,1,50.7,32.352c0,11.043-6.726,13.474-13.128,14.186,1.032.892,1.951,2.642,1.951,5.324,0,3.847-.033,6.943-.033,7.89,0,.765.518,1.662,1.975,1.379A28.754,28.754,0,0,0,32.363,5.1Z" transform="translate(-3.612 -5.103)" fill="#181616" fill-rule="evenodd"/>
      <path id="Path_887" data-name="Path 887" d="M25.636,91.27c-.063.143-.288.186-.493.088s-.326-.288-.259-.431.287-.188.5-.09.329.29.256.433Zm-.354-.262M26.8,92.57c-.137.127-.4.068-.587-.133a.438.438,0,0,1-.084-.6c.142-.127.4-.067.59.133s.225.468.081.6Zm-.274-.294,1.408,1.95c-.176.123-.465.008-.643-.248s-.176-.563,0-.686.462-.012.643.241.175.567,0,.691Zm0,0,1.553,1.6c-.157.174-.493.127-.739-.11a.554.554,0,0,1-.163-.735c.16-.174.5-.126.745.11s.327.562.159.735Zm0,0,2.142.929c-.07.225-.393.328-.719.231s-.538-.362-.471-.589.392-.333.72-.231S31.7,96.525,31.63,96.754Zm0,0,2.353.172c.008.237-.268.433-.609.438s-.623-.184-.626-.418.27-.433.614-.44.622.184.622.419Zm0,0,2.189-.372c.041.231-.2.468-.536.532s-.643-.082-.686-.311.2-.475.534-.536.645.081.687.316Zm0,0" transform="translate(-14.747 -49.991)" fill="#181616"/>
    </g>
  </g>
</svg>
