<svg xmlns="http://www.w3.org/2000/svg" width="131.732" height="131.732" viewBox="0 0 131.732 131.732">
  <g id="Group_473" data-name="Group 473" transform="translate(49.63 -0.429) rotate(31)">
    <rect id="Rectangle_382" data-name="Rectangle 382" width="96" height="96" rx="48" transform="translate(0.061 0.464)" fill="rgba(254,238,183,0.43)"/>
    <g id="sketch-70-1174968" transform="translate(18.15 21.266)">
      <path id="Path_847" data-name="Path 847" d="M16.008,11l16.8-1.764L49.607,11,62.615,28.322,32.807,62.756,3,28.322Z" transform="translate(-3 -9.24)" fill="#fdb300"/>
      <path id="Path_848" data-name="Path 848" d="M15.074,48.29,32.807,82.725,3,48.29Z" transform="translate(-3 -29.208)" fill="#ea6c00"/>
      <path id="Path_849" data-name="Path 849" d="M81.733,48.29,64,82.725,93.807,48.29Z" transform="translate(-34.193 -29.208)" fill="#ea6c00"/>
      <path id="Path_850" data-name="Path 850" d="M27.71,48.29H63.176L45.443,82.725Z" transform="translate(-15.636 -29.208)" fill="#fdad00"/>
      <path id="Path_851" data-name="Path 851" d="M45.443,9.24,28.643,11,27.71,28.322Z" transform="translate(-15.636 -9.24)" fill="#fdd231"/>
      <path id="Path_852" data-name="Path 852" d="M64,9.24,80.8,11l.933,17.318Z" transform="translate(-34.193 -9.24)" fill="#fdd231"/>
      <path id="Path_853" data-name="Path 853" d="M111.388,30.168,98.38,12.85l.933,17.318Z" transform="translate(-51.773 -11.086)" fill="#fdad00"/>
      <path id="Path_854" data-name="Path 854" d="M45.443,9.24,27.71,28.322H63.176Z" transform="translate(-15.636 -9.24)" fill="#feeeb7"/>
      <path id="Path_855" data-name="Path 855" d="M3,30.168,16.008,12.85l-.933,17.318Z" transform="translate(-3 -11.086)" fill="#fdad00"/>
    </g>
  </g>
</svg>
