<svg xmlns="http://www.w3.org/2000/svg" width="132.247" height="132.589" viewBox="0 0 132.247 132.589">
  <g id="Group_487" data-name="Group 487" transform="translate(49.623 -0.239) rotate(31)">
    <rect id="Rectangle_393" data-name="Rectangle 393" width="96" height="97" rx="48" transform="translate(0.411 0.032)" fill="rgba(251,180,167,0.43)"/>
    <g id="brandmark" transform="translate(21.017 21.225)">
      <path id="j-green" d="M47.313,64.826,46.3,63.811a12.125,12.125,0,0,1-3.044-11.96,7.265,7.265,0,1,1,8.77-8.263,11.925,11.925,0,0,1,11.235,3.189l.435.435L58.33,52.576l-.435-.435a4.459,4.459,0,0,0-6.306,6.306L63.621,70.48l-5.364,5.364L52.6,70.19Z" transform="translate(-37.6 -37.5)" fill="#7ac143"/>
      <path id="j-orange" d="M59.3,58.91l5.654-5.654,5.364-5.364,1.015-1.015a12.161,12.161,0,0,1,11.887-3.044,7.247,7.247,0,1,1,8.118,8.191,12.033,12.033,0,0,1-3.044,11.815l-.435.435L82.64,58.91l.435-.435a4.459,4.459,0,1,0-6.306-6.306l-1.015,1.015L70.39,58.548,64.736,64.2Z" transform="translate(-43.571 -37.528)" fill="#f9a541"/>
      <path id="j-red" d="M87.867,92.138a12.056,12.056,0,0,1-12.032-2.972l-.435-.435,5.364-5.364.435.435A4.459,4.459,0,0,0,87.5,77.5L86.49,76.481l-5.364-5.364-5.654-5.654L80.836,60.1l12.1,12.1a12.141,12.141,0,0,1,3.189,11.38,7.248,7.248,0,0,1-1.015,14.424A7.481,7.481,0,0,1,87.867,92.138Z" transform="translate(-48.001 -43.719)" fill="#f44321"/>
      <path id="j-blue" d="M75.364,81.464,69.71,87.117l-5.364,5.364L63.332,93.5a12.059,12.059,0,0,1-11.38,3.189,7.261,7.261,0,1,1-8.77-8.626A12.014,12.014,0,0,1,46.3,76.535l.435-.435L52.1,81.464l-.435.435A4.459,4.459,0,0,0,57.968,88.2l1.015-1.015,5.364-5.364L70,76.172Z" transform="translate(-37.6 -48.121)" fill="#5091cd"/>
    </g>
  </g>
</svg>
