<svg xmlns="http://www.w3.org/2000/svg" width="132.247" height="132.589" viewBox="0 0 132.247 132.589">
  <g id="Group_488" data-name="Group 488" transform="translate(49.563 -0.275) rotate(31)">
    <rect id="Rectangle_394" data-name="Rectangle 394" width="96" height="97" rx="48" transform="translate(0.48 0.032)" fill="#fff"/>
    <g id="java-seeklogo.com" transform="translate(23.592 12.1)">
      <path id="Path_888" data-name="Path 888" d="M69.135,267.473s-2.53,1.471,1.8,1.969a37.892,37.892,0,0,0,13.712-.582,23.861,23.861,0,0,0,3.643,1.779c-12.963,5.556-29.338-.322-19.156-3.167" transform="translate(-53.406 -216.263)" fill="#5382a1"/>
      <path id="Path_889" data-name="Path 889" d="M59.267,229.659s-2.838,2.1,1.5,2.549a53.492,53.492,0,0,0,17.692-.849,7.853,7.853,0,0,0,2.725,1.662c-15.673,4.583-33.13.361-21.914-3.361" transform="translate(-45.123 -185.699)" fill="#5382a1"/>
      <path id="Path_890" data-name="Path 890" d="M131.591,89.051c3.194,3.677-.839,6.987-.839,6.987s8.11-4.187,4.386-9.43c-3.479-4.889-6.147-7.319,8.3-15.694,0,0-22.669,5.662-11.842,18.138" transform="translate(-104.093 -57.389)" fill="#e76f00"/>
      <path id="Path_891" data-name="Path 891" d="M45.16,293.081s1.873,1.543-2.062,2.737c-7.482,2.267-31.143,2.951-37.715.09-2.363-1.028,2.068-2.454,3.462-2.754a8.983,8.983,0,0,1,2.284-.256C8.5,291.047-5.855,296.532,3.836,298.1c26.43,4.286,48.179-1.93,41.324-5.022" transform="translate(-0.517 -236.508)" fill="#5382a1"/>
      <path id="Path_892" data-name="Path 892" d="M39.881,190.435s-12.035,2.858-4.262,3.9a90.384,90.384,0,0,0,15.919-.171c4.981-.42,9.982-1.313,9.982-1.313a21.13,21.13,0,0,0-3.027,1.62c-12.221,3.214-35.831,1.719-29.034-1.569a22.772,22.772,0,0,1,10.422-2.463" transform="translate(-22.936 -153.986)" fill="#5382a1"/>
      <path id="Path_893" data-name="Path 893" d="M200.454,199.851c12.424-6.456,6.68-12.66,2.67-11.824a9.283,9.283,0,0,0-1.421.382,2.264,2.264,0,0,1,1.062-.819c7.932-2.789,14.032,8.224-2.561,12.586a1.076,1.076,0,0,0,.25-.325" transform="translate(-161.919 -151.334)" fill="#5382a1"/>
      <path id="Path_894" data-name="Path 894" d="M97.908.371s6.88,6.883-6.526,17.466c-10.75,8.49-2.451,13.331,0,18.861C85.1,31.037,80.5,26.054,83.587,21.415c4.535-6.809,17.1-10.11,14.321-21.043" transform="translate(-66.864 -0.371)" fill="#e76f00"/>
      <path id="Path_895" data-name="Path 895" d="M55.8,319.092c11.925.763,30.238-.424,30.671-6.066,0,0-.834,2.139-9.856,3.838a98.047,98.047,0,0,1-30.178.464s1.524,1.262,9.362,1.764" transform="translate(-37.635 -253.082)" fill="#5382a1"/>
    </g>
  </g>
</svg>
