<svg xmlns="http://www.w3.org/2000/svg" width="132.247" height="132.589" viewBox="0 0 132.247 132.589">
  <g id="Group_463" data-name="Group 463" transform="translate(49.834 -0.074) rotate(31)">
    <rect id="Rectangle_368" data-name="Rectangle 368" width="96" height="97" rx="48" transform="translate(0.145)" fill="rgba(3,175,239,0.43)"/>
    <g id="sequelize-2-1175003" transform="translate(18.314 13.882)">
      <path id="Path_808" data-name="Path 808" d="M85.031,37.863V62.556L64.03,75l-.19.173v9.24l.19.178L93.585,67.508V33.067L93.306,33l-8.365,4.662.045.2" transform="translate(-34.251 -15.98)" fill="#2f406a"/>
      <path id="Path_809" data-name="Path 809" d="M19.491,62.85,40.559,75.073v9.592L10.78,67.512V33.2l.307-.045L19.4,37.995l.089.279V62.85" transform="translate(-10.78 -16.051)" fill="#2379bd"/>
      <path id="Path_810" data-name="Path 810" d="M19.491,24.7,10.78,19.633,40.492,2.48,70.137,19.567l-8.577,4.8L40.492,12.339l-21,12.358" transform="translate(-10.78 -2.48)" fill="#03afef"/>
      <path id="Path_811" data-name="Path 811" d="M63.349,69.829l-.229-.234V60.315l.229-.117.056-.229,7.958-4.64.245.056V64.95l-8.253,4.885" transform="translate(-33.932 -25.858)" fill="#2f406a"/>
      <path id="Path_812" data-name="Path 812" d="M48.48,65.232V55.3h.229L56.8,60.012l.067.184v9.62L48.48,65.232" transform="translate(-27.456 -25.845)" fill="#2379bd"/>
      <path id="Path_813" data-name="Path 813" d="M56.739,46.54,48.48,51.425l8.393,4.885,8.253-4.818L56.739,46.54" transform="translate(-27.456 -21.97)" fill="#03afef"/>
      <path id="Path_814" data-name="Path 814" d="M44.929,80.689l-.229-.234V71.175l.229-.117.056-.229,7.958-4.64.245.056V75.8l-8.253,4.885" transform="translate(-25.784 -30.662)" fill="#2f406a"/>
      <path id="Path_815" data-name="Path 815" d="M30.06,76.109V66.16h.229l8.1,4.7.067.184v9.631l-8.4-4.567" transform="translate(-19.308 -30.649)" fill="#2379bd"/>
      <path id="Path_816" data-name="Path 816" d="M38.313,57.4,30.06,62.285l8.393,4.885,8.253-4.818L38.313,57.4" transform="translate(-19.308 -26.774)" fill="#03afef"/>
      <path id="Path_817" data-name="Path 817" d="M83.089,81.1l-.229-.234V71.585l.229-.117.056-.229L91.1,66.6l.245.056v9.558L83.089,81.1" transform="translate(-42.664 -30.843)" fill="#2f406a"/>
      <path id="Path_818" data-name="Path 818" d="M68.22,76.5V66.57h.229l8.1,4.7.067.184v9.631L68.22,76.5" transform="translate(-36.188 -30.83)" fill="#2379bd"/>
      <path id="Path_819" data-name="Path 819" d="M76.453,57.81,68.2,62.7l8.393,4.885,8.253-4.818L76.453,57.81" transform="translate(-36.179 -26.955)" fill="#03afef"/>
      <path id="Path_820" data-name="Path 820" d="M64.669,91.959l-.229-.234V82.445l.229-.117.056-.229,7.958-4.64.245.056v9.558l-8.253,4.885" transform="translate(-34.516 -35.647)" fill="#2f406a"/>
      <path id="Path_821" data-name="Path 821" d="M49.8,87.356V77.43h.229l8.092,4.712.067.184v9.631l-8.387-4.6" transform="translate(-28.04 -35.634)" fill="#2379bd"/>
      <path id="Path_822" data-name="Path 822" d="M58.053,68.67,49.8,73.555l8.393,4.885,8.253-4.818L58.053,68.67" transform="translate(-28.04 -31.759)" fill="#03afef"/>
      <path id="Path_823" data-name="Path 823" d="M63.349,46.225l-.229-.234V36.711l.229-.117.056-.229,7.958-4.645.245.056v9.581l-8.253,4.885" transform="translate(-33.932 -15.414)" fill="#2f406a"/>
      <path id="Path_824" data-name="Path 824" d="M48.48,41.626V31.7h.229L56.8,36.412l.067.184v9.62l-8.387-4.59" transform="translate(-27.456 -15.405)" fill="#2379bd"/>
      <path id="Path_825" data-name="Path 825" d="M56.739,22.94,48.48,27.825l8.393,4.885,8.253-4.818L56.739,22.94" transform="translate(-27.456 -11.53)" fill="#03afef"/>
      <path id="Path_826" data-name="Path 826" d="M44.929,57.089l-.229-.234V47.575l.229-.117.056-.229,7.958-4.64.245.056V52.2l-8.253,4.885" transform="translate(-25.784 -20.222)" fill="#2f406a"/>
      <path id="Path_827" data-name="Path 827" d="M30.06,52.482V42.55h.229l8.1,4.712.067.184v9.625l-8.4-4.59" transform="translate(-19.308 -20.205)" fill="#2379bd"/>
      <path id="Path_828" data-name="Path 828" d="M38.313,33.8,30.06,38.685l8.393,4.885,8.253-4.818L38.313,33.8" transform="translate(-19.308 -16.334)" fill="#03afef"/>
      <path id="Path_829" data-name="Path 829" d="M83.089,57.5l-.229-.234V47.985l.229-.117.056-.229L91.1,43l.245.056v9.558L83.089,57.5" transform="translate(-42.664 -20.404)" fill="#2f406a"/>
      <path id="Path_830" data-name="Path 830" d="M68.22,52.91V43h.229l8.092,4.712.067.184v9.6L68.22,52.91" transform="translate(-36.188 -20.404)" fill="#2379bd"/>
      <path id="Path_831" data-name="Path 831" d="M76.462,34.21l-8.242,4.9L76.613,44l8.253-4.818-8.4-4.969" transform="translate(-36.188 -16.516)" fill="#03afef"/>
      <path id="Path_832" data-name="Path 832" d="M64.669,68.349l-.229-.234V58.835l.229-.117.056-.229,7.958-4.64.245.056v9.558l-8.253,4.885" transform="translate(-34.516 -25.203)" fill="#2f406a"/>
      <path id="Path_833" data-name="Path 833" d="M49.8,63.752V53.82h.229l8.092,4.712.067.184v9.62L49.8,63.752" transform="translate(-28.04 -25.19)" fill="#2379bd"/>
      <path id="Path_834" data-name="Path 834" d="M58.053,45.06,49.8,49.945l8.393,4.885,8.253-4.818L58.053,45.06" transform="translate(-28.04 -21.315)" fill="#03afef"/>
    </g>
  </g>
</svg>
