<svg xmlns="http://www.w3.org/2000/svg" width="131.217" height="130.875" viewBox="0 0 131.217 130.875">
  <g id="Group_467" data-name="Group 467" transform="translate(48.972 -0.111) rotate(31)">
    <rect id="Rectangle_376" data-name="Rectangle 376" width="96" height="95" rx="47.5" transform="translate(0.02 0.118)" fill="rgba(238,156,143,0.43)"/>
    <path id="swift-18-1174990" d="M59.456,14.629a13.422,13.422,0,0,0-1.236-3.535A13.45,13.45,0,0,0,56,8.146a10.923,10.923,0,0,0-3.087-2.122,12.718,12.718,0,0,0-3.582-1.18C48.1,4.607,46.738,4.607,45.5,4.49H15.015a21.2,21.2,0,0,0-2.84.238,10.172,10.172,0,0,0-2.714.709c-.247.117-.616.238-.863.354a15.773,15.773,0,0,0-2.332,1.53c-.247.238-.494.354-.742.588A10.451,10.451,0,0,0,3.3,10.856a11.011,11.011,0,0,0-1.236,3.535A36.6,36.6,0,0,0,1.7,18.043V46.207a18.338,18.338,0,0,0,.368,3.652A13.422,13.422,0,0,0,3.3,53.394a13.45,13.45,0,0,0,2.22,2.947,10.922,10.922,0,0,0,3.087,2.122,12.718,12.718,0,0,0,3.582,1.18c1.236.238,2.593.238,3.829.354H45.507a21.024,21.024,0,0,0,3.829-.354,12.718,12.718,0,0,0,3.582-1.18A14.052,14.052,0,0,0,56,56.342a10.452,10.452,0,0,0,2.22-2.947,11.011,11.011,0,0,0,1.236-3.535,36.6,36.6,0,0,0,.368-3.652V18.281a18.338,18.338,0,0,0-.373-3.652Zm-8.763,35.23c-2.682-5.023-7.639-3.47-10.144-2.458-5.181,2.859-12.3,3.153-19.471.219A30.1,30.1,0,0,1,7.362,36.441a23.319,23.319,0,0,0,5.06,2.947c7.4,3.311,14.8,3.083,20.007,0h0c-7.415-5.438-13.711-12.508-18.4-18.282a20.273,20.273,0,0,1-2.467-3.181,141.55,141.55,0,0,0,17.9,12.961A126.744,126.744,0,0,1,16.867,15.8a124.429,124.429,0,0,0,20.74,16.262,8.81,8.81,0,0,1,.793.466,15.255,15.255,0,0,0,.564-1.637c1.73-6.012-.247-12.844-4.566-18.5C44.4,18.164,50.343,29,47.852,38.078c-.065.247-.135.466-.21.723l.089.1c4.944,5.89,3.577,12.135,2.961,10.955Z" transform="translate(17.045 15.626)" fill="#f05138"/>
  </g>
</svg>
