<svg xmlns="http://www.w3.org/2000/svg" width="132.247" height="132.589" viewBox="0 0 132.247 132.589">
  <g id="Group_462" data-name="Group 462" transform="translate(49.813 0.205) rotate(31)">
    <rect id="Rectangle_367" data-name="Rectangle 367" width="96" height="97" rx="48" transform="translate(0.02 -0.25)" fill="rgba(128,202,222,0.43)"/>
    <g id="slack-20-1174967" transform="translate(19.975 20.431)">
      <path id="Path_800" data-name="Path 800" d="M7.075,40.117a4.624,4.624,0,0,1-4.506-3.173c-.027-.077-.045-.15-.068-.222A4.846,4.846,0,0,1,5.637,30.81l39.6-13.269a5.359,5.359,0,0,1,1.446-.213,4.747,4.747,0,0,1,4.629,3.237l.059.19a4.751,4.751,0,0,1-3.3,5.64L8.684,39.845A5.123,5.123,0,0,1,7.075,40.117Z" transform="translate(-2.318 -10.814)" fill="#80cade"/>
      <path id="Path_801" data-name="Path 801" d="M21.593,82.85a4.62,4.62,0,0,1-4.533-3.124c-.023-.073-.045-.145-.068-.222a4.878,4.878,0,0,1,3.146-5.971l39.6-13.392a5.1,5.1,0,0,1,1.573-.263,4.783,4.783,0,0,1,4.615,3.228l.059.2a5.01,5.01,0,0,1-.58,4.008,6.616,6.616,0,0,1-2.353,1.659L23.3,82.573a5.44,5.44,0,0,1-1.682.286Z" transform="translate(-10.236 -34.075)" fill="#db015c"/>
      <path id="Path_802" data-name="Path 802" d="M78.267,51.822a4.86,4.86,0,0,1-4.656-3.314L60.4,9.253l-.068-.222a4.869,4.869,0,0,1,9.289-2.879L82.832,45.4l.036.127a4.864,4.864,0,0,1-4.611,6.3Z" transform="translate(-33.947 -2.962)" fill="#e8a900"/>
      <path id="Path_803" data-name="Path 803" d="M34.89,66.258a4.864,4.864,0,0,1-4.656-3.323L17.02,23.689l-.068-.218a4.86,4.86,0,0,1,3.128-5.948,4.937,4.937,0,0,1,1.514-.254,4.86,4.86,0,0,1,4.656,3.314L39.46,59.839c.023.068.045.145.068.218a4.864,4.864,0,0,1-4.638,6.2Z" transform="translate(-10.214 -10.783)" fill="#41b088"/>
      <path id="Path_804" data-name="Path 804" d="M82.042,76.655l9.2-3.151-3-8.944L79,67.679Z" transform="translate(-44.237 -36.635)" fill="#ca161a"/>
      <path id="Path_805" data-name="Path 805" d="M38.776,91.35,47.988,88.2l-3.033-9L35.73,82.319Z" transform="translate(-20.583 -44.638)" fill="#3b1d37"/>
      <path id="Path_806" data-name="Path 806" d="M67.632,33.806l9.216-3.146L73.87,21.82l-9.23,3.092Z" transform="translate(-36.387 -13.271)" fill="#69852c"/>
      <path id="Path_807" data-name="Path 807" d="M24.332,48.426l9.2-3.133L30.52,36.34l-9.23,3.092Z" transform="translate(-12.689 -21.208)" fill="#118f79"/>
    </g>
  </g>
</svg>
