<svg xmlns="http://www.w3.org/2000/svg" width="133.104" height="133.104" viewBox="0 0 133.104 133.104">
  <g id="Group_480" data-name="Group 480" transform="translate(49.83 0.215) rotate(31)">
    <rect id="Rectangle_386" data-name="Rectangle 386" width="97" height="97" rx="48.5" transform="translate(0 -0.25)" fill="rgba(0,142,206,0.43)"/>
    <g id="drupal-seeklogo.com" transform="translate(21.37 17.221)">
      <path id="Path_864" data-name="Path 864" d="M18.554,10.664C7.725,15.264.909,24.284.909,35.873a26.82,26.82,0,0,0,53.64,0C54.549,18.065,38,10.985,38,10.985a42,42,0,0,1-5.635-2.848s-2.553-1.56-7-7.3a11.356,11.356,0,0,1-6.811,9.832" transform="translate(-0.909 -0.797)" fill="#136da9"/>
      <path id="Path_865" data-name="Path 865" d="M113.735,262.31c-.942-.655-.718-2.739,1.835-1.25,0,0,5.435,3.992,14.041-.8.669-.372,1.489.941-.638,2.146,0,0-8.7,4.449-15.237-.1Z" transform="translate(-89.599 -205.606)" fill="#f0f0f0"/>
      <path id="Path_866" data-name="Path 866" d="M113.735,262.31c-.942-.655-.718-2.739,1.835-1.25,0,0,5.435,3.992,14.041-.8.669-.372,1.489.941-.638,2.146,0,0-8.7,4.449-15.237-.1Z" transform="translate(-89.599 -205.606)" fill="none" stroke="#fffdff" stroke-width="1"/>
      <path id="Path_867" data-name="Path 867" d="M146.464,232.252c3.165.371,2.077,1.892,2.926,2.127,1.728.479.984-1.409.984-1.409a3.839,3.839,0,0,0-3.484-2.393c-3.457-.532-6.037,2.766-6.037,2.766-.638,1.409.255,1.482.585,1.33,1.675-.771,2.694-2.694,5.026-2.42Z" transform="translate(-111.239 -182.169)" fill="#f0f0f0"/>
      <path id="Path_868" data-name="Path 868" d="M146.464,232.252c3.165.371,2.077,1.892,2.926,2.127,1.728.479.984-1.409.984-1.409a3.839,3.839,0,0,0-3.484-2.393c-3.457-.532-6.037,2.766-6.037,2.766-.638,1.409.255,1.482.585,1.33,1.675-.771,2.694-2.694,5.026-2.42Z" transform="translate(-111.239 -182.169)" fill="none" stroke="#fffdff" stroke-width="1"/>
      <path id="Path_869" data-name="Path 869" d="M4.772,50.025s9.616,7.956,33.018-9.769c0,0,11.754-7.379,11.4-20.03a27.007,27.007,0,0,0-10.222-8.285c-.913-.4-8.933-4.777-13.264-10.265,0,0-.785,15.92-21.176,22.206,0,0-5.138,7.578-2.337,19.9a59.582,59.582,0,0,0,2.581,6.249" transform="translate(-1.262 -1.463)" fill="#008ece"/>
      <path id="Path_870" data-name="Path 870" d="M63.461,185.329s-7.978.212-7.02-8.3c0,0,1.666-9.573,12.87-7.446,0,0,2.447.532,7.021,4.042,0,0,3.018,2.327,4.68,2.283,0,0,1.29.123,3.971-1.574,0,0,5.469-4.22,7.381-4.1.048,0,3.859-.417,3.859,5.726,0,0,.071,6.772-5.035,9.041a2.81,2.81,0,0,1-2.8-1.064s-4.184-4.751-6.24-5.531a4.2,4.2,0,0,0-2.766.106s-1.028.106-5.247,2.907c0,0-7.092,4.432-10.673,3.9Z" transform="translate(-44.697 -133.81)" fill="#f0f0f0"/>
      <path id="Path_871" data-name="Path 871" d="M63.461,185.329s-7.978.212-7.02-8.3c0,0,1.666-9.573,12.87-7.446,0,0,2.447.532,7.021,4.042,0,0,3.018,2.327,4.68,2.283,0,0,1.29.123,3.971-1.574,0,0,5.469-4.22,7.381-4.1.048,0,3.859-.417,3.859,5.726,0,0,.071,6.772-5.035,9.041a2.81,2.81,0,0,1-2.8-1.064s-4.184-4.751-6.24-5.531a4.2,4.2,0,0,0-2.766.106s-1.028.106-5.247,2.907c0,0-7.092,4.432-10.673,3.9Z" transform="translate(-44.697 -133.81)" fill="none" stroke="#fffdff" stroke-width="1"/>
      <path id="Path_872" data-name="Path 872" d="M36.156,21.655C41.321,14.257,37.615.664,37.615.664a11.392,11.392,0,0,1-6.678,9.809c-11.141,4.808-14.5,12.4-14.5,12.4,2.387,3.386,8.725,14.528,19.717-1.215" transform="translate(-13.172 -0.664)" fill="#008ece"/>
      <path id="Path_873" data-name="Path 873" d="M39.449.664s.668,6.205-2.7,8.226c0,0-5.4,2.515-7.051,3.339,0,0-6.937,4.187-9.223,8.122,0,0-4.893,6.548,1.861,5,0,0,12.215-3.448,17.179-13.855a1.805,1.805,0,0,0-.639-1.782S42.6,6.9,39.449.664" transform="translate(-15.007 -0.664)" fill="#a0d8f1"/>
      <path id="Path_874" data-name="Path 874" d="M41.066.664a10.828,10.828,0,0,1-3.239,7.748S36.771,9.9,31.315,12.229c0,0-6.245,3.256-9.045,7.772,0,0-4.15,5.005,1.54,3.663,0,0,11.529-4.249,15.753-12.051a1.278,1.278,0,0,0-.3-1.665s4.136-3.23,1.8-9.285" transform="translate(-16.624 -0.664)" fill="#f0f0f0"/>
    </g>
  </g>
</svg>
