<svg xmlns="http://www.w3.org/2000/svg" width="132.247" height="132.589" viewBox="0 0 132.247 132.589">
  <g id="Group_484" data-name="Group 484" transform="translate(49.914 0.036) rotate(31)">
    <rect id="Rectangle_390" data-name="Rectangle 390" width="96" height="97" rx="48" transform="translate(0.02 -0.053)" fill="rgba(200,228,249,0.43)"/>
    <path id="sqllite" d="M15.136,4.35C9.44,10.394,4.151,21.589,2.506,30.139a28.87,28.87,0,0,1,1.915,6.119,20.9,20.9,0,0,0-2.337-4.9L1.069,34.538a28.036,28.036,0,0,1,2.1,6.486A22.1,22.1,0,0,0,.687,35.876C.1,38.048-.135,39.512.077,39.87c1.364,2.79,2.343,8.6,2.5,10.405-.17,5.326.242,10.867,1.5,14.6l.417-.227C-.317,47.336,10.577,16.365,24.9,4.62,16.91,12.629,7.213,34.562,4.818,49.6c1.8-5.5,7.623-7.871,7.623-7.871s2.857-3.522,6.194-8.553a36.309,36.309,0,0,0-8.441,2.612,55.513,55.513,0,0,1,9.76-4.649c6.2-9.763,12.952-23.635,6.151-29.7C22.922-1.521,18.747.405,15.136,4.35Z" transform="translate(36.417 15.934)" fill="#004d88"/>
  </g>
</svg>
